<?xml version="1.0" encoding="utf-8" standalone="no"?>
<!DOCTYPE svg PUBLIC "-//W3C//DTD SVG 1.1//EN"
  "http://www.w3.org/Graphics/SVG/1.1/DTD/svg11.dtd">
<svg xmlns:xlink="http://www.w3.org/1999/xlink" width="864pt" height="576pt" viewBox="0 0 864 576" xmlns="http://www.w3.org/2000/svg" version="1.1">
 <metadata>
  <rdf:RDF xmlns:dc="http://purl.org/dc/elements/1.1/" xmlns:cc="http://creativecommons.org/ns#" xmlns:rdf="http://www.w3.org/1999/02/22-rdf-syntax-ns#">
   <cc:Work>
    <dc:type rdf:resource="http://purl.org/dc/dcmitype/StillImage"/>
    <dc:date>2024-02-15T14:15:04.552073</dc:date>
    <dc:format>image/svg+xml</dc:format>
    <dc:creator>
     <cc:Agent>
      <dc:title>Matplotlib v3.8.0, https://matplotlib.org/</dc:title>
     </cc:Agent>
    </dc:creator>
   </cc:Work>
  </rdf:RDF>
 </metadata>
 <defs>
  <style type="text/css">*{stroke-linejoin: round; stroke-linecap: butt}</style>
 </defs>
 <g id="figure_1">
  <g id="patch_1">
   <path d="M 0 576 
L 864 576 
L 864 0 
L 0 0 
z
" style="fill: #ffffff"/>
  </g>
  <g id="axes_1">
   <g id="patch_2">
    <path d="M 36.79 171.32 
L 853.2 171.32 
L 853.2 26.88 
L 36.79 26.88 
z
" style="fill: #ffffff"/>
   </g>
   <g id="matplotlib.axis_1">
    <g id="xtick_1">
     <g id="line2d_1">
      <defs>
       <path id="m4a3fb51e77" d="M 0 0 
L 0 3.5 
" style="stroke: #000000; stroke-width: 0.8"/>
      </defs>
      <g>
       <use xlink:href="#m4a3fb51e77" x="73.899545" y="171.32" style="stroke: #000000; stroke-width: 0.8"/>
      </g>
     </g>
     <g id="text_1">
      <!-- 0 -->
      <g transform="translate(70.718295 185.918438) scale(0.1 -0.1)">
       <defs>
        <path id="DejaVuSans-30" d="M 2034 4250 
Q 1547 4250 1301 3770 
Q 1056 3291 1056 2328 
Q 1056 1369 1301 889 
Q 1547 409 2034 409 
Q 2525 409 2770 889 
Q 3016 1369 3016 2328 
Q 3016 3291 2770 3770 
Q 2525 4250 2034 4250 
z
M 2034 4750 
Q 2819 4750 3233 4129 
Q 3647 3509 3647 2328 
Q 3647 1150 3233 529 
Q 2819 -91 2034 -91 
Q 1250 -91 836 529 
Q 422 1150 422 2328 
Q 422 3509 836 4129 
Q 1250 4750 2034 4750 
z
" transform="scale(0.015625)"/>
       </defs>
       <use xlink:href="#DejaVuSans-30"/>
      </g>
     </g>
    </g>
    <g id="xtick_2">
     <g id="line2d_2">
      <g>
       <use xlink:href="#m4a3fb51e77" x="167.139609" y="171.32" style="stroke: #000000; stroke-width: 0.8"/>
      </g>
     </g>
     <g id="text_2">
      <!-- 25 -->
      <g transform="translate(160.777109 185.918438) scale(0.1 -0.1)">
       <defs>
        <path id="DejaVuSans-32" d="M 1228 531 
L 3431 531 
L 3431 0 
L 469 0 
L 469 531 
Q 828 903 1448 1529 
Q 2069 2156 2228 2338 
Q 2531 2678 2651 2914 
Q 2772 3150 2772 3378 
Q 2772 3750 2511 3984 
Q 2250 4219 1831 4219 
Q 1534 4219 1204 4116 
Q 875 4013 500 3803 
L 500 4441 
Q 881 4594 1212 4672 
Q 1544 4750 1819 4750 
Q 2544 4750 2975 4387 
Q 3406 4025 3406 3419 
Q 3406 3131 3298 2873 
Q 3191 2616 2906 2266 
Q 2828 2175 2409 1742 
Q 1991 1309 1228 531 
z
" transform="scale(0.015625)"/>
        <path id="DejaVuSans-35" d="M 691 4666 
L 3169 4666 
L 3169 4134 
L 1269 4134 
L 1269 2991 
Q 1406 3038 1543 3061 
Q 1681 3084 1819 3084 
Q 2600 3084 3056 2656 
Q 3513 2228 3513 1497 
Q 3513 744 3044 326 
Q 2575 -91 1722 -91 
Q 1428 -91 1123 -41 
Q 819 9 494 109 
L 494 744 
Q 775 591 1075 516 
Q 1375 441 1709 441 
Q 2250 441 2565 725 
Q 2881 1009 2881 1497 
Q 2881 1984 2565 2268 
Q 2250 2553 1709 2553 
Q 1456 2553 1204 2497 
Q 953 2441 691 2322 
L 691 4666 
z
" transform="scale(0.015625)"/>
       </defs>
       <use xlink:href="#DejaVuSans-32"/>
       <use xlink:href="#DejaVuSans-35" x="63.623047"/>
      </g>
     </g>
    </g>
    <g id="xtick_3">
     <g id="line2d_3">
      <g>
       <use xlink:href="#m4a3fb51e77" x="260.379673" y="171.32" style="stroke: #000000; stroke-width: 0.8"/>
      </g>
     </g>
     <g id="text_3">
      <!-- 50 -->
      <g transform="translate(254.017173 185.918438) scale(0.1 -0.1)">
       <use xlink:href="#DejaVuSans-35"/>
       <use xlink:href="#DejaVuSans-30" x="63.623047"/>
      </g>
     </g>
    </g>
    <g id="xtick_4">
     <g id="line2d_4">
      <g>
       <use xlink:href="#m4a3fb51e77" x="353.619737" y="171.32" style="stroke: #000000; stroke-width: 0.8"/>
      </g>
     </g>
     <g id="text_4">
      <!-- 75 -->
      <g transform="translate(347.257237 185.918438) scale(0.1 -0.1)">
       <defs>
        <path id="DejaVuSans-37" d="M 525 4666 
L 3525 4666 
L 3525 4397 
L 1831 0 
L 1172 0 
L 2766 4134 
L 525 4134 
L 525 4666 
z
" transform="scale(0.015625)"/>
       </defs>
       <use xlink:href="#DejaVuSans-37"/>
       <use xlink:href="#DejaVuSans-35" x="63.623047"/>
      </g>
     </g>
    </g>
    <g id="xtick_5">
     <g id="line2d_5">
      <g>
       <use xlink:href="#m4a3fb51e77" x="446.859801" y="171.32" style="stroke: #000000; stroke-width: 0.8"/>
      </g>
     </g>
     <g id="text_5">
      <!-- 100 -->
      <g transform="translate(437.316051 185.918438) scale(0.1 -0.1)">
       <defs>
        <path id="DejaVuSans-31" d="M 794 531 
L 1825 531 
L 1825 4091 
L 703 3866 
L 703 4441 
L 1819 4666 
L 2450 4666 
L 2450 531 
L 3481 531 
L 3481 0 
L 794 0 
L 794 531 
z
" transform="scale(0.015625)"/>
       </defs>
       <use xlink:href="#DejaVuSans-31"/>
       <use xlink:href="#DejaVuSans-30" x="63.623047"/>
       <use xlink:href="#DejaVuSans-30" x="127.246094"/>
      </g>
     </g>
    </g>
    <g id="xtick_6">
     <g id="line2d_6">
      <g>
       <use xlink:href="#m4a3fb51e77" x="540.099865" y="171.32" style="stroke: #000000; stroke-width: 0.8"/>
      </g>
     </g>
     <g id="text_6">
      <!-- 125 -->
      <g transform="translate(530.556115 185.918438) scale(0.1 -0.1)">
       <use xlink:href="#DejaVuSans-31"/>
       <use xlink:href="#DejaVuSans-32" x="63.623047"/>
       <use xlink:href="#DejaVuSans-35" x="127.246094"/>
      </g>
     </g>
    </g>
    <g id="xtick_7">
     <g id="line2d_7">
      <g>
       <use xlink:href="#m4a3fb51e77" x="633.339929" y="171.32" style="stroke: #000000; stroke-width: 0.8"/>
      </g>
     </g>
     <g id="text_7">
      <!-- 150 -->
      <g transform="translate(623.796179 185.918438) scale(0.1 -0.1)">
       <use xlink:href="#DejaVuSans-31"/>
       <use xlink:href="#DejaVuSans-35" x="63.623047"/>
       <use xlink:href="#DejaVuSans-30" x="127.246094"/>
      </g>
     </g>
    </g>
    <g id="xtick_8">
     <g id="line2d_8">
      <g>
       <use xlink:href="#m4a3fb51e77" x="726.579993" y="171.32" style="stroke: #000000; stroke-width: 0.8"/>
      </g>
     </g>
     <g id="text_8">
      <!-- 175 -->
      <g transform="translate(717.036243 185.918438) scale(0.1 -0.1)">
       <use xlink:href="#DejaVuSans-31"/>
       <use xlink:href="#DejaVuSans-37" x="63.623047"/>
       <use xlink:href="#DejaVuSans-35" x="127.246094"/>
      </g>
     </g>
    </g>
    <g id="xtick_9">
     <g id="line2d_9">
      <g>
       <use xlink:href="#m4a3fb51e77" x="819.820057" y="171.32" style="stroke: #000000; stroke-width: 0.8"/>
      </g>
     </g>
     <g id="text_9">
      <!-- 200 -->
      <g transform="translate(810.276307 185.918438) scale(0.1 -0.1)">
       <use xlink:href="#DejaVuSans-32"/>
       <use xlink:href="#DejaVuSans-30" x="63.623047"/>
       <use xlink:href="#DejaVuSans-30" x="127.246094"/>
      </g>
     </g>
    </g>
   </g>
   <g id="matplotlib.axis_2">
    <g id="ytick_1">
     <g id="line2d_10">
      <defs>
       <path id="m5ee76d29df" d="M 0 0 
L -3.5 0 
" style="stroke: #000000; stroke-width: 0.8"/>
      </defs>
      <g>
       <use xlink:href="#m5ee76d29df" x="36.79" y="164.754545" style="stroke: #000000; stroke-width: 0.8"/>
      </g>
     </g>
     <g id="text_10">
      <!-- 633 -->
      <g transform="translate(10.7025 168.553764) scale(0.1 -0.1)">
       <defs>
        <path id="DejaVuSans-36" d="M 2113 2584 
Q 1688 2584 1439 2293 
Q 1191 2003 1191 1497 
Q 1191 994 1439 701 
Q 1688 409 2113 409 
Q 2538 409 2786 701 
Q 3034 994 3034 1497 
Q 3034 2003 2786 2293 
Q 2538 2584 2113 2584 
z
M 3366 4563 
L 3366 3988 
Q 3128 4100 2886 4159 
Q 2644 4219 2406 4219 
Q 1781 4219 1451 3797 
Q 1122 3375 1075 2522 
Q 1259 2794 1537 2939 
Q 1816 3084 2150 3084 
Q 2853 3084 3261 2657 
Q 3669 2231 3669 1497 
Q 3669 778 3244 343 
Q 2819 -91 2113 -91 
Q 1303 -91 875 529 
Q 447 1150 447 2328 
Q 447 3434 972 4092 
Q 1497 4750 2381 4750 
Q 2619 4750 2861 4703 
Q 3103 4656 3366 4563 
z
" transform="scale(0.015625)"/>
        <path id="DejaVuSans-33" d="M 2597 2516 
Q 3050 2419 3304 2112 
Q 3559 1806 3559 1356 
Q 3559 666 3084 287 
Q 2609 -91 1734 -91 
Q 1441 -91 1130 -33 
Q 819 25 488 141 
L 488 750 
Q 750 597 1062 519 
Q 1375 441 1716 441 
Q 2309 441 2620 675 
Q 2931 909 2931 1356 
Q 2931 1769 2642 2001 
Q 2353 2234 1838 2234 
L 1294 2234 
L 1294 2753 
L 1863 2753 
Q 2328 2753 2575 2939 
Q 2822 3125 2822 3475 
Q 2822 3834 2567 4026 
Q 2313 4219 1838 4219 
Q 1578 4219 1281 4162 
Q 984 4106 628 3988 
L 628 4550 
Q 988 4650 1302 4700 
Q 1616 4750 1894 4750 
Q 2613 4750 3031 4423 
Q 3450 4097 3450 3541 
Q 3450 3153 3228 2886 
Q 3006 2619 2597 2516 
z
" transform="scale(0.015625)"/>
       </defs>
       <use xlink:href="#DejaVuSans-36"/>
       <use xlink:href="#DejaVuSans-33" x="63.623047"/>
       <use xlink:href="#DejaVuSans-33" x="127.246094"/>
      </g>
     </g>
    </g>
    <g id="ytick_2">
     <g id="line2d_11">
      <g>
       <use xlink:href="#m5ee76d29df" x="36.79" y="99.1" style="stroke: #000000; stroke-width: 0.8"/>
      </g>
     </g>
     <g id="text_11">
      <!-- 634 -->
      <g transform="translate(10.7025 102.899219) scale(0.1 -0.1)">
       <defs>
        <path id="DejaVuSans-34" d="M 2419 4116 
L 825 1625 
L 2419 1625 
L 2419 4116 
z
M 2253 4666 
L 3047 4666 
L 3047 1625 
L 3713 1625 
L 3713 1100 
L 3047 1100 
L 3047 0 
L 2419 0 
L 2419 1100 
L 313 1100 
L 313 1709 
L 2253 4666 
z
" transform="scale(0.015625)"/>
       </defs>
       <use xlink:href="#DejaVuSans-36"/>
       <use xlink:href="#DejaVuSans-33" x="63.623047"/>
       <use xlink:href="#DejaVuSans-34" x="127.246094"/>
      </g>
     </g>
    </g>
    <g id="ytick_3">
     <g id="line2d_12">
      <g>
       <use xlink:href="#m5ee76d29df" x="36.79" y="33.445455" style="stroke: #000000; stroke-width: 0.8"/>
      </g>
     </g>
     <g id="text_12">
      <!-- 635 -->
      <g transform="translate(10.7025 37.244673) scale(0.1 -0.1)">
       <use xlink:href="#DejaVuSans-36"/>
       <use xlink:href="#DejaVuSans-33" x="63.623047"/>
       <use xlink:href="#DejaVuSans-35" x="127.246094"/>
      </g>
     </g>
    </g>
   </g>
   <g id="line2d_13">
    <path d="M 73.899545 99.1 
L 77.629148 33.445455 
L 81.358751 164.754545 
L 85.088353 99.1 
L 92.547558 99.1 
L 96.277161 164.754545 
L 100.006763 164.754545 
L 103.736366 99.1 
L 107.465968 164.754545 
L 111.195571 99.1 
L 122.384379 99.1 
L 126.113981 164.754545 
L 129.843584 99.1 
L 141.032392 99.1 
L 144.761994 164.754545 
L 148.491597 164.754545 
L 152.221199 99.1 
L 155.950802 164.754545 
L 163.410007 164.754545 
L 167.139609 99.1 
L 170.869212 164.754545 
L 174.598815 99.1 
L 178.328417 164.754545 
L 182.05802 99.1 
L 185.787622 99.1 
L 189.517225 164.754545 
L 193.246827 164.754545 
L 196.97643 99.1 
L 204.435635 99.1 
L 208.165238 164.754545 
L 211.89484 99.1 
L 215.624443 164.754545 
L 219.354045 99.1 
L 223.083648 164.754545 
L 230.542853 164.754545 
L 234.272455 99.1 
L 238.002058 164.754545 
L 241.731661 99.1 
L 256.650071 99.1 
L 260.379673 164.754545 
L 264.109276 164.754545 
L 267.838878 99.1 
L 271.568481 164.754545 
L 275.298084 99.1 
L 282.757289 99.1 
L 286.486891 164.754545 
L 290.216494 164.754545 
L 293.946096 99.1 
L 297.675699 99.1 
L 301.405302 164.754545 
L 305.134904 99.1 
L 308.864507 99.1 
L 312.594109 164.754545 
L 316.323712 164.754545 
L 320.053314 99.1 
L 323.782917 164.754545 
L 327.512519 164.754545 
L 331.242122 99.1 
L 334.971725 164.754545 
L 338.701327 33.445455 
L 342.43093 99.1 
L 346.160532 99.1 
L 349.890135 164.754545 
L 353.619737 99.1 
L 357.34934 164.754545 
L 361.078942 99.1 
L 364.808545 164.754545 
L 368.538148 99.1 
L 372.26775 99.1 
L 375.997353 164.754545 
L 379.726955 164.754545 
L 383.456558 99.1 
L 387.18616 164.754545 
L 390.915763 99.1 
L 398.374968 99.1 
L 402.104571 164.754545 
L 405.834173 99.1 
L 409.563776 164.754545 
L 417.022981 164.754545 
L 420.752583 33.445455 
L 424.482186 99.1 
L 428.211788 99.1 
L 431.941391 164.754545 
L 435.670994 164.754545 
L 439.400596 99.1 
L 443.130199 164.754545 
L 446.859801 99.1 
L 450.589404 164.754545 
L 454.319006 99.1 
L 458.048609 99.1 
L 461.778212 164.754545 
L 465.507814 99.1 
L 469.237417 164.754545 
L 472.967019 99.1 
L 476.696622 164.754545 
L 480.426224 99.1 
L 495.344635 99.1 
L 499.074237 164.754545 
L 502.80384 99.1 
L 513.992647 99.1 
L 517.72225 164.754545 
L 521.451852 164.754545 
L 525.181455 99.1 
L 528.911058 164.754545 
L 532.64066 99.1 
L 536.370263 164.754545 
L 540.099865 33.445455 
L 543.829468 164.754545 
L 547.55907 164.754545 
L 551.288673 99.1 
L 555.018275 164.754545 
L 558.747878 99.1 
L 569.936686 99.1 
L 573.666288 164.754545 
L 599.773506 164.754545 
L 603.503109 99.1 
L 607.232711 164.754545 
L 610.962314 164.754545 
L 614.691916 99.1 
L 618.421519 164.754545 
L 622.151122 99.1 
L 625.880724 99.1 
L 629.610327 164.754545 
L 633.339929 99.1 
L 637.069532 164.754545 
L 640.799134 99.1 
L 644.528737 164.754545 
L 648.258339 99.1 
L 651.987942 164.754545 
L 655.717545 99.1 
L 659.447147 164.754545 
L 663.17675 99.1 
L 666.906352 99.1 
L 670.635955 164.754545 
L 678.09516 164.754545 
L 681.824762 99.1 
L 685.554365 99.1 
L 689.283968 164.754545 
L 693.01357 99.1 
L 696.743173 99.1 
L 700.472775 164.754545 
L 704.202378 99.1 
L 707.93198 164.754545 
L 711.661583 99.1 
L 722.850391 99.1 
L 726.579993 164.754545 
L 734.039198 164.754545 
L 737.768801 99.1 
L 748.957608 99.1 
L 752.687211 164.754545 
L 756.416814 99.1 
L 767.605621 99.1 
L 771.335224 164.754545 
L 775.064826 164.754545 
L 778.794429 99.1 
L 782.524032 164.754545 
L 793.712839 164.754545 
L 797.442442 99.1 
L 816.090455 99.1 
L 816.090455 99.1 
" clip-path="url(#p275f54600a)" style="fill: none; stroke: #1f77b4; stroke-width: 1.5; stroke-linecap: square"/>
   </g>
   <g id="patch_3">
    <path d="M 36.79 171.32 
L 36.79 26.88 
" style="fill: none; stroke: #000000; stroke-width: 0.8; stroke-linejoin: miter; stroke-linecap: square"/>
   </g>
   <g id="patch_4">
    <path d="M 853.2 171.32 
L 853.2 26.88 
" style="fill: none; stroke: #000000; stroke-width: 0.8; stroke-linejoin: miter; stroke-linecap: square"/>
   </g>
   <g id="patch_5">
    <path d="M 36.79 171.32 
L 853.2 171.32 
" style="fill: none; stroke: #000000; stroke-width: 0.8; stroke-linejoin: miter; stroke-linecap: square"/>
   </g>
   <g id="patch_6">
    <path d="M 36.79 26.88 
L 853.2 26.88 
" style="fill: none; stroke: #000000; stroke-width: 0.8; stroke-linejoin: miter; stroke-linecap: square"/>
   </g>
   <g id="text_13">
    <!-- x-ordinate over time -->
    <g transform="translate(383.384375 20.88) scale(0.12 -0.12)">
     <defs>
      <path id="DejaVuSans-78" d="M 3513 3500 
L 2247 1797 
L 3578 0 
L 2900 0 
L 1881 1375 
L 863 0 
L 184 0 
L 1544 1831 
L 300 3500 
L 978 3500 
L 1906 2253 
L 2834 3500 
L 3513 3500 
z
" transform="scale(0.015625)"/>
      <path id="DejaVuSans-2d" d="M 313 2009 
L 1997 2009 
L 1997 1497 
L 313 1497 
L 313 2009 
z
" transform="scale(0.015625)"/>
      <path id="DejaVuSans-6f" d="M 1959 3097 
Q 1497 3097 1228 2736 
Q 959 2375 959 1747 
Q 959 1119 1226 758 
Q 1494 397 1959 397 
Q 2419 397 2687 759 
Q 2956 1122 2956 1747 
Q 2956 2369 2687 2733 
Q 2419 3097 1959 3097 
z
M 1959 3584 
Q 2709 3584 3137 3096 
Q 3566 2609 3566 1747 
Q 3566 888 3137 398 
Q 2709 -91 1959 -91 
Q 1206 -91 779 398 
Q 353 888 353 1747 
Q 353 2609 779 3096 
Q 1206 3584 1959 3584 
z
" transform="scale(0.015625)"/>
      <path id="DejaVuSans-72" d="M 2631 2963 
Q 2534 3019 2420 3045 
Q 2306 3072 2169 3072 
Q 1681 3072 1420 2755 
Q 1159 2438 1159 1844 
L 1159 0 
L 581 0 
L 581 3500 
L 1159 3500 
L 1159 2956 
Q 1341 3275 1631 3429 
Q 1922 3584 2338 3584 
Q 2397 3584 2469 3576 
Q 2541 3569 2628 3553 
L 2631 2963 
z
" transform="scale(0.015625)"/>
      <path id="DejaVuSans-64" d="M 2906 2969 
L 2906 4863 
L 3481 4863 
L 3481 0 
L 2906 0 
L 2906 525 
Q 2725 213 2448 61 
Q 2172 -91 1784 -91 
Q 1150 -91 751 415 
Q 353 922 353 1747 
Q 353 2572 751 3078 
Q 1150 3584 1784 3584 
Q 2172 3584 2448 3432 
Q 2725 3281 2906 2969 
z
M 947 1747 
Q 947 1113 1208 752 
Q 1469 391 1925 391 
Q 2381 391 2643 752 
Q 2906 1113 2906 1747 
Q 2906 2381 2643 2742 
Q 2381 3103 1925 3103 
Q 1469 3103 1208 2742 
Q 947 2381 947 1747 
z
" transform="scale(0.015625)"/>
      <path id="DejaVuSans-69" d="M 603 3500 
L 1178 3500 
L 1178 0 
L 603 0 
L 603 3500 
z
M 603 4863 
L 1178 4863 
L 1178 4134 
L 603 4134 
L 603 4863 
z
" transform="scale(0.015625)"/>
      <path id="DejaVuSans-6e" d="M 3513 2113 
L 3513 0 
L 2938 0 
L 2938 2094 
Q 2938 2591 2744 2837 
Q 2550 3084 2163 3084 
Q 1697 3084 1428 2787 
Q 1159 2491 1159 1978 
L 1159 0 
L 581 0 
L 581 3500 
L 1159 3500 
L 1159 2956 
Q 1366 3272 1645 3428 
Q 1925 3584 2291 3584 
Q 2894 3584 3203 3211 
Q 3513 2838 3513 2113 
z
" transform="scale(0.015625)"/>
      <path id="DejaVuSans-61" d="M 2194 1759 
Q 1497 1759 1228 1600 
Q 959 1441 959 1056 
Q 959 750 1161 570 
Q 1363 391 1709 391 
Q 2188 391 2477 730 
Q 2766 1069 2766 1631 
L 2766 1759 
L 2194 1759 
z
M 3341 1997 
L 3341 0 
L 2766 0 
L 2766 531 
Q 2569 213 2275 61 
Q 1981 -91 1556 -91 
Q 1019 -91 701 211 
Q 384 513 384 1019 
Q 384 1609 779 1909 
Q 1175 2209 1959 2209 
L 2766 2209 
L 2766 2266 
Q 2766 2663 2505 2880 
Q 2244 3097 1772 3097 
Q 1472 3097 1187 3025 
Q 903 2953 641 2809 
L 641 3341 
Q 956 3463 1253 3523 
Q 1550 3584 1831 3584 
Q 2591 3584 2966 3190 
Q 3341 2797 3341 1997 
z
" transform="scale(0.015625)"/>
      <path id="DejaVuSans-74" d="M 1172 4494 
L 1172 3500 
L 2356 3500 
L 2356 3053 
L 1172 3053 
L 1172 1153 
Q 1172 725 1289 603 
Q 1406 481 1766 481 
L 2356 481 
L 2356 0 
L 1766 0 
Q 1100 0 847 248 
Q 594 497 594 1153 
L 594 3053 
L 172 3053 
L 172 3500 
L 594 3500 
L 594 4494 
L 1172 4494 
z
" transform="scale(0.015625)"/>
      <path id="DejaVuSans-65" d="M 3597 1894 
L 3597 1613 
L 953 1613 
Q 991 1019 1311 708 
Q 1631 397 2203 397 
Q 2534 397 2845 478 
Q 3156 559 3463 722 
L 3463 178 
Q 3153 47 2828 -22 
Q 2503 -91 2169 -91 
Q 1331 -91 842 396 
Q 353 884 353 1716 
Q 353 2575 817 3079 
Q 1281 3584 2069 3584 
Q 2775 3584 3186 3129 
Q 3597 2675 3597 1894 
z
M 3022 2063 
Q 3016 2534 2758 2815 
Q 2500 3097 2075 3097 
Q 1594 3097 1305 2825 
Q 1016 2553 972 2059 
L 3022 2063 
z
" transform="scale(0.015625)"/>
      <path id="DejaVuSans-20" transform="scale(0.015625)"/>
      <path id="DejaVuSans-76" d="M 191 3500 
L 800 3500 
L 1894 563 
L 2988 3500 
L 3597 3500 
L 2284 0 
L 1503 0 
L 191 3500 
z
" transform="scale(0.015625)"/>
      <path id="DejaVuSans-6d" d="M 3328 2828 
Q 3544 3216 3844 3400 
Q 4144 3584 4550 3584 
Q 5097 3584 5394 3201 
Q 5691 2819 5691 2113 
L 5691 0 
L 5113 0 
L 5113 2094 
Q 5113 2597 4934 2840 
Q 4756 3084 4391 3084 
Q 3944 3084 3684 2787 
Q 3425 2491 3425 1978 
L 3425 0 
L 2847 0 
L 2847 2094 
Q 2847 2600 2669 2842 
Q 2491 3084 2119 3084 
Q 1678 3084 1418 2786 
Q 1159 2488 1159 1978 
L 1159 0 
L 581 0 
L 581 3500 
L 1159 3500 
L 1159 2956 
Q 1356 3278 1631 3431 
Q 1906 3584 2284 3584 
Q 2666 3584 2933 3390 
Q 3200 3197 3328 2828 
z
" transform="scale(0.015625)"/>
     </defs>
     <use xlink:href="#DejaVuSans-78"/>
     <use xlink:href="#DejaVuSans-2d" x="59.179688"/>
     <use xlink:href="#DejaVuSans-6f" x="97.138672"/>
     <use xlink:href="#DejaVuSans-72" x="158.320312"/>
     <use xlink:href="#DejaVuSans-64" x="197.683594"/>
     <use xlink:href="#DejaVuSans-69" x="261.160156"/>
     <use xlink:href="#DejaVuSans-6e" x="288.943359"/>
     <use xlink:href="#DejaVuSans-61" x="352.322266"/>
     <use xlink:href="#DejaVuSans-74" x="413.601562"/>
     <use xlink:href="#DejaVuSans-65" x="452.810547"/>
     <use xlink:href="#DejaVuSans-20" x="514.333984"/>
     <use xlink:href="#DejaVuSans-6f" x="546.121094"/>
     <use xlink:href="#DejaVuSans-76" x="607.302734"/>
     <use xlink:href="#DejaVuSans-65" x="666.482422"/>
     <use xlink:href="#DejaVuSans-72" x="728.005859"/>
     <use xlink:href="#DejaVuSans-20" x="769.119141"/>
     <use xlink:href="#DejaVuSans-74" x="800.90625"/>
     <use xlink:href="#DejaVuSans-69" x="840.115234"/>
     <use xlink:href="#DejaVuSans-6d" x="867.898438"/>
     <use xlink:href="#DejaVuSans-65" x="965.310547"/>
    </g>
   </g>
  </g>
  <g id="axes_2">
   <g id="patch_7">
    <path d="M 36.79 359.72 
L 853.2 359.72 
L 853.2 215.28 
L 36.79 215.28 
z
" style="fill: #ffffff"/>
   </g>
   <g id="matplotlib.axis_3">
    <g id="xtick_10">
     <g id="line2d_14">
      <g>
       <use xlink:href="#m4a3fb51e77" x="73.899545" y="359.72" style="stroke: #000000; stroke-width: 0.8"/>
      </g>
     </g>
     <g id="text_14">
      <!-- 0 -->
      <g transform="translate(70.718295 374.318438) scale(0.1 -0.1)">
       <use xlink:href="#DejaVuSans-30"/>
      </g>
     </g>
    </g>
    <g id="xtick_11">
     <g id="line2d_15">
      <g>
       <use xlink:href="#m4a3fb51e77" x="167.139609" y="359.72" style="stroke: #000000; stroke-width: 0.8"/>
      </g>
     </g>
     <g id="text_15">
      <!-- 25 -->
      <g transform="translate(160.777109 374.318438) scale(0.1 -0.1)">
       <use xlink:href="#DejaVuSans-32"/>
       <use xlink:href="#DejaVuSans-35" x="63.623047"/>
      </g>
     </g>
    </g>
    <g id="xtick_12">
     <g id="line2d_16">
      <g>
       <use xlink:href="#m4a3fb51e77" x="260.379673" y="359.72" style="stroke: #000000; stroke-width: 0.8"/>
      </g>
     </g>
     <g id="text_16">
      <!-- 50 -->
      <g transform="translate(254.017173 374.318438) scale(0.1 -0.1)">
       <use xlink:href="#DejaVuSans-35"/>
       <use xlink:href="#DejaVuSans-30" x="63.623047"/>
      </g>
     </g>
    </g>
    <g id="xtick_13">
     <g id="line2d_17">
      <g>
       <use xlink:href="#m4a3fb51e77" x="353.619737" y="359.72" style="stroke: #000000; stroke-width: 0.8"/>
      </g>
     </g>
     <g id="text_17">
      <!-- 75 -->
      <g transform="translate(347.257237 374.318438) scale(0.1 -0.1)">
       <use xlink:href="#DejaVuSans-37"/>
       <use xlink:href="#DejaVuSans-35" x="63.623047"/>
      </g>
     </g>
    </g>
    <g id="xtick_14">
     <g id="line2d_18">
      <g>
       <use xlink:href="#m4a3fb51e77" x="446.859801" y="359.72" style="stroke: #000000; stroke-width: 0.8"/>
      </g>
     </g>
     <g id="text_18">
      <!-- 100 -->
      <g transform="translate(437.316051 374.318438) scale(0.1 -0.1)">
       <use xlink:href="#DejaVuSans-31"/>
       <use xlink:href="#DejaVuSans-30" x="63.623047"/>
       <use xlink:href="#DejaVuSans-30" x="127.246094"/>
      </g>
     </g>
    </g>
    <g id="xtick_15">
     <g id="line2d_19">
      <g>
       <use xlink:href="#m4a3fb51e77" x="540.099865" y="359.72" style="stroke: #000000; stroke-width: 0.8"/>
      </g>
     </g>
     <g id="text_19">
      <!-- 125 -->
      <g transform="translate(530.556115 374.318438) scale(0.1 -0.1)">
       <use xlink:href="#DejaVuSans-31"/>
       <use xlink:href="#DejaVuSans-32" x="63.623047"/>
       <use xlink:href="#DejaVuSans-35" x="127.246094"/>
      </g>
     </g>
    </g>
    <g id="xtick_16">
     <g id="line2d_20">
      <g>
       <use xlink:href="#m4a3fb51e77" x="633.339929" y="359.72" style="stroke: #000000; stroke-width: 0.8"/>
      </g>
     </g>
     <g id="text_20">
      <!-- 150 -->
      <g transform="translate(623.796179 374.318438) scale(0.1 -0.1)">
       <use xlink:href="#DejaVuSans-31"/>
       <use xlink:href="#DejaVuSans-35" x="63.623047"/>
       <use xlink:href="#DejaVuSans-30" x="127.246094"/>
      </g>
     </g>
    </g>
    <g id="xtick_17">
     <g id="line2d_21">
      <g>
       <use xlink:href="#m4a3fb51e77" x="726.579993" y="359.72" style="stroke: #000000; stroke-width: 0.8"/>
      </g>
     </g>
     <g id="text_21">
      <!-- 175 -->
      <g transform="translate(717.036243 374.318438) scale(0.1 -0.1)">
       <use xlink:href="#DejaVuSans-31"/>
       <use xlink:href="#DejaVuSans-37" x="63.623047"/>
       <use xlink:href="#DejaVuSans-35" x="127.246094"/>
      </g>
     </g>
    </g>
    <g id="xtick_18">
     <g id="line2d_22">
      <g>
       <use xlink:href="#m4a3fb51e77" x="819.820057" y="359.72" style="stroke: #000000; stroke-width: 0.8"/>
      </g>
     </g>
     <g id="text_22">
      <!-- 200 -->
      <g transform="translate(810.276307 374.318438) scale(0.1 -0.1)">
       <use xlink:href="#DejaVuSans-32"/>
       <use xlink:href="#DejaVuSans-30" x="63.623047"/>
       <use xlink:href="#DejaVuSans-30" x="127.246094"/>
      </g>
     </g>
    </g>
   </g>
   <g id="matplotlib.axis_4">
    <g id="ytick_4">
     <g id="line2d_23">
      <g>
       <use xlink:href="#m5ee76d29df" x="36.79" y="353.154545" style="stroke: #000000; stroke-width: 0.8"/>
      </g>
     </g>
     <g id="text_23">
      <!-- 262 -->
      <g transform="translate(10.7025 356.953764) scale(0.1 -0.1)">
       <use xlink:href="#DejaVuSans-32"/>
       <use xlink:href="#DejaVuSans-36" x="63.623047"/>
       <use xlink:href="#DejaVuSans-32" x="127.246094"/>
      </g>
     </g>
    </g>
    <g id="ytick_5">
     <g id="line2d_24">
      <g>
       <use xlink:href="#m5ee76d29df" x="36.79" y="287.5" style="stroke: #000000; stroke-width: 0.8"/>
      </g>
     </g>
     <g id="text_24">
      <!-- 263 -->
      <g transform="translate(10.7025 291.299219) scale(0.1 -0.1)">
       <use xlink:href="#DejaVuSans-32"/>
       <use xlink:href="#DejaVuSans-36" x="63.623047"/>
       <use xlink:href="#DejaVuSans-33" x="127.246094"/>
      </g>
     </g>
    </g>
    <g id="ytick_6">
     <g id="line2d_25">
      <g>
       <use xlink:href="#m5ee76d29df" x="36.79" y="221.845455" style="stroke: #000000; stroke-width: 0.8"/>
      </g>
     </g>
     <g id="text_25">
      <!-- 264 -->
      <g transform="translate(10.7025 225.644673) scale(0.1 -0.1)">
       <use xlink:href="#DejaVuSans-32"/>
       <use xlink:href="#DejaVuSans-36" x="63.623047"/>
       <use xlink:href="#DejaVuSans-34" x="127.246094"/>
      </g>
     </g>
    </g>
   </g>
   <g id="line2d_26">
    <path d="M 73.899545 287.5 
L 85.088353 287.5 
L 88.817956 353.154545 
L 92.547558 287.5 
L 148.491597 287.5 
L 152.221199 221.845455 
L 155.950802 287.5 
L 252.920468 287.5 
L 256.650071 353.154545 
L 260.379673 287.5 
L 316.323712 287.5 
L 320.053314 353.154545 
L 323.782917 287.5 
L 338.701327 287.5 
L 342.43093 353.154545 
L 346.160532 353.154545 
L 349.890135 287.5 
L 375.997353 287.5 
L 379.726955 221.845455 
L 383.456558 353.154545 
L 387.18616 287.5 
L 420.752583 287.5 
L 424.482186 353.154545 
L 428.211788 287.5 
L 439.400596 287.5 
L 443.130199 353.154545 
L 446.859801 287.5 
L 465.507814 287.5 
L 469.237417 353.154545 
L 472.967019 287.5 
L 536.370263 287.5 
L 540.099865 353.154545 
L 543.829468 287.5 
L 599.773506 287.5 
L 603.503109 353.154545 
L 607.232711 353.154545 
L 610.962314 287.5 
L 614.691916 287.5 
L 618.421519 353.154545 
L 622.151122 353.154545 
L 625.880724 287.5 
L 719.120788 287.5 
L 722.850391 353.154545 
L 730.309596 221.845455 
L 734.039198 287.5 
L 789.983237 287.5 
L 793.712839 353.154545 
L 801.172044 221.845455 
L 804.901647 287.5 
L 816.090455 287.5 
L 816.090455 287.5 
" clip-path="url(#pdfc9027fc2)" style="fill: none; stroke: #1f77b4; stroke-width: 1.5; stroke-linecap: square"/>
   </g>
   <g id="patch_8">
    <path d="M 36.79 359.72 
L 36.79 215.28 
" style="fill: none; stroke: #000000; stroke-width: 0.8; stroke-linejoin: miter; stroke-linecap: square"/>
   </g>
   <g id="patch_9">
    <path d="M 853.2 359.72 
L 853.2 215.28 
" style="fill: none; stroke: #000000; stroke-width: 0.8; stroke-linejoin: miter; stroke-linecap: square"/>
   </g>
   <g id="patch_10">
    <path d="M 36.79 359.72 
L 853.2 359.72 
" style="fill: none; stroke: #000000; stroke-width: 0.8; stroke-linejoin: miter; stroke-linecap: square"/>
   </g>
   <g id="patch_11">
    <path d="M 36.79 215.28 
L 853.2 215.28 
" style="fill: none; stroke: #000000; stroke-width: 0.8; stroke-linejoin: miter; stroke-linecap: square"/>
   </g>
   <g id="text_26">
    <!-- y-ordinate over time -->
    <g transform="translate(383.489375 209.28) scale(0.12 -0.12)">
     <defs>
      <path id="DejaVuSans-79" d="M 2059 -325 
Q 1816 -950 1584 -1140 
Q 1353 -1331 966 -1331 
L 506 -1331 
L 506 -850 
L 844 -850 
Q 1081 -850 1212 -737 
Q 1344 -625 1503 -206 
L 1606 56 
L 191 3500 
L 800 3500 
L 1894 763 
L 2988 3500 
L 3597 3500 
L 2059 -325 
z
" transform="scale(0.015625)"/>
     </defs>
     <use xlink:href="#DejaVuSans-79"/>
     <use xlink:href="#DejaVuSans-2d" x="57.429688"/>
     <use xlink:href="#DejaVuSans-6f" x="95.388672"/>
     <use xlink:href="#DejaVuSans-72" x="156.570312"/>
     <use xlink:href="#DejaVuSans-64" x="195.933594"/>
     <use xlink:href="#DejaVuSans-69" x="259.410156"/>
     <use xlink:href="#DejaVuSans-6e" x="287.193359"/>
     <use xlink:href="#DejaVuSans-61" x="350.572266"/>
     <use xlink:href="#DejaVuSans-74" x="411.851562"/>
     <use xlink:href="#DejaVuSans-65" x="451.060547"/>
     <use xlink:href="#DejaVuSans-20" x="512.583984"/>
     <use xlink:href="#DejaVuSans-6f" x="544.371094"/>
     <use xlink:href="#DejaVuSans-76" x="605.552734"/>
     <use xlink:href="#DejaVuSans-65" x="664.732422"/>
     <use xlink:href="#DejaVuSans-72" x="726.255859"/>
     <use xlink:href="#DejaVuSans-20" x="767.369141"/>
     <use xlink:href="#DejaVuSans-74" x="799.15625"/>
     <use xlink:href="#DejaVuSans-69" x="838.365234"/>
     <use xlink:href="#DejaVuSans-6d" x="866.148438"/>
     <use xlink:href="#DejaVuSans-65" x="963.560547"/>
    </g>
   </g>
  </g>
  <g id="axes_3">
   <g id="patch_12">
    <path d="M 36.79 548.12 
L 853.2 548.12 
L 853.2 403.68 
L 36.79 403.68 
z
" style="fill: #ffffff"/>
   </g>
   <g id="matplotlib.axis_5">
    <g id="xtick_19">
     <g id="line2d_27">
      <g>
       <use xlink:href="#m4a3fb51e77" x="73.899545" y="548.12" style="stroke: #000000; stroke-width: 0.8"/>
      </g>
     </g>
     <g id="text_27">
      <!-- 0 -->
      <g transform="translate(70.718295 562.718437) scale(0.1 -0.1)">
       <use xlink:href="#DejaVuSans-30"/>
      </g>
     </g>
    </g>
    <g id="xtick_20">
     <g id="line2d_28">
      <g>
       <use xlink:href="#m4a3fb51e77" x="167.139609" y="548.12" style="stroke: #000000; stroke-width: 0.8"/>
      </g>
     </g>
     <g id="text_28">
      <!-- 25 -->
      <g transform="translate(160.777109 562.718437) scale(0.1 -0.1)">
       <use xlink:href="#DejaVuSans-32"/>
       <use xlink:href="#DejaVuSans-35" x="63.623047"/>
      </g>
     </g>
    </g>
    <g id="xtick_21">
     <g id="line2d_29">
      <g>
       <use xlink:href="#m4a3fb51e77" x="260.379673" y="548.12" style="stroke: #000000; stroke-width: 0.8"/>
      </g>
     </g>
     <g id="text_29">
      <!-- 50 -->
      <g transform="translate(254.017173 562.718437) scale(0.1 -0.1)">
       <use xlink:href="#DejaVuSans-35"/>
       <use xlink:href="#DejaVuSans-30" x="63.623047"/>
      </g>
     </g>
    </g>
    <g id="xtick_22">
     <g id="line2d_30">
      <g>
       <use xlink:href="#m4a3fb51e77" x="353.619737" y="548.12" style="stroke: #000000; stroke-width: 0.8"/>
      </g>
     </g>
     <g id="text_30">
      <!-- 75 -->
      <g transform="translate(347.257237 562.718437) scale(0.1 -0.1)">
       <use xlink:href="#DejaVuSans-37"/>
       <use xlink:href="#DejaVuSans-35" x="63.623047"/>
      </g>
     </g>
    </g>
    <g id="xtick_23">
     <g id="line2d_31">
      <g>
       <use xlink:href="#m4a3fb51e77" x="446.859801" y="548.12" style="stroke: #000000; stroke-width: 0.8"/>
      </g>
     </g>
     <g id="text_31">
      <!-- 100 -->
      <g transform="translate(437.316051 562.718437) scale(0.1 -0.1)">
       <use xlink:href="#DejaVuSans-31"/>
       <use xlink:href="#DejaVuSans-30" x="63.623047"/>
       <use xlink:href="#DejaVuSans-30" x="127.246094"/>
      </g>
     </g>
    </g>
    <g id="xtick_24">
     <g id="line2d_32">
      <g>
       <use xlink:href="#m4a3fb51e77" x="540.099865" y="548.12" style="stroke: #000000; stroke-width: 0.8"/>
      </g>
     </g>
     <g id="text_32">
      <!-- 125 -->
      <g transform="translate(530.556115 562.718437) scale(0.1 -0.1)">
       <use xlink:href="#DejaVuSans-31"/>
       <use xlink:href="#DejaVuSans-32" x="63.623047"/>
       <use xlink:href="#DejaVuSans-35" x="127.246094"/>
      </g>
     </g>
    </g>
    <g id="xtick_25">
     <g id="line2d_33">
      <g>
       <use xlink:href="#m4a3fb51e77" x="633.339929" y="548.12" style="stroke: #000000; stroke-width: 0.8"/>
      </g>
     </g>
     <g id="text_33">
      <!-- 150 -->
      <g transform="translate(623.796179 562.718437) scale(0.1 -0.1)">
       <use xlink:href="#DejaVuSans-31"/>
       <use xlink:href="#DejaVuSans-35" x="63.623047"/>
       <use xlink:href="#DejaVuSans-30" x="127.246094"/>
      </g>
     </g>
    </g>
    <g id="xtick_26">
     <g id="line2d_34">
      <g>
       <use xlink:href="#m4a3fb51e77" x="726.579993" y="548.12" style="stroke: #000000; stroke-width: 0.8"/>
      </g>
     </g>
     <g id="text_34">
      <!-- 175 -->
      <g transform="translate(717.036243 562.718437) scale(0.1 -0.1)">
       <use xlink:href="#DejaVuSans-31"/>
       <use xlink:href="#DejaVuSans-37" x="63.623047"/>
       <use xlink:href="#DejaVuSans-35" x="127.246094"/>
      </g>
     </g>
    </g>
    <g id="xtick_27">
     <g id="line2d_35">
      <g>
       <use xlink:href="#m4a3fb51e77" x="819.820057" y="548.12" style="stroke: #000000; stroke-width: 0.8"/>
      </g>
     </g>
     <g id="text_35">
      <!-- 200 -->
      <g transform="translate(810.276307 562.718437) scale(0.1 -0.1)">
       <use xlink:href="#DejaVuSans-32"/>
       <use xlink:href="#DejaVuSans-30" x="63.623047"/>
       <use xlink:href="#DejaVuSans-30" x="127.246094"/>
      </g>
     </g>
    </g>
   </g>
   <g id="matplotlib.axis_6">
    <g id="ytick_7">
     <g id="line2d_36">
      <g>
       <use xlink:href="#m5ee76d29df" x="36.79" y="541.554545" style="stroke: #000000; stroke-width: 0.8"/>
      </g>
     </g>
     <g id="text_36">
      <!-- 444 -->
      <g transform="translate(10.7025 545.353764) scale(0.1 -0.1)">
       <use xlink:href="#DejaVuSans-34"/>
       <use xlink:href="#DejaVuSans-34" x="63.623047"/>
       <use xlink:href="#DejaVuSans-34" x="127.246094"/>
      </g>
     </g>
    </g>
    <g id="ytick_8">
     <g id="line2d_37">
      <g>
       <use xlink:href="#m5ee76d29df" x="36.79" y="497.784848" style="stroke: #000000; stroke-width: 0.8"/>
      </g>
     </g>
     <g id="text_37">
      <!-- 445 -->
      <g transform="translate(10.7025 501.584067) scale(0.1 -0.1)">
       <use xlink:href="#DejaVuSans-34"/>
       <use xlink:href="#DejaVuSans-34" x="63.623047"/>
       <use xlink:href="#DejaVuSans-35" x="127.246094"/>
      </g>
     </g>
    </g>
    <g id="ytick_9">
     <g id="line2d_38">
      <g>
       <use xlink:href="#m5ee76d29df" x="36.79" y="454.015152" style="stroke: #000000; stroke-width: 0.8"/>
      </g>
     </g>
     <g id="text_38">
      <!-- 446 -->
      <g transform="translate(10.7025 457.81437) scale(0.1 -0.1)">
       <use xlink:href="#DejaVuSans-34"/>
       <use xlink:href="#DejaVuSans-34" x="63.623047"/>
       <use xlink:href="#DejaVuSans-36" x="127.246094"/>
      </g>
     </g>
    </g>
    <g id="ytick_10">
     <g id="line2d_39">
      <g>
       <use xlink:href="#m5ee76d29df" x="36.79" y="410.245455" style="stroke: #000000; stroke-width: 0.8"/>
      </g>
     </g>
     <g id="text_39">
      <!-- 447 -->
      <g transform="translate(10.7025 414.044673) scale(0.1 -0.1)">
       <use xlink:href="#DejaVuSans-34"/>
       <use xlink:href="#DejaVuSans-34" x="63.623047"/>
       <use xlink:href="#DejaVuSans-37" x="127.246094"/>
      </g>
     </g>
    </g>
   </g>
   <g id="line2d_40">
    <path d="M 73.899545 541.554545 
L 77.629148 497.784848 
L 92.547558 497.784848 
L 96.277161 454.015152 
L 100.006763 497.784848 
L 103.736366 497.784848 
L 107.465968 454.015152 
L 111.195571 497.784848 
L 114.925174 497.784848 
L 118.654776 454.015152 
L 122.384379 497.784848 
L 126.113981 454.015152 
L 129.843584 497.784848 
L 141.032392 497.784848 
L 144.761994 454.015152 
L 148.491597 497.784848 
L 152.221199 410.245455 
L 155.950802 454.015152 
L 163.410007 454.015152 
L 167.139609 497.784848 
L 170.869212 497.784848 
L 174.598815 454.015152 
L 178.328417 454.015152 
L 182.05802 497.784848 
L 189.517225 497.784848 
L 193.246827 454.015152 
L 196.97643 497.784848 
L 200.706032 454.015152 
L 204.435635 497.784848 
L 208.165238 454.015152 
L 211.89484 497.784848 
L 215.624443 454.015152 
L 219.354045 497.784848 
L 223.083648 454.015152 
L 226.81325 454.015152 
L 230.542853 497.784848 
L 234.272455 454.015152 
L 241.731661 454.015152 
L 245.461263 497.784848 
L 249.190866 497.784848 
L 252.920468 454.015152 
L 256.650071 497.784848 
L 260.379673 454.015152 
L 264.109276 497.784848 
L 267.838878 497.784848 
L 271.568481 454.015152 
L 279.027686 454.015152 
L 282.757289 497.784848 
L 286.486891 497.784848 
L 290.216494 454.015152 
L 301.405302 454.015152 
L 305.134904 497.784848 
L 312.594109 497.784848 
L 316.323712 454.015152 
L 320.053314 497.784848 
L 327.512519 497.784848 
L 331.242122 454.015152 
L 334.971725 454.015152 
L 338.701327 497.784848 
L 342.43093 454.015152 
L 346.160532 454.015152 
L 349.890135 497.784848 
L 353.619737 454.015152 
L 357.34934 454.015152 
L 361.078942 497.784848 
L 368.538148 497.784848 
L 372.26775 454.015152 
L 379.726955 454.015152 
L 383.456558 497.784848 
L 394.645365 497.784848 
L 398.374968 454.015152 
L 402.104571 497.784848 
L 409.563776 497.784848 
L 413.293378 454.015152 
L 417.022981 497.784848 
L 450.589404 497.784848 
L 454.319006 454.015152 
L 465.507814 454.015152 
L 469.237417 497.784848 
L 476.696622 497.784848 
L 480.426224 454.015152 
L 495.344635 454.015152 
L 499.074237 497.784848 
L 502.80384 497.784848 
L 506.533442 454.015152 
L 513.992647 454.015152 
L 517.72225 497.784848 
L 540.099865 497.784848 
L 543.829468 454.015152 
L 547.55907 497.784848 
L 551.288673 454.015152 
L 562.477481 454.015152 
L 566.207083 497.784848 
L 573.666288 497.784848 
L 577.395891 454.015152 
L 581.125493 454.015152 
L 584.855096 497.784848 
L 588.584698 454.015152 
L 592.314301 497.784848 
L 603.503109 497.784848 
L 607.232711 454.015152 
L 610.962314 454.015152 
L 614.691916 497.784848 
L 618.421519 454.015152 
L 622.151122 454.015152 
L 625.880724 497.784848 
L 629.610327 497.784848 
L 633.339929 454.015152 
L 637.069532 454.015152 
L 640.799134 497.784848 
L 644.528737 454.015152 
L 648.258339 497.784848 
L 651.987942 497.784848 
L 655.717545 454.015152 
L 659.447147 497.784848 
L 663.17675 454.015152 
L 666.906352 497.784848 
L 670.635955 454.015152 
L 674.365557 497.784848 
L 678.09516 497.784848 
L 681.824762 454.015152 
L 685.554365 497.784848 
L 700.472775 497.784848 
L 704.202378 454.015152 
L 711.661583 454.015152 
L 715.391185 497.784848 
L 719.120788 454.015152 
L 722.850391 497.784848 
L 726.579993 497.784848 
L 730.309596 410.245455 
L 734.039198 497.784848 
L 737.768801 497.784848 
L 741.498403 454.015152 
L 745.228006 497.784848 
L 748.957608 454.015152 
L 756.416814 454.015152 
L 760.146416 497.784848 
L 763.876019 497.784848 
L 767.605621 454.015152 
L 771.335224 497.784848 
L 775.064826 454.015152 
L 778.794429 497.784848 
L 782.524032 454.015152 
L 786.253634 454.015152 
L 789.983237 497.784848 
L 793.712839 454.015152 
L 797.442442 497.784848 
L 801.172044 410.245455 
L 804.901647 497.784848 
L 812.360852 497.784848 
L 816.090455 454.015152 
L 816.090455 454.015152 
" clip-path="url(#pda25f1bf71)" style="fill: none; stroke: #1f77b4; stroke-width: 1.5; stroke-linecap: square"/>
   </g>
   <g id="patch_13">
    <path d="M 36.79 548.12 
L 36.79 403.68 
" style="fill: none; stroke: #000000; stroke-width: 0.8; stroke-linejoin: miter; stroke-linecap: square"/>
   </g>
   <g id="patch_14">
    <path d="M 853.2 548.12 
L 853.2 403.68 
" style="fill: none; stroke: #000000; stroke-width: 0.8; stroke-linejoin: miter; stroke-linecap: square"/>
   </g>
   <g id="patch_15">
    <path d="M 36.79 548.12 
L 853.2 548.12 
" style="fill: none; stroke: #000000; stroke-width: 0.8; stroke-linejoin: miter; stroke-linecap: square"/>
   </g>
   <g id="patch_16">
    <path d="M 36.79 403.68 
L 853.2 403.68 
" style="fill: none; stroke: #000000; stroke-width: 0.8; stroke-linejoin: miter; stroke-linecap: square"/>
   </g>
   <g id="text_40">
    <!-- Depth over time -->
    <g transform="translate(395.969375 397.68) scale(0.12 -0.12)">
     <defs>
      <path id="DejaVuSans-44" d="M 1259 4147 
L 1259 519 
L 2022 519 
Q 2988 519 3436 956 
Q 3884 1394 3884 2338 
Q 3884 3275 3436 3711 
Q 2988 4147 2022 4147 
L 1259 4147 
z
M 628 4666 
L 1925 4666 
Q 3281 4666 3915 4102 
Q 4550 3538 4550 2338 
Q 4550 1131 3912 565 
Q 3275 0 1925 0 
L 628 0 
L 628 4666 
z
" transform="scale(0.015625)"/>
      <path id="DejaVuSans-70" d="M 1159 525 
L 1159 -1331 
L 581 -1331 
L 581 3500 
L 1159 3500 
L 1159 2969 
Q 1341 3281 1617 3432 
Q 1894 3584 2278 3584 
Q 2916 3584 3314 3078 
Q 3713 2572 3713 1747 
Q 3713 922 3314 415 
Q 2916 -91 2278 -91 
Q 1894 -91 1617 61 
Q 1341 213 1159 525 
z
M 3116 1747 
Q 3116 2381 2855 2742 
Q 2594 3103 2138 3103 
Q 1681 3103 1420 2742 
Q 1159 2381 1159 1747 
Q 1159 1113 1420 752 
Q 1681 391 2138 391 
Q 2594 391 2855 752 
Q 3116 1113 3116 1747 
z
" transform="scale(0.015625)"/>
      <path id="DejaVuSans-68" d="M 3513 2113 
L 3513 0 
L 2938 0 
L 2938 2094 
Q 2938 2591 2744 2837 
Q 2550 3084 2163 3084 
Q 1697 3084 1428 2787 
Q 1159 2491 1159 1978 
L 1159 0 
L 581 0 
L 581 4863 
L 1159 4863 
L 1159 2956 
Q 1366 3272 1645 3428 
Q 1925 3584 2291 3584 
Q 2894 3584 3203 3211 
Q 3513 2838 3513 2113 
z
" transform="scale(0.015625)"/>
     </defs>
     <use xlink:href="#DejaVuSans-44"/>
     <use xlink:href="#DejaVuSans-65" x="77.001953"/>
     <use xlink:href="#DejaVuSans-70" x="138.525391"/>
     <use xlink:href="#DejaVuSans-74" x="202.001953"/>
     <use xlink:href="#DejaVuSans-68" x="241.210938"/>
     <use xlink:href="#DejaVuSans-20" x="304.589844"/>
     <use xlink:href="#DejaVuSans-6f" x="336.376953"/>
     <use xlink:href="#DejaVuSans-76" x="397.558594"/>
     <use xlink:href="#DejaVuSans-65" x="456.738281"/>
     <use xlink:href="#DejaVuSans-72" x="518.261719"/>
     <use xlink:href="#DejaVuSans-20" x="559.375"/>
     <use xlink:href="#DejaVuSans-74" x="591.162109"/>
     <use xlink:href="#DejaVuSans-69" x="630.371094"/>
     <use xlink:href="#DejaVuSans-6d" x="658.154297"/>
     <use xlink:href="#DejaVuSans-65" x="755.566406"/>
    </g>
   </g>
  </g>
 </g>
 <defs>
  <clipPath id="p275f54600a">
   <rect x="36.79" y="26.88" width="816.41" height="144.44"/>
  </clipPath>
  <clipPath id="pdfc9027fc2">
   <rect x="36.79" y="215.28" width="816.41" height="144.44"/>
  </clipPath>
  <clipPath id="pda25f1bf71">
   <rect x="36.79" y="403.68" width="816.41" height="144.44"/>
  </clipPath>
 </defs>
</svg>
