<?xml version="1.0" encoding="utf-8" standalone="no"?>
<!DOCTYPE svg PUBLIC "-//W3C//DTD SVG 1.1//EN"
  "http://www.w3.org/Graphics/SVG/1.1/DTD/svg11.dtd">
<svg xmlns:xlink="http://www.w3.org/1999/xlink" width="864pt" height="576pt" viewBox="0 0 864 576" xmlns="http://www.w3.org/2000/svg" version="1.1">
 <metadata>
  <rdf:RDF xmlns:dc="http://purl.org/dc/elements/1.1/" xmlns:cc="http://creativecommons.org/ns#" xmlns:rdf="http://www.w3.org/1999/02/22-rdf-syntax-ns#">
   <cc:Work>
    <dc:type rdf:resource="http://purl.org/dc/dcmitype/StillImage"/>
    <dc:date>2024-03-18T19:07:36.926404</dc:date>
    <dc:format>image/svg+xml</dc:format>
    <dc:creator>
     <cc:Agent>
      <dc:title>Matplotlib v3.8.0, https://matplotlib.org/</dc:title>
     </cc:Agent>
    </dc:creator>
   </cc:Work>
  </rdf:RDF>
 </metadata>
 <defs>
  <style type="text/css">*{stroke-linejoin: round; stroke-linecap: butt}</style>
 </defs>
 <g id="figure_1">
  <g id="patch_1">
   <path d="M 0 576 
L 864 576 
L 864 0 
L 0 0 
z
" style="fill: #ffffff"/>
  </g>
  <g id="axes_1">
   <g id="patch_2">
    <path d="M 51.05 157.24 
L 853.2 157.24 
L 853.2 26.88 
L 51.05 26.88 
z
" style="fill: #ffffff"/>
   </g>
   <g id="matplotlib.axis_1">
    <g id="xtick_1">
     <g id="line2d_1">
      <defs>
       <path id="maaabf05f13" d="M 0 0 
L 0 3.5 
" style="stroke: #000000; stroke-width: 0.8"/>
      </defs>
      <g>
       <use xlink:href="#maaabf05f13" x="87.511364" y="157.24" style="stroke: #000000; stroke-width: 0.8"/>
      </g>
     </g>
     <g id="text_1">
      <!-- 0 -->
      <g transform="translate(84.330114 171.838438) scale(0.1 -0.1)">
       <defs>
        <path id="DejaVuSans-30" d="M 2034 4250 
Q 1547 4250 1301 3770 
Q 1056 3291 1056 2328 
Q 1056 1369 1301 889 
Q 1547 409 2034 409 
Q 2525 409 2770 889 
Q 3016 1369 3016 2328 
Q 3016 3291 2770 3770 
Q 2525 4250 2034 4250 
z
M 2034 4750 
Q 2819 4750 3233 4129 
Q 3647 3509 3647 2328 
Q 3647 1150 3233 529 
Q 2819 -91 2034 -91 
Q 1250 -91 836 529 
Q 422 1150 422 2328 
Q 422 3509 836 4129 
Q 1250 4750 2034 4750 
z
" transform="scale(0.015625)"/>
       </defs>
       <use xlink:href="#DejaVuSans-30"/>
      </g>
     </g>
    </g>
    <g id="xtick_2">
     <g id="line2d_2">
      <g>
       <use xlink:href="#maaabf05f13" x="179.12283" y="157.24" style="stroke: #000000; stroke-width: 0.8"/>
      </g>
     </g>
     <g id="text_2">
      <!-- 25 -->
      <g transform="translate(172.76033 171.838438) scale(0.1 -0.1)">
       <defs>
        <path id="DejaVuSans-32" d="M 1228 531 
L 3431 531 
L 3431 0 
L 469 0 
L 469 531 
Q 828 903 1448 1529 
Q 2069 2156 2228 2338 
Q 2531 2678 2651 2914 
Q 2772 3150 2772 3378 
Q 2772 3750 2511 3984 
Q 2250 4219 1831 4219 
Q 1534 4219 1204 4116 
Q 875 4013 500 3803 
L 500 4441 
Q 881 4594 1212 4672 
Q 1544 4750 1819 4750 
Q 2544 4750 2975 4387 
Q 3406 4025 3406 3419 
Q 3406 3131 3298 2873 
Q 3191 2616 2906 2266 
Q 2828 2175 2409 1742 
Q 1991 1309 1228 531 
z
" transform="scale(0.015625)"/>
        <path id="DejaVuSans-35" d="M 691 4666 
L 3169 4666 
L 3169 4134 
L 1269 4134 
L 1269 2991 
Q 1406 3038 1543 3061 
Q 1681 3084 1819 3084 
Q 2600 3084 3056 2656 
Q 3513 2228 3513 1497 
Q 3513 744 3044 326 
Q 2575 -91 1722 -91 
Q 1428 -91 1123 -41 
Q 819 9 494 109 
L 494 744 
Q 775 591 1075 516 
Q 1375 441 1709 441 
Q 2250 441 2565 725 
Q 2881 1009 2881 1497 
Q 2881 1984 2565 2268 
Q 2250 2553 1709 2553 
Q 1456 2553 1204 2497 
Q 953 2441 691 2322 
L 691 4666 
z
" transform="scale(0.015625)"/>
       </defs>
       <use xlink:href="#DejaVuSans-32"/>
       <use xlink:href="#DejaVuSans-35" x="63.623047"/>
      </g>
     </g>
    </g>
    <g id="xtick_3">
     <g id="line2d_3">
      <g>
       <use xlink:href="#maaabf05f13" x="270.734296" y="157.24" style="stroke: #000000; stroke-width: 0.8"/>
      </g>
     </g>
     <g id="text_3">
      <!-- 50 -->
      <g transform="translate(264.371796 171.838438) scale(0.1 -0.1)">
       <use xlink:href="#DejaVuSans-35"/>
       <use xlink:href="#DejaVuSans-30" x="63.623047"/>
      </g>
     </g>
    </g>
    <g id="xtick_4">
     <g id="line2d_4">
      <g>
       <use xlink:href="#maaabf05f13" x="362.345763" y="157.24" style="stroke: #000000; stroke-width: 0.8"/>
      </g>
     </g>
     <g id="text_4">
      <!-- 75 -->
      <g transform="translate(355.983263 171.838438) scale(0.1 -0.1)">
       <defs>
        <path id="DejaVuSans-37" d="M 525 4666 
L 3525 4666 
L 3525 4397 
L 1831 0 
L 1172 0 
L 2766 4134 
L 525 4134 
L 525 4666 
z
" transform="scale(0.015625)"/>
       </defs>
       <use xlink:href="#DejaVuSans-37"/>
       <use xlink:href="#DejaVuSans-35" x="63.623047"/>
      </g>
     </g>
    </g>
    <g id="xtick_5">
     <g id="line2d_5">
      <g>
       <use xlink:href="#maaabf05f13" x="453.957229" y="157.24" style="stroke: #000000; stroke-width: 0.8"/>
      </g>
     </g>
     <g id="text_5">
      <!-- 100 -->
      <g transform="translate(444.413479 171.838438) scale(0.1 -0.1)">
       <defs>
        <path id="DejaVuSans-31" d="M 794 531 
L 1825 531 
L 1825 4091 
L 703 3866 
L 703 4441 
L 1819 4666 
L 2450 4666 
L 2450 531 
L 3481 531 
L 3481 0 
L 794 0 
L 794 531 
z
" transform="scale(0.015625)"/>
       </defs>
       <use xlink:href="#DejaVuSans-31"/>
       <use xlink:href="#DejaVuSans-30" x="63.623047"/>
       <use xlink:href="#DejaVuSans-30" x="127.246094"/>
      </g>
     </g>
    </g>
    <g id="xtick_6">
     <g id="line2d_6">
      <g>
       <use xlink:href="#maaabf05f13" x="545.568696" y="157.24" style="stroke: #000000; stroke-width: 0.8"/>
      </g>
     </g>
     <g id="text_6">
      <!-- 125 -->
      <g transform="translate(536.024946 171.838438) scale(0.1 -0.1)">
       <use xlink:href="#DejaVuSans-31"/>
       <use xlink:href="#DejaVuSans-32" x="63.623047"/>
       <use xlink:href="#DejaVuSans-35" x="127.246094"/>
      </g>
     </g>
    </g>
    <g id="xtick_7">
     <g id="line2d_7">
      <g>
       <use xlink:href="#maaabf05f13" x="637.180162" y="157.24" style="stroke: #000000; stroke-width: 0.8"/>
      </g>
     </g>
     <g id="text_7">
      <!-- 150 -->
      <g transform="translate(627.636412 171.838438) scale(0.1 -0.1)">
       <use xlink:href="#DejaVuSans-31"/>
       <use xlink:href="#DejaVuSans-35" x="63.623047"/>
       <use xlink:href="#DejaVuSans-30" x="127.246094"/>
      </g>
     </g>
    </g>
    <g id="xtick_8">
     <g id="line2d_8">
      <g>
       <use xlink:href="#maaabf05f13" x="728.791629" y="157.24" style="stroke: #000000; stroke-width: 0.8"/>
      </g>
     </g>
     <g id="text_8">
      <!-- 175 -->
      <g transform="translate(719.247879 171.838438) scale(0.1 -0.1)">
       <use xlink:href="#DejaVuSans-31"/>
       <use xlink:href="#DejaVuSans-37" x="63.623047"/>
       <use xlink:href="#DejaVuSans-35" x="127.246094"/>
      </g>
     </g>
    </g>
    <g id="xtick_9">
     <g id="line2d_9">
      <g>
       <use xlink:href="#maaabf05f13" x="820.403095" y="157.24" style="stroke: #000000; stroke-width: 0.8"/>
      </g>
     </g>
     <g id="text_9">
      <!-- 200 -->
      <g transform="translate(810.859345 171.838438) scale(0.1 -0.1)">
       <use xlink:href="#DejaVuSans-32"/>
       <use xlink:href="#DejaVuSans-30" x="63.623047"/>
       <use xlink:href="#DejaVuSans-30" x="127.246094"/>
      </g>
     </g>
    </g>
    <g id="text_10">
     <!-- Time step -->
     <g transform="translate(427.486719 185.516563) scale(0.1 -0.1)">
      <defs>
       <path id="DejaVuSans-54" d="M -19 4666 
L 3928 4666 
L 3928 4134 
L 2272 4134 
L 2272 0 
L 1638 0 
L 1638 4134 
L -19 4134 
L -19 4666 
z
" transform="scale(0.015625)"/>
       <path id="DejaVuSans-69" d="M 603 3500 
L 1178 3500 
L 1178 0 
L 603 0 
L 603 3500 
z
M 603 4863 
L 1178 4863 
L 1178 4134 
L 603 4134 
L 603 4863 
z
" transform="scale(0.015625)"/>
       <path id="DejaVuSans-6d" d="M 3328 2828 
Q 3544 3216 3844 3400 
Q 4144 3584 4550 3584 
Q 5097 3584 5394 3201 
Q 5691 2819 5691 2113 
L 5691 0 
L 5113 0 
L 5113 2094 
Q 5113 2597 4934 2840 
Q 4756 3084 4391 3084 
Q 3944 3084 3684 2787 
Q 3425 2491 3425 1978 
L 3425 0 
L 2847 0 
L 2847 2094 
Q 2847 2600 2669 2842 
Q 2491 3084 2119 3084 
Q 1678 3084 1418 2786 
Q 1159 2488 1159 1978 
L 1159 0 
L 581 0 
L 581 3500 
L 1159 3500 
L 1159 2956 
Q 1356 3278 1631 3431 
Q 1906 3584 2284 3584 
Q 2666 3584 2933 3390 
Q 3200 3197 3328 2828 
z
" transform="scale(0.015625)"/>
       <path id="DejaVuSans-65" d="M 3597 1894 
L 3597 1613 
L 953 1613 
Q 991 1019 1311 708 
Q 1631 397 2203 397 
Q 2534 397 2845 478 
Q 3156 559 3463 722 
L 3463 178 
Q 3153 47 2828 -22 
Q 2503 -91 2169 -91 
Q 1331 -91 842 396 
Q 353 884 353 1716 
Q 353 2575 817 3079 
Q 1281 3584 2069 3584 
Q 2775 3584 3186 3129 
Q 3597 2675 3597 1894 
z
M 3022 2063 
Q 3016 2534 2758 2815 
Q 2500 3097 2075 3097 
Q 1594 3097 1305 2825 
Q 1016 2553 972 2059 
L 3022 2063 
z
" transform="scale(0.015625)"/>
       <path id="DejaVuSans-20" transform="scale(0.015625)"/>
       <path id="DejaVuSans-73" d="M 2834 3397 
L 2834 2853 
Q 2591 2978 2328 3040 
Q 2066 3103 1784 3103 
Q 1356 3103 1142 2972 
Q 928 2841 928 2578 
Q 928 2378 1081 2264 
Q 1234 2150 1697 2047 
L 1894 2003 
Q 2506 1872 2764 1633 
Q 3022 1394 3022 966 
Q 3022 478 2636 193 
Q 2250 -91 1575 -91 
Q 1294 -91 989 -36 
Q 684 19 347 128 
L 347 722 
Q 666 556 975 473 
Q 1284 391 1588 391 
Q 1994 391 2212 530 
Q 2431 669 2431 922 
Q 2431 1156 2273 1281 
Q 2116 1406 1581 1522 
L 1381 1569 
Q 847 1681 609 1914 
Q 372 2147 372 2553 
Q 372 3047 722 3315 
Q 1072 3584 1716 3584 
Q 2034 3584 2315 3537 
Q 2597 3491 2834 3397 
z
" transform="scale(0.015625)"/>
       <path id="DejaVuSans-74" d="M 1172 4494 
L 1172 3500 
L 2356 3500 
L 2356 3053 
L 1172 3053 
L 1172 1153 
Q 1172 725 1289 603 
Q 1406 481 1766 481 
L 2356 481 
L 2356 0 
L 1766 0 
Q 1100 0 847 248 
Q 594 497 594 1153 
L 594 3053 
L 172 3053 
L 172 3500 
L 594 3500 
L 594 4494 
L 1172 4494 
z
" transform="scale(0.015625)"/>
       <path id="DejaVuSans-70" d="M 1159 525 
L 1159 -1331 
L 581 -1331 
L 581 3500 
L 1159 3500 
L 1159 2969 
Q 1341 3281 1617 3432 
Q 1894 3584 2278 3584 
Q 2916 3584 3314 3078 
Q 3713 2572 3713 1747 
Q 3713 922 3314 415 
Q 2916 -91 2278 -91 
Q 1894 -91 1617 61 
Q 1341 213 1159 525 
z
M 3116 1747 
Q 3116 2381 2855 2742 
Q 2594 3103 2138 3103 
Q 1681 3103 1420 2742 
Q 1159 2381 1159 1747 
Q 1159 1113 1420 752 
Q 1681 391 2138 391 
Q 2594 391 2855 752 
Q 3116 1113 3116 1747 
z
" transform="scale(0.015625)"/>
      </defs>
      <use xlink:href="#DejaVuSans-54"/>
      <use xlink:href="#DejaVuSans-69" x="57.958984"/>
      <use xlink:href="#DejaVuSans-6d" x="85.742188"/>
      <use xlink:href="#DejaVuSans-65" x="183.154297"/>
      <use xlink:href="#DejaVuSans-20" x="244.677734"/>
      <use xlink:href="#DejaVuSans-73" x="276.464844"/>
      <use xlink:href="#DejaVuSans-74" x="328.564453"/>
      <use xlink:href="#DejaVuSans-65" x="367.773438"/>
      <use xlink:href="#DejaVuSans-70" x="429.296875"/>
     </g>
    </g>
   </g>
   <g id="matplotlib.axis_2">
    <g id="ytick_1">
     <g id="line2d_10">
      <defs>
       <path id="m95fe4ad2ba" d="M 0 0 
L -3.5 0 
" style="stroke: #000000; stroke-width: 0.8"/>
      </defs>
      <g>
       <use xlink:href="#m95fe4ad2ba" x="51.05" y="151.314545" style="stroke: #000000; stroke-width: 0.8"/>
      </g>
     </g>
     <g id="text_11">
      <!-- 139 -->
      <g transform="translate(24.9625 155.113764) scale(0.1 -0.1)">
       <defs>
        <path id="DejaVuSans-33" d="M 2597 2516 
Q 3050 2419 3304 2112 
Q 3559 1806 3559 1356 
Q 3559 666 3084 287 
Q 2609 -91 1734 -91 
Q 1441 -91 1130 -33 
Q 819 25 488 141 
L 488 750 
Q 750 597 1062 519 
Q 1375 441 1716 441 
Q 2309 441 2620 675 
Q 2931 909 2931 1356 
Q 2931 1769 2642 2001 
Q 2353 2234 1838 2234 
L 1294 2234 
L 1294 2753 
L 1863 2753 
Q 2328 2753 2575 2939 
Q 2822 3125 2822 3475 
Q 2822 3834 2567 4026 
Q 2313 4219 1838 4219 
Q 1578 4219 1281 4162 
Q 984 4106 628 3988 
L 628 4550 
Q 988 4650 1302 4700 
Q 1616 4750 1894 4750 
Q 2613 4750 3031 4423 
Q 3450 4097 3450 3541 
Q 3450 3153 3228 2886 
Q 3006 2619 2597 2516 
z
" transform="scale(0.015625)"/>
        <path id="DejaVuSans-39" d="M 703 97 
L 703 672 
Q 941 559 1184 500 
Q 1428 441 1663 441 
Q 2288 441 2617 861 
Q 2947 1281 2994 2138 
Q 2813 1869 2534 1725 
Q 2256 1581 1919 1581 
Q 1219 1581 811 2004 
Q 403 2428 403 3163 
Q 403 3881 828 4315 
Q 1253 4750 1959 4750 
Q 2769 4750 3195 4129 
Q 3622 3509 3622 2328 
Q 3622 1225 3098 567 
Q 2575 -91 1691 -91 
Q 1453 -91 1209 -44 
Q 966 3 703 97 
z
M 1959 2075 
Q 2384 2075 2632 2365 
Q 2881 2656 2881 3163 
Q 2881 3666 2632 3958 
Q 2384 4250 1959 4250 
Q 1534 4250 1286 3958 
Q 1038 3666 1038 3163 
Q 1038 2656 1286 2365 
Q 1534 2075 1959 2075 
z
" transform="scale(0.015625)"/>
       </defs>
       <use xlink:href="#DejaVuSans-31"/>
       <use xlink:href="#DejaVuSans-33" x="63.623047"/>
       <use xlink:href="#DejaVuSans-39" x="127.246094"/>
      </g>
     </g>
    </g>
    <g id="ytick_2">
     <g id="line2d_11">
      <g>
       <use xlink:href="#m95fe4ad2ba" x="51.05" y="111.811515" style="stroke: #000000; stroke-width: 0.8"/>
      </g>
     </g>
     <g id="text_12">
      <!-- 140 -->
      <g transform="translate(24.9625 115.610734) scale(0.1 -0.1)">
       <defs>
        <path id="DejaVuSans-34" d="M 2419 4116 
L 825 1625 
L 2419 1625 
L 2419 4116 
z
M 2253 4666 
L 3047 4666 
L 3047 1625 
L 3713 1625 
L 3713 1100 
L 3047 1100 
L 3047 0 
L 2419 0 
L 2419 1100 
L 313 1100 
L 313 1709 
L 2253 4666 
z
" transform="scale(0.015625)"/>
       </defs>
       <use xlink:href="#DejaVuSans-31"/>
       <use xlink:href="#DejaVuSans-34" x="63.623047"/>
       <use xlink:href="#DejaVuSans-30" x="127.246094"/>
      </g>
     </g>
    </g>
    <g id="ytick_3">
     <g id="line2d_12">
      <g>
       <use xlink:href="#m95fe4ad2ba" x="51.05" y="72.308485" style="stroke: #000000; stroke-width: 0.8"/>
      </g>
     </g>
     <g id="text_13">
      <!-- 141 -->
      <g transform="translate(24.9625 76.107704) scale(0.1 -0.1)">
       <use xlink:href="#DejaVuSans-31"/>
       <use xlink:href="#DejaVuSans-34" x="63.623047"/>
       <use xlink:href="#DejaVuSans-31" x="127.246094"/>
      </g>
     </g>
    </g>
    <g id="ytick_4">
     <g id="line2d_13">
      <g>
       <use xlink:href="#m95fe4ad2ba" x="51.05" y="32.805455" style="stroke: #000000; stroke-width: 0.8"/>
      </g>
     </g>
     <g id="text_14">
      <!-- 142 -->
      <g transform="translate(24.9625 36.604673) scale(0.1 -0.1)">
       <use xlink:href="#DejaVuSans-31"/>
       <use xlink:href="#DejaVuSans-34" x="63.623047"/>
       <use xlink:href="#DejaVuSans-32" x="127.246094"/>
      </g>
     </g>
    </g>
    <g id="text_15">
     <!-- x Value -->
     <g transform="translate(18.882813 110.339688) rotate(-90) scale(0.1 -0.1)">
      <defs>
       <path id="DejaVuSans-78" d="M 3513 3500 
L 2247 1797 
L 3578 0 
L 2900 0 
L 1881 1375 
L 863 0 
L 184 0 
L 1544 1831 
L 300 3500 
L 978 3500 
L 1906 2253 
L 2834 3500 
L 3513 3500 
z
" transform="scale(0.015625)"/>
       <path id="DejaVuSans-56" d="M 1831 0 
L 50 4666 
L 709 4666 
L 2188 738 
L 3669 4666 
L 4325 4666 
L 2547 0 
L 1831 0 
z
" transform="scale(0.015625)"/>
       <path id="DejaVuSans-61" d="M 2194 1759 
Q 1497 1759 1228 1600 
Q 959 1441 959 1056 
Q 959 750 1161 570 
Q 1363 391 1709 391 
Q 2188 391 2477 730 
Q 2766 1069 2766 1631 
L 2766 1759 
L 2194 1759 
z
M 3341 1997 
L 3341 0 
L 2766 0 
L 2766 531 
Q 2569 213 2275 61 
Q 1981 -91 1556 -91 
Q 1019 -91 701 211 
Q 384 513 384 1019 
Q 384 1609 779 1909 
Q 1175 2209 1959 2209 
L 2766 2209 
L 2766 2266 
Q 2766 2663 2505 2880 
Q 2244 3097 1772 3097 
Q 1472 3097 1187 3025 
Q 903 2953 641 2809 
L 641 3341 
Q 956 3463 1253 3523 
Q 1550 3584 1831 3584 
Q 2591 3584 2966 3190 
Q 3341 2797 3341 1997 
z
" transform="scale(0.015625)"/>
       <path id="DejaVuSans-6c" d="M 603 4863 
L 1178 4863 
L 1178 0 
L 603 0 
L 603 4863 
z
" transform="scale(0.015625)"/>
       <path id="DejaVuSans-75" d="M 544 1381 
L 544 3500 
L 1119 3500 
L 1119 1403 
Q 1119 906 1312 657 
Q 1506 409 1894 409 
Q 2359 409 2629 706 
Q 2900 1003 2900 1516 
L 2900 3500 
L 3475 3500 
L 3475 0 
L 2900 0 
L 2900 538 
Q 2691 219 2414 64 
Q 2138 -91 1772 -91 
Q 1169 -91 856 284 
Q 544 659 544 1381 
z
M 1991 3584 
L 1991 3584 
z
" transform="scale(0.015625)"/>
      </defs>
      <use xlink:href="#DejaVuSans-78"/>
      <use xlink:href="#DejaVuSans-20" x="59.179688"/>
      <use xlink:href="#DejaVuSans-56" x="90.966797"/>
      <use xlink:href="#DejaVuSans-61" x="151.625"/>
      <use xlink:href="#DejaVuSans-6c" x="212.904297"/>
      <use xlink:href="#DejaVuSans-75" x="240.6875"/>
      <use xlink:href="#DejaVuSans-65" x="304.066406"/>
     </g>
    </g>
   </g>
   <g id="line2d_14">
    <path d="M 87.511364 111.811515 
L 94.840281 111.811515 
L 98.50474 72.308485 
L 102.169198 111.811515 
L 153.471619 111.811515 
L 157.136078 151.314545 
L 160.800537 111.811515 
L 171.793913 111.811515 
L 175.458371 32.805455 
L 179.12283 111.811515 
L 208.438499 111.811515 
L 212.102958 151.314545 
L 215.767417 111.811515 
L 219.431875 111.811515 
L 223.096334 151.314545 
L 226.760793 111.811515 
L 230.425251 111.811515 
L 234.08971 72.308485 
L 237.754169 111.811515 
L 344.02347 111.811515 
L 347.687928 151.314545 
L 351.352387 151.314545 
L 355.016846 111.811515 
L 366.010222 111.811515 
L 369.67468 32.805455 
L 373.339139 111.811515 
L 402.654808 111.811515 
L 406.319267 151.314545 
L 409.983725 111.811515 
L 424.64156 111.811515 
L 428.306019 32.805455 
L 431.970477 151.314545 
L 435.634936 111.811515 
L 461.286147 111.811515 
L 464.950605 151.314545 
L 468.615064 111.811515 
L 472.279523 111.811515 
L 475.943981 72.308485 
L 479.60844 111.811515 
L 483.272899 72.308485 
L 486.937357 111.811515 
L 519.917485 111.811515 
L 523.581944 151.314545 
L 527.246402 111.811515 
L 530.910861 111.811515 
L 534.57532 151.314545 
L 538.239778 111.811515 
L 563.890989 111.811515 
L 567.555448 72.308485 
L 571.219906 151.314545 
L 574.884365 111.811515 
L 589.5422 111.811515 
L 593.206658 151.314545 
L 596.871117 111.811515 
L 604.200034 111.811515 
L 607.864493 72.308485 
L 611.528952 111.811515 
L 615.19341 32.805455 
L 618.857869 72.308485 
L 622.522328 151.314545 
L 626.186786 111.811515 
L 677.489207 111.811515 
L 681.153666 151.314545 
L 684.818125 111.811515 
L 688.482583 111.811515 
L 692.147042 151.314545 
L 695.811501 111.811515 
L 710.469335 111.811515 
L 714.133794 72.308485 
L 717.798253 72.308485 
L 721.462711 111.811515 
L 725.12717 111.811515 
L 728.791629 151.314545 
L 732.456087 111.811515 
L 736.120546 151.314545 
L 739.785005 151.314545 
L 747.113922 72.308485 
L 750.778381 111.811515 
L 769.100674 111.811515 
L 772.765132 72.308485 
L 776.429591 111.811515 
L 791.087426 111.811515 
L 794.751884 151.314545 
L 798.416343 111.811515 
L 816.738636 111.811515 
L 816.738636 111.811515 
" clip-path="url(#pfcfc81262a)" style="fill: none; stroke: #1f77b4; stroke-width: 1.5; stroke-linecap: square"/>
   </g>
   <g id="patch_3">
    <path d="M 51.05 157.24 
L 51.05 26.88 
" style="fill: none; stroke: #000000; stroke-width: 0.8; stroke-linejoin: miter; stroke-linecap: square"/>
   </g>
   <g id="patch_4">
    <path d="M 853.2 157.24 
L 853.2 26.88 
" style="fill: none; stroke: #000000; stroke-width: 0.8; stroke-linejoin: miter; stroke-linecap: square"/>
   </g>
   <g id="patch_5">
    <path d="M 51.05 157.24 
L 853.2 157.24 
" style="fill: none; stroke: #000000; stroke-width: 0.8; stroke-linejoin: miter; stroke-linecap: square"/>
   </g>
   <g id="patch_6">
    <path d="M 51.05 26.88 
L 853.2 26.88 
" style="fill: none; stroke: #000000; stroke-width: 0.8; stroke-linejoin: miter; stroke-linecap: square"/>
   </g>
   <g id="text_16">
    <!-- x-ordinate over time -->
    <g transform="translate(390.514375 20.88) scale(0.12 -0.12)">
     <defs>
      <path id="DejaVuSans-2d" d="M 313 2009 
L 1997 2009 
L 1997 1497 
L 313 1497 
L 313 2009 
z
" transform="scale(0.015625)"/>
      <path id="DejaVuSans-6f" d="M 1959 3097 
Q 1497 3097 1228 2736 
Q 959 2375 959 1747 
Q 959 1119 1226 758 
Q 1494 397 1959 397 
Q 2419 397 2687 759 
Q 2956 1122 2956 1747 
Q 2956 2369 2687 2733 
Q 2419 3097 1959 3097 
z
M 1959 3584 
Q 2709 3584 3137 3096 
Q 3566 2609 3566 1747 
Q 3566 888 3137 398 
Q 2709 -91 1959 -91 
Q 1206 -91 779 398 
Q 353 888 353 1747 
Q 353 2609 779 3096 
Q 1206 3584 1959 3584 
z
" transform="scale(0.015625)"/>
      <path id="DejaVuSans-72" d="M 2631 2963 
Q 2534 3019 2420 3045 
Q 2306 3072 2169 3072 
Q 1681 3072 1420 2755 
Q 1159 2438 1159 1844 
L 1159 0 
L 581 0 
L 581 3500 
L 1159 3500 
L 1159 2956 
Q 1341 3275 1631 3429 
Q 1922 3584 2338 3584 
Q 2397 3584 2469 3576 
Q 2541 3569 2628 3553 
L 2631 2963 
z
" transform="scale(0.015625)"/>
      <path id="DejaVuSans-64" d="M 2906 2969 
L 2906 4863 
L 3481 4863 
L 3481 0 
L 2906 0 
L 2906 525 
Q 2725 213 2448 61 
Q 2172 -91 1784 -91 
Q 1150 -91 751 415 
Q 353 922 353 1747 
Q 353 2572 751 3078 
Q 1150 3584 1784 3584 
Q 2172 3584 2448 3432 
Q 2725 3281 2906 2969 
z
M 947 1747 
Q 947 1113 1208 752 
Q 1469 391 1925 391 
Q 2381 391 2643 752 
Q 2906 1113 2906 1747 
Q 2906 2381 2643 2742 
Q 2381 3103 1925 3103 
Q 1469 3103 1208 2742 
Q 947 2381 947 1747 
z
" transform="scale(0.015625)"/>
      <path id="DejaVuSans-6e" d="M 3513 2113 
L 3513 0 
L 2938 0 
L 2938 2094 
Q 2938 2591 2744 2837 
Q 2550 3084 2163 3084 
Q 1697 3084 1428 2787 
Q 1159 2491 1159 1978 
L 1159 0 
L 581 0 
L 581 3500 
L 1159 3500 
L 1159 2956 
Q 1366 3272 1645 3428 
Q 1925 3584 2291 3584 
Q 2894 3584 3203 3211 
Q 3513 2838 3513 2113 
z
" transform="scale(0.015625)"/>
      <path id="DejaVuSans-76" d="M 191 3500 
L 800 3500 
L 1894 563 
L 2988 3500 
L 3597 3500 
L 2284 0 
L 1503 0 
L 191 3500 
z
" transform="scale(0.015625)"/>
     </defs>
     <use xlink:href="#DejaVuSans-78"/>
     <use xlink:href="#DejaVuSans-2d" x="59.179688"/>
     <use xlink:href="#DejaVuSans-6f" x="97.138672"/>
     <use xlink:href="#DejaVuSans-72" x="158.320312"/>
     <use xlink:href="#DejaVuSans-64" x="197.683594"/>
     <use xlink:href="#DejaVuSans-69" x="261.160156"/>
     <use xlink:href="#DejaVuSans-6e" x="288.943359"/>
     <use xlink:href="#DejaVuSans-61" x="352.322266"/>
     <use xlink:href="#DejaVuSans-74" x="413.601562"/>
     <use xlink:href="#DejaVuSans-65" x="452.810547"/>
     <use xlink:href="#DejaVuSans-20" x="514.333984"/>
     <use xlink:href="#DejaVuSans-6f" x="546.121094"/>
     <use xlink:href="#DejaVuSans-76" x="607.302734"/>
     <use xlink:href="#DejaVuSans-65" x="666.482422"/>
     <use xlink:href="#DejaVuSans-72" x="728.005859"/>
     <use xlink:href="#DejaVuSans-20" x="769.119141"/>
     <use xlink:href="#DejaVuSans-74" x="800.90625"/>
     <use xlink:href="#DejaVuSans-69" x="840.115234"/>
     <use xlink:href="#DejaVuSans-6d" x="867.898438"/>
     <use xlink:href="#DejaVuSans-65" x="965.310547"/>
    </g>
   </g>
  </g>
  <g id="axes_2">
   <g id="patch_7">
    <path d="M 51.05 345.64 
L 853.2 345.64 
L 853.2 215.28 
L 51.05 215.28 
z
" style="fill: #ffffff"/>
   </g>
   <g id="matplotlib.axis_3">
    <g id="xtick_10">
     <g id="line2d_15">
      <g>
       <use xlink:href="#maaabf05f13" x="87.511364" y="345.64" style="stroke: #000000; stroke-width: 0.8"/>
      </g>
     </g>
     <g id="text_17">
      <!-- 0 -->
      <g transform="translate(84.330114 360.238438) scale(0.1 -0.1)">
       <use xlink:href="#DejaVuSans-30"/>
      </g>
     </g>
    </g>
    <g id="xtick_11">
     <g id="line2d_16">
      <g>
       <use xlink:href="#maaabf05f13" x="179.12283" y="345.64" style="stroke: #000000; stroke-width: 0.8"/>
      </g>
     </g>
     <g id="text_18">
      <!-- 25 -->
      <g transform="translate(172.76033 360.238438) scale(0.1 -0.1)">
       <use xlink:href="#DejaVuSans-32"/>
       <use xlink:href="#DejaVuSans-35" x="63.623047"/>
      </g>
     </g>
    </g>
    <g id="xtick_12">
     <g id="line2d_17">
      <g>
       <use xlink:href="#maaabf05f13" x="270.734296" y="345.64" style="stroke: #000000; stroke-width: 0.8"/>
      </g>
     </g>
     <g id="text_19">
      <!-- 50 -->
      <g transform="translate(264.371796 360.238438) scale(0.1 -0.1)">
       <use xlink:href="#DejaVuSans-35"/>
       <use xlink:href="#DejaVuSans-30" x="63.623047"/>
      </g>
     </g>
    </g>
    <g id="xtick_13">
     <g id="line2d_18">
      <g>
       <use xlink:href="#maaabf05f13" x="362.345763" y="345.64" style="stroke: #000000; stroke-width: 0.8"/>
      </g>
     </g>
     <g id="text_20">
      <!-- 75 -->
      <g transform="translate(355.983263 360.238438) scale(0.1 -0.1)">
       <use xlink:href="#DejaVuSans-37"/>
       <use xlink:href="#DejaVuSans-35" x="63.623047"/>
      </g>
     </g>
    </g>
    <g id="xtick_14">
     <g id="line2d_19">
      <g>
       <use xlink:href="#maaabf05f13" x="453.957229" y="345.64" style="stroke: #000000; stroke-width: 0.8"/>
      </g>
     </g>
     <g id="text_21">
      <!-- 100 -->
      <g transform="translate(444.413479 360.238438) scale(0.1 -0.1)">
       <use xlink:href="#DejaVuSans-31"/>
       <use xlink:href="#DejaVuSans-30" x="63.623047"/>
       <use xlink:href="#DejaVuSans-30" x="127.246094"/>
      </g>
     </g>
    </g>
    <g id="xtick_15">
     <g id="line2d_20">
      <g>
       <use xlink:href="#maaabf05f13" x="545.568696" y="345.64" style="stroke: #000000; stroke-width: 0.8"/>
      </g>
     </g>
     <g id="text_22">
      <!-- 125 -->
      <g transform="translate(536.024946 360.238438) scale(0.1 -0.1)">
       <use xlink:href="#DejaVuSans-31"/>
       <use xlink:href="#DejaVuSans-32" x="63.623047"/>
       <use xlink:href="#DejaVuSans-35" x="127.246094"/>
      </g>
     </g>
    </g>
    <g id="xtick_16">
     <g id="line2d_21">
      <g>
       <use xlink:href="#maaabf05f13" x="637.180162" y="345.64" style="stroke: #000000; stroke-width: 0.8"/>
      </g>
     </g>
     <g id="text_23">
      <!-- 150 -->
      <g transform="translate(627.636412 360.238438) scale(0.1 -0.1)">
       <use xlink:href="#DejaVuSans-31"/>
       <use xlink:href="#DejaVuSans-35" x="63.623047"/>
       <use xlink:href="#DejaVuSans-30" x="127.246094"/>
      </g>
     </g>
    </g>
    <g id="xtick_17">
     <g id="line2d_22">
      <g>
       <use xlink:href="#maaabf05f13" x="728.791629" y="345.64" style="stroke: #000000; stroke-width: 0.8"/>
      </g>
     </g>
     <g id="text_24">
      <!-- 175 -->
      <g transform="translate(719.247879 360.238438) scale(0.1 -0.1)">
       <use xlink:href="#DejaVuSans-31"/>
       <use xlink:href="#DejaVuSans-37" x="63.623047"/>
       <use xlink:href="#DejaVuSans-35" x="127.246094"/>
      </g>
     </g>
    </g>
    <g id="xtick_18">
     <g id="line2d_23">
      <g>
       <use xlink:href="#maaabf05f13" x="820.403095" y="345.64" style="stroke: #000000; stroke-width: 0.8"/>
      </g>
     </g>
     <g id="text_25">
      <!-- 200 -->
      <g transform="translate(810.859345 360.238438) scale(0.1 -0.1)">
       <use xlink:href="#DejaVuSans-32"/>
       <use xlink:href="#DejaVuSans-30" x="63.623047"/>
       <use xlink:href="#DejaVuSans-30" x="127.246094"/>
      </g>
     </g>
    </g>
    <g id="text_26">
     <!-- Time step -->
     <g transform="translate(427.486719 373.916563) scale(0.1 -0.1)">
      <use xlink:href="#DejaVuSans-54"/>
      <use xlink:href="#DejaVuSans-69" x="57.958984"/>
      <use xlink:href="#DejaVuSans-6d" x="85.742188"/>
      <use xlink:href="#DejaVuSans-65" x="183.154297"/>
      <use xlink:href="#DejaVuSans-20" x="244.677734"/>
      <use xlink:href="#DejaVuSans-73" x="276.464844"/>
      <use xlink:href="#DejaVuSans-74" x="328.564453"/>
      <use xlink:href="#DejaVuSans-65" x="367.773438"/>
      <use xlink:href="#DejaVuSans-70" x="429.296875"/>
     </g>
    </g>
   </g>
   <g id="matplotlib.axis_4">
    <g id="ytick_5">
     <g id="line2d_24">
      <g>
       <use xlink:href="#m95fe4ad2ba" x="51.05" y="339.714545" style="stroke: #000000; stroke-width: 0.8"/>
      </g>
     </g>
     <g id="text_27">
      <!-- 166 -->
      <g transform="translate(24.9625 343.513764) scale(0.1 -0.1)">
       <defs>
        <path id="DejaVuSans-36" d="M 2113 2584 
Q 1688 2584 1439 2293 
Q 1191 2003 1191 1497 
Q 1191 994 1439 701 
Q 1688 409 2113 409 
Q 2538 409 2786 701 
Q 3034 994 3034 1497 
Q 3034 2003 2786 2293 
Q 2538 2584 2113 2584 
z
M 3366 4563 
L 3366 3988 
Q 3128 4100 2886 4159 
Q 2644 4219 2406 4219 
Q 1781 4219 1451 3797 
Q 1122 3375 1075 2522 
Q 1259 2794 1537 2939 
Q 1816 3084 2150 3084 
Q 2853 3084 3261 2657 
Q 3669 2231 3669 1497 
Q 3669 778 3244 343 
Q 2819 -91 2113 -91 
Q 1303 -91 875 529 
Q 447 1150 447 2328 
Q 447 3434 972 4092 
Q 1497 4750 2381 4750 
Q 2619 4750 2861 4703 
Q 3103 4656 3366 4563 
z
" transform="scale(0.015625)"/>
       </defs>
       <use xlink:href="#DejaVuSans-31"/>
       <use xlink:href="#DejaVuSans-36" x="63.623047"/>
       <use xlink:href="#DejaVuSans-36" x="127.246094"/>
      </g>
     </g>
    </g>
    <g id="ytick_6">
     <g id="line2d_25">
      <g>
       <use xlink:href="#m95fe4ad2ba" x="51.05" y="310.087273" style="stroke: #000000; stroke-width: 0.8"/>
      </g>
     </g>
     <g id="text_28">
      <!-- 167 -->
      <g transform="translate(24.9625 313.886491) scale(0.1 -0.1)">
       <use xlink:href="#DejaVuSans-31"/>
       <use xlink:href="#DejaVuSans-36" x="63.623047"/>
       <use xlink:href="#DejaVuSans-37" x="127.246094"/>
      </g>
     </g>
    </g>
    <g id="ytick_7">
     <g id="line2d_26">
      <g>
       <use xlink:href="#m95fe4ad2ba" x="51.05" y="280.46" style="stroke: #000000; stroke-width: 0.8"/>
      </g>
     </g>
     <g id="text_29">
      <!-- 168 -->
      <g transform="translate(24.9625 284.259219) scale(0.1 -0.1)">
       <defs>
        <path id="DejaVuSans-38" d="M 2034 2216 
Q 1584 2216 1326 1975 
Q 1069 1734 1069 1313 
Q 1069 891 1326 650 
Q 1584 409 2034 409 
Q 2484 409 2743 651 
Q 3003 894 3003 1313 
Q 3003 1734 2745 1975 
Q 2488 2216 2034 2216 
z
M 1403 2484 
Q 997 2584 770 2862 
Q 544 3141 544 3541 
Q 544 4100 942 4425 
Q 1341 4750 2034 4750 
Q 2731 4750 3128 4425 
Q 3525 4100 3525 3541 
Q 3525 3141 3298 2862 
Q 3072 2584 2669 2484 
Q 3125 2378 3379 2068 
Q 3634 1759 3634 1313 
Q 3634 634 3220 271 
Q 2806 -91 2034 -91 
Q 1263 -91 848 271 
Q 434 634 434 1313 
Q 434 1759 690 2068 
Q 947 2378 1403 2484 
z
M 1172 3481 
Q 1172 3119 1398 2916 
Q 1625 2713 2034 2713 
Q 2441 2713 2670 2916 
Q 2900 3119 2900 3481 
Q 2900 3844 2670 4047 
Q 2441 4250 2034 4250 
Q 1625 4250 1398 4047 
Q 1172 3844 1172 3481 
z
" transform="scale(0.015625)"/>
       </defs>
       <use xlink:href="#DejaVuSans-31"/>
       <use xlink:href="#DejaVuSans-36" x="63.623047"/>
       <use xlink:href="#DejaVuSans-38" x="127.246094"/>
      </g>
     </g>
    </g>
    <g id="ytick_8">
     <g id="line2d_27">
      <g>
       <use xlink:href="#m95fe4ad2ba" x="51.05" y="250.832727" style="stroke: #000000; stroke-width: 0.8"/>
      </g>
     </g>
     <g id="text_30">
      <!-- 169 -->
      <g transform="translate(24.9625 254.631946) scale(0.1 -0.1)">
       <use xlink:href="#DejaVuSans-31"/>
       <use xlink:href="#DejaVuSans-36" x="63.623047"/>
       <use xlink:href="#DejaVuSans-39" x="127.246094"/>
      </g>
     </g>
    </g>
    <g id="ytick_9">
     <g id="line2d_28">
      <g>
       <use xlink:href="#m95fe4ad2ba" x="51.05" y="221.205455" style="stroke: #000000; stroke-width: 0.8"/>
      </g>
     </g>
     <g id="text_31">
      <!-- 170 -->
      <g transform="translate(24.9625 225.004673) scale(0.1 -0.1)">
       <use xlink:href="#DejaVuSans-31"/>
       <use xlink:href="#DejaVuSans-37" x="63.623047"/>
       <use xlink:href="#DejaVuSans-30" x="127.246094"/>
      </g>
     </g>
    </g>
    <g id="text_32">
     <!-- y Value -->
     <g transform="translate(18.882813 298.739688) rotate(-90) scale(0.1 -0.1)">
      <defs>
       <path id="DejaVuSans-79" d="M 2059 -325 
Q 1816 -950 1584 -1140 
Q 1353 -1331 966 -1331 
L 506 -1331 
L 506 -850 
L 844 -850 
Q 1081 -850 1212 -737 
Q 1344 -625 1503 -206 
L 1606 56 
L 191 3500 
L 800 3500 
L 1894 763 
L 2988 3500 
L 3597 3500 
L 2059 -325 
z
" transform="scale(0.015625)"/>
      </defs>
      <use xlink:href="#DejaVuSans-79"/>
      <use xlink:href="#DejaVuSans-20" x="59.179688"/>
      <use xlink:href="#DejaVuSans-56" x="90.966797"/>
      <use xlink:href="#DejaVuSans-61" x="151.625"/>
      <use xlink:href="#DejaVuSans-6c" x="212.904297"/>
      <use xlink:href="#DejaVuSans-75" x="240.6875"/>
      <use xlink:href="#DejaVuSans-65" x="304.066406"/>
     </g>
    </g>
   </g>
   <g id="line2d_29">
    <path d="M 87.511364 221.205455 
L 91.175822 280.46 
L 94.840281 221.205455 
L 98.50474 250.832727 
L 102.169198 250.832727 
L 109.498116 310.087273 
L 113.162574 280.46 
L 120.491492 280.46 
L 124.15595 250.832727 
L 127.820409 280.46 
L 131.484868 250.832727 
L 135.149326 250.832727 
L 138.813785 280.46 
L 146.142702 280.46 
L 149.807161 250.832727 
L 153.471619 280.46 
L 157.136078 250.832727 
L 160.800537 280.46 
L 164.464995 250.832727 
L 168.129454 280.46 
L 175.458371 280.46 
L 179.12283 250.832727 
L 182.787289 250.832727 
L 186.451747 310.087273 
L 190.116206 310.087273 
L 193.780665 250.832727 
L 197.445123 280.46 
L 204.774041 280.46 
L 208.438499 250.832727 
L 212.102958 250.832727 
L 215.767417 280.46 
L 219.431875 280.46 
L 223.096334 250.832727 
L 226.760793 280.46 
L 230.425251 250.832727 
L 234.08971 339.714545 
L 237.754169 250.832727 
L 241.418627 280.46 
L 245.083086 280.46 
L 248.747545 250.832727 
L 252.412003 280.46 
L 274.398755 280.46 
L 278.063214 250.832727 
L 281.727672 280.46 
L 289.05659 280.46 
L 292.721048 310.087273 
L 296.385507 280.46 
L 300.049966 280.46 
L 303.714424 250.832727 
L 307.378883 280.46 
L 311.043342 221.205455 
L 314.7078 280.46 
L 322.036718 280.46 
L 325.701176 250.832727 
L 329.365635 280.46 
L 333.030094 250.832727 
L 336.694552 280.46 
L 340.359011 280.46 
L 344.02347 250.832727 
L 355.016846 250.832727 
L 358.681304 280.46 
L 366.010222 280.46 
L 369.67468 250.832727 
L 373.339139 280.46 
L 377.003598 250.832727 
L 380.668056 280.46 
L 402.654808 280.46 
L 406.319267 250.832727 
L 409.983725 280.46 
L 413.648184 250.832727 
L 417.312643 280.46 
L 420.977101 250.832727 
L 424.64156 280.46 
L 428.306019 280.46 
L 431.970477 250.832727 
L 439.299395 310.087273 
L 446.628312 250.832727 
L 450.292771 280.46 
L 461.286147 280.46 
L 464.950605 250.832727 
L 472.279523 250.832727 
L 475.943981 339.714545 
L 479.60844 280.46 
L 497.930733 280.46 
L 501.595192 250.832727 
L 505.259651 280.46 
L 508.924109 250.832727 
L 519.917485 339.714545 
L 523.581944 250.832727 
L 527.246402 280.46 
L 530.910861 250.832727 
L 534.57532 250.832727 
L 538.239778 310.087273 
L 541.904237 250.832727 
L 545.568696 280.46 
L 549.233154 280.46 
L 552.897613 250.832727 
L 560.22653 310.087273 
L 563.890989 280.46 
L 567.555448 280.46 
L 571.219906 250.832727 
L 574.884365 280.46 
L 578.548824 250.832727 
L 582.213282 280.46 
L 585.877741 280.46 
L 589.5422 250.832727 
L 596.871117 250.832727 
L 600.535576 280.46 
L 604.200034 280.46 
L 607.864493 310.087273 
L 611.528952 250.832727 
L 615.19341 250.832727 
L 618.857869 280.46 
L 626.186786 280.46 
L 629.851245 250.832727 
L 633.515704 280.46 
L 637.180162 280.46 
L 640.844621 250.832727 
L 644.509079 280.46 
L 659.166914 280.46 
L 662.831373 250.832727 
L 666.495831 310.087273 
L 670.16029 250.832727 
L 673.824749 250.832727 
L 677.489207 310.087273 
L 681.153666 250.832727 
L 684.818125 250.832727 
L 688.482583 280.46 
L 692.147042 250.832727 
L 695.811501 250.832727 
L 699.475959 280.46 
L 706.804877 280.46 
L 710.469335 250.832727 
L 714.133794 250.832727 
L 717.798253 339.714545 
L 721.462711 280.46 
L 725.12717 310.087273 
L 728.791629 250.832727 
L 732.456087 280.46 
L 736.120546 250.832727 
L 739.785005 250.832727 
L 743.449463 280.46 
L 747.113922 280.46 
L 750.778381 250.832727 
L 754.442839 280.46 
L 772.765132 280.46 
L 776.429591 250.832727 
L 780.09405 280.46 
L 805.74526 280.46 
L 809.409719 310.087273 
L 813.074178 250.832727 
L 816.738636 280.46 
L 816.738636 280.46 
" clip-path="url(#pa3818b21e9)" style="fill: none; stroke: #1f77b4; stroke-width: 1.5; stroke-linecap: square"/>
   </g>
   <g id="patch_8">
    <path d="M 51.05 345.64 
L 51.05 215.28 
" style="fill: none; stroke: #000000; stroke-width: 0.8; stroke-linejoin: miter; stroke-linecap: square"/>
   </g>
   <g id="patch_9">
    <path d="M 853.2 345.64 
L 853.2 215.28 
" style="fill: none; stroke: #000000; stroke-width: 0.8; stroke-linejoin: miter; stroke-linecap: square"/>
   </g>
   <g id="patch_10">
    <path d="M 51.05 345.64 
L 853.2 345.64 
" style="fill: none; stroke: #000000; stroke-width: 0.8; stroke-linejoin: miter; stroke-linecap: square"/>
   </g>
   <g id="patch_11">
    <path d="M 51.05 215.28 
L 853.2 215.28 
" style="fill: none; stroke: #000000; stroke-width: 0.8; stroke-linejoin: miter; stroke-linecap: square"/>
   </g>
   <g id="text_33">
    <!-- y-ordinate over time -->
    <g transform="translate(390.619375 209.28) scale(0.12 -0.12)">
     <use xlink:href="#DejaVuSans-79"/>
     <use xlink:href="#DejaVuSans-2d" x="57.429688"/>
     <use xlink:href="#DejaVuSans-6f" x="95.388672"/>
     <use xlink:href="#DejaVuSans-72" x="156.570312"/>
     <use xlink:href="#DejaVuSans-64" x="195.933594"/>
     <use xlink:href="#DejaVuSans-69" x="259.410156"/>
     <use xlink:href="#DejaVuSans-6e" x="287.193359"/>
     <use xlink:href="#DejaVuSans-61" x="350.572266"/>
     <use xlink:href="#DejaVuSans-74" x="411.851562"/>
     <use xlink:href="#DejaVuSans-65" x="451.060547"/>
     <use xlink:href="#DejaVuSans-20" x="512.583984"/>
     <use xlink:href="#DejaVuSans-6f" x="544.371094"/>
     <use xlink:href="#DejaVuSans-76" x="605.552734"/>
     <use xlink:href="#DejaVuSans-65" x="664.732422"/>
     <use xlink:href="#DejaVuSans-72" x="726.255859"/>
     <use xlink:href="#DejaVuSans-20" x="767.369141"/>
     <use xlink:href="#DejaVuSans-74" x="799.15625"/>
     <use xlink:href="#DejaVuSans-69" x="838.365234"/>
     <use xlink:href="#DejaVuSans-6d" x="866.148438"/>
     <use xlink:href="#DejaVuSans-65" x="963.560547"/>
    </g>
   </g>
  </g>
  <g id="axes_3">
   <g id="patch_12">
    <path d="M 51.05 534.04 
L 853.2 534.04 
L 853.2 403.68 
L 51.05 403.68 
z
" style="fill: #ffffff"/>
   </g>
   <g id="matplotlib.axis_5">
    <g id="xtick_19">
     <g id="line2d_30">
      <g>
       <use xlink:href="#maaabf05f13" x="87.511364" y="534.04" style="stroke: #000000; stroke-width: 0.8"/>
      </g>
     </g>
     <g id="text_34">
      <!-- 0 -->
      <g transform="translate(84.330114 548.638438) scale(0.1 -0.1)">
       <use xlink:href="#DejaVuSans-30"/>
      </g>
     </g>
    </g>
    <g id="xtick_20">
     <g id="line2d_31">
      <g>
       <use xlink:href="#maaabf05f13" x="179.12283" y="534.04" style="stroke: #000000; stroke-width: 0.8"/>
      </g>
     </g>
     <g id="text_35">
      <!-- 25 -->
      <g transform="translate(172.76033 548.638438) scale(0.1 -0.1)">
       <use xlink:href="#DejaVuSans-32"/>
       <use xlink:href="#DejaVuSans-35" x="63.623047"/>
      </g>
     </g>
    </g>
    <g id="xtick_21">
     <g id="line2d_32">
      <g>
       <use xlink:href="#maaabf05f13" x="270.734296" y="534.04" style="stroke: #000000; stroke-width: 0.8"/>
      </g>
     </g>
     <g id="text_36">
      <!-- 50 -->
      <g transform="translate(264.371796 548.638438) scale(0.1 -0.1)">
       <use xlink:href="#DejaVuSans-35"/>
       <use xlink:href="#DejaVuSans-30" x="63.623047"/>
      </g>
     </g>
    </g>
    <g id="xtick_22">
     <g id="line2d_33">
      <g>
       <use xlink:href="#maaabf05f13" x="362.345763" y="534.04" style="stroke: #000000; stroke-width: 0.8"/>
      </g>
     </g>
     <g id="text_37">
      <!-- 75 -->
      <g transform="translate(355.983263 548.638438) scale(0.1 -0.1)">
       <use xlink:href="#DejaVuSans-37"/>
       <use xlink:href="#DejaVuSans-35" x="63.623047"/>
      </g>
     </g>
    </g>
    <g id="xtick_23">
     <g id="line2d_34">
      <g>
       <use xlink:href="#maaabf05f13" x="453.957229" y="534.04" style="stroke: #000000; stroke-width: 0.8"/>
      </g>
     </g>
     <g id="text_38">
      <!-- 100 -->
      <g transform="translate(444.413479 548.638438) scale(0.1 -0.1)">
       <use xlink:href="#DejaVuSans-31"/>
       <use xlink:href="#DejaVuSans-30" x="63.623047"/>
       <use xlink:href="#DejaVuSans-30" x="127.246094"/>
      </g>
     </g>
    </g>
    <g id="xtick_24">
     <g id="line2d_35">
      <g>
       <use xlink:href="#maaabf05f13" x="545.568696" y="534.04" style="stroke: #000000; stroke-width: 0.8"/>
      </g>
     </g>
     <g id="text_39">
      <!-- 125 -->
      <g transform="translate(536.024946 548.638438) scale(0.1 -0.1)">
       <use xlink:href="#DejaVuSans-31"/>
       <use xlink:href="#DejaVuSans-32" x="63.623047"/>
       <use xlink:href="#DejaVuSans-35" x="127.246094"/>
      </g>
     </g>
    </g>
    <g id="xtick_25">
     <g id="line2d_36">
      <g>
       <use xlink:href="#maaabf05f13" x="637.180162" y="534.04" style="stroke: #000000; stroke-width: 0.8"/>
      </g>
     </g>
     <g id="text_40">
      <!-- 150 -->
      <g transform="translate(627.636412 548.638438) scale(0.1 -0.1)">
       <use xlink:href="#DejaVuSans-31"/>
       <use xlink:href="#DejaVuSans-35" x="63.623047"/>
       <use xlink:href="#DejaVuSans-30" x="127.246094"/>
      </g>
     </g>
    </g>
    <g id="xtick_26">
     <g id="line2d_37">
      <g>
       <use xlink:href="#maaabf05f13" x="728.791629" y="534.04" style="stroke: #000000; stroke-width: 0.8"/>
      </g>
     </g>
     <g id="text_41">
      <!-- 175 -->
      <g transform="translate(719.247879 548.638438) scale(0.1 -0.1)">
       <use xlink:href="#DejaVuSans-31"/>
       <use xlink:href="#DejaVuSans-37" x="63.623047"/>
       <use xlink:href="#DejaVuSans-35" x="127.246094"/>
      </g>
     </g>
    </g>
    <g id="xtick_27">
     <g id="line2d_38">
      <g>
       <use xlink:href="#maaabf05f13" x="820.403095" y="534.04" style="stroke: #000000; stroke-width: 0.8"/>
      </g>
     </g>
     <g id="text_42">
      <!-- 200 -->
      <g transform="translate(810.859345 548.638438) scale(0.1 -0.1)">
       <use xlink:href="#DejaVuSans-32"/>
       <use xlink:href="#DejaVuSans-30" x="63.623047"/>
       <use xlink:href="#DejaVuSans-30" x="127.246094"/>
      </g>
     </g>
    </g>
    <g id="text_43">
     <!-- Time step -->
     <g transform="translate(427.486719 562.316563) scale(0.1 -0.1)">
      <use xlink:href="#DejaVuSans-54"/>
      <use xlink:href="#DejaVuSans-69" x="57.958984"/>
      <use xlink:href="#DejaVuSans-6d" x="85.742188"/>
      <use xlink:href="#DejaVuSans-65" x="183.154297"/>
      <use xlink:href="#DejaVuSans-20" x="244.677734"/>
      <use xlink:href="#DejaVuSans-73" x="276.464844"/>
      <use xlink:href="#DejaVuSans-74" x="328.564453"/>
      <use xlink:href="#DejaVuSans-65" x="367.773438"/>
      <use xlink:href="#DejaVuSans-70" x="429.296875"/>
     </g>
    </g>
   </g>
   <g id="matplotlib.axis_6">
    <g id="ytick_10">
     <g id="line2d_39">
      <g>
       <use xlink:href="#m95fe4ad2ba" x="51.05" y="528.114545" style="stroke: #000000; stroke-width: 0.8"/>
      </g>
     </g>
     <g id="text_44">
      <!-- 528 -->
      <g transform="translate(24.9625 531.913764) scale(0.1 -0.1)">
       <use xlink:href="#DejaVuSans-35"/>
       <use xlink:href="#DejaVuSans-32" x="63.623047"/>
       <use xlink:href="#DejaVuSans-38" x="127.246094"/>
      </g>
     </g>
    </g>
    <g id="ytick_11">
     <g id="line2d_40">
      <g>
       <use xlink:href="#m95fe4ad2ba" x="51.05" y="468.86" style="stroke: #000000; stroke-width: 0.8"/>
      </g>
     </g>
     <g id="text_45">
      <!-- 529 -->
      <g transform="translate(24.9625 472.659219) scale(0.1 -0.1)">
       <use xlink:href="#DejaVuSans-35"/>
       <use xlink:href="#DejaVuSans-32" x="63.623047"/>
       <use xlink:href="#DejaVuSans-39" x="127.246094"/>
      </g>
     </g>
    </g>
    <g id="ytick_12">
     <g id="line2d_41">
      <g>
       <use xlink:href="#m95fe4ad2ba" x="51.05" y="409.605455" style="stroke: #000000; stroke-width: 0.8"/>
      </g>
     </g>
     <g id="text_46">
      <!-- 530 -->
      <g transform="translate(24.9625 413.404673) scale(0.1 -0.1)">
       <use xlink:href="#DejaVuSans-35"/>
       <use xlink:href="#DejaVuSans-33" x="63.623047"/>
       <use xlink:href="#DejaVuSans-30" x="127.246094"/>
      </g>
     </g>
    </g>
    <g id="text_47">
     <!-- Depth Value -->
     <g transform="translate(18.882813 499.41) rotate(-90) scale(0.1 -0.1)">
      <defs>
       <path id="DejaVuSans-44" d="M 1259 4147 
L 1259 519 
L 2022 519 
Q 2988 519 3436 956 
Q 3884 1394 3884 2338 
Q 3884 3275 3436 3711 
Q 2988 4147 2022 4147 
L 1259 4147 
z
M 628 4666 
L 1925 4666 
Q 3281 4666 3915 4102 
Q 4550 3538 4550 2338 
Q 4550 1131 3912 565 
Q 3275 0 1925 0 
L 628 0 
L 628 4666 
z
" transform="scale(0.015625)"/>
       <path id="DejaVuSans-68" d="M 3513 2113 
L 3513 0 
L 2938 0 
L 2938 2094 
Q 2938 2591 2744 2837 
Q 2550 3084 2163 3084 
Q 1697 3084 1428 2787 
Q 1159 2491 1159 1978 
L 1159 0 
L 581 0 
L 581 4863 
L 1159 4863 
L 1159 2956 
Q 1366 3272 1645 3428 
Q 1925 3584 2291 3584 
Q 2894 3584 3203 3211 
Q 3513 2838 3513 2113 
z
" transform="scale(0.015625)"/>
      </defs>
      <use xlink:href="#DejaVuSans-44"/>
      <use xlink:href="#DejaVuSans-65" x="77.001953"/>
      <use xlink:href="#DejaVuSans-70" x="138.525391"/>
      <use xlink:href="#DejaVuSans-74" x="202.001953"/>
      <use xlink:href="#DejaVuSans-68" x="241.210938"/>
      <use xlink:href="#DejaVuSans-20" x="304.589844"/>
      <use xlink:href="#DejaVuSans-56" x="336.376953"/>
      <use xlink:href="#DejaVuSans-61" x="397.035156"/>
      <use xlink:href="#DejaVuSans-6c" x="458.314453"/>
      <use xlink:href="#DejaVuSans-75" x="486.097656"/>
      <use xlink:href="#DejaVuSans-65" x="549.476562"/>
     </g>
    </g>
   </g>
   <g id="line2d_42">
    <path d="M 87.511364 528.114545 
L 91.175822 528.114545 
L 94.840281 468.86 
L 105.833657 468.86 
L 109.498116 528.114545 
L 113.162574 468.86 
L 116.827033 528.114545 
L 120.491492 468.86 
L 127.820409 468.86 
L 131.484868 528.114545 
L 135.149326 468.86 
L 164.464995 468.86 
L 168.129454 528.114545 
L 175.458371 528.114545 
L 179.12283 468.86 
L 182.787289 528.114545 
L 186.451747 528.114545 
L 190.116206 468.86 
L 197.445123 468.86 
L 201.109582 409.605455 
L 204.774041 468.86 
L 208.438499 468.86 
L 212.102958 409.605455 
L 215.767417 468.86 
L 226.760793 468.86 
L 230.425251 409.605455 
L 234.08971 528.114545 
L 237.754169 468.86 
L 245.083086 468.86 
L 248.747545 409.605455 
L 256.076462 409.605455 
L 259.740921 468.86 
L 270.734296 468.86 
L 274.398755 409.605455 
L 285.392131 409.605455 
L 289.05659 468.86 
L 292.721048 468.86 
L 296.385507 409.605455 
L 300.049966 468.86 
L 303.714424 468.86 
L 307.378883 528.114545 
L 311.043342 409.605455 
L 318.372259 528.114545 
L 322.036718 528.114545 
L 325.701176 468.86 
L 340.359011 468.86 
L 344.02347 409.605455 
L 347.687928 409.605455 
L 351.352387 468.86 
L 366.010222 468.86 
L 369.67468 409.605455 
L 373.339139 409.605455 
L 380.668056 528.114545 
L 384.332515 468.86 
L 387.996974 528.114545 
L 395.325891 409.605455 
L 398.990349 468.86 
L 402.654808 409.605455 
L 406.319267 468.86 
L 409.983725 409.605455 
L 413.648184 409.605455 
L 417.312643 468.86 
L 420.977101 468.86 
L 424.64156 528.114545 
L 428.306019 468.86 
L 431.970477 468.86 
L 435.634936 409.605455 
L 439.299395 528.114545 
L 442.963853 409.605455 
L 450.292771 409.605455 
L 453.957229 468.86 
L 457.621688 468.86 
L 461.286147 409.605455 
L 464.950605 468.86 
L 468.615064 468.86 
L 472.279523 409.605455 
L 475.943981 468.86 
L 479.60844 468.86 
L 483.272899 409.605455 
L 486.937357 468.86 
L 494.266275 468.86 
L 497.930733 409.605455 
L 501.595192 409.605455 
L 505.259651 528.114545 
L 508.924109 409.605455 
L 512.588568 468.86 
L 516.253026 468.86 
L 519.917485 528.114545 
L 523.581944 409.605455 
L 530.910861 409.605455 
L 534.57532 468.86 
L 541.904237 468.86 
L 545.568696 409.605455 
L 549.233154 468.86 
L 552.897613 409.605455 
L 556.562072 409.605455 
L 560.22653 468.86 
L 563.890989 409.605455 
L 582.213282 409.605455 
L 585.877741 468.86 
L 589.5422 409.605455 
L 593.206658 468.86 
L 596.871117 409.605455 
L 600.535576 409.605455 
L 604.200034 468.86 
L 611.528952 468.86 
L 615.19341 528.114545 
L 618.857869 409.605455 
L 626.186786 528.114545 
L 629.851245 468.86 
L 633.515704 468.86 
L 637.180162 409.605455 
L 640.844621 409.605455 
L 644.509079 468.86 
L 648.173538 409.605455 
L 659.166914 409.605455 
L 666.495831 528.114545 
L 670.16029 409.605455 
L 673.824749 409.605455 
L 677.489207 468.86 
L 681.153666 409.605455 
L 684.818125 468.86 
L 699.475959 468.86 
L 703.140418 409.605455 
L 706.804877 468.86 
L 714.133794 468.86 
L 717.798253 528.114545 
L 721.462711 468.86 
L 725.12717 468.86 
L 728.791629 409.605455 
L 732.456087 468.86 
L 747.113922 468.86 
L 750.778381 409.605455 
L 754.442839 409.605455 
L 758.107298 468.86 
L 761.771757 468.86 
L 765.436215 528.114545 
L 769.100674 409.605455 
L 772.765132 468.86 
L 783.758508 468.86 
L 787.422967 409.605455 
L 791.087426 468.86 
L 794.751884 409.605455 
L 798.416343 468.86 
L 802.080802 409.605455 
L 805.74526 468.86 
L 809.409719 468.86 
L 813.074178 409.605455 
L 816.738636 409.605455 
L 816.738636 409.605455 
" clip-path="url(#p389ef0d1b6)" style="fill: none; stroke: #1f77b4; stroke-width: 1.5; stroke-linecap: square"/>
   </g>
   <g id="patch_13">
    <path d="M 51.05 534.04 
L 51.05 403.68 
" style="fill: none; stroke: #000000; stroke-width: 0.8; stroke-linejoin: miter; stroke-linecap: square"/>
   </g>
   <g id="patch_14">
    <path d="M 853.2 534.04 
L 853.2 403.68 
" style="fill: none; stroke: #000000; stroke-width: 0.8; stroke-linejoin: miter; stroke-linecap: square"/>
   </g>
   <g id="patch_15">
    <path d="M 51.05 534.04 
L 853.2 534.04 
" style="fill: none; stroke: #000000; stroke-width: 0.8; stroke-linejoin: miter; stroke-linecap: square"/>
   </g>
   <g id="patch_16">
    <path d="M 51.05 403.68 
L 853.2 403.68 
" style="fill: none; stroke: #000000; stroke-width: 0.8; stroke-linejoin: miter; stroke-linecap: square"/>
   </g>
   <g id="text_48">
    <!-- Depth over time -->
    <g transform="translate(403.099375 397.68) scale(0.12 -0.12)">
     <use xlink:href="#DejaVuSans-44"/>
     <use xlink:href="#DejaVuSans-65" x="77.001953"/>
     <use xlink:href="#DejaVuSans-70" x="138.525391"/>
     <use xlink:href="#DejaVuSans-74" x="202.001953"/>
     <use xlink:href="#DejaVuSans-68" x="241.210938"/>
     <use xlink:href="#DejaVuSans-20" x="304.589844"/>
     <use xlink:href="#DejaVuSans-6f" x="336.376953"/>
     <use xlink:href="#DejaVuSans-76" x="397.558594"/>
     <use xlink:href="#DejaVuSans-65" x="456.738281"/>
     <use xlink:href="#DejaVuSans-72" x="518.261719"/>
     <use xlink:href="#DejaVuSans-20" x="559.375"/>
     <use xlink:href="#DejaVuSans-74" x="591.162109"/>
     <use xlink:href="#DejaVuSans-69" x="630.371094"/>
     <use xlink:href="#DejaVuSans-6d" x="658.154297"/>
     <use xlink:href="#DejaVuSans-65" x="755.566406"/>
    </g>
   </g>
  </g>
 </g>
 <defs>
  <clipPath id="pfcfc81262a">
   <rect x="51.05" y="26.88" width="802.15" height="130.36"/>
  </clipPath>
  <clipPath id="pa3818b21e9">
   <rect x="51.05" y="215.28" width="802.15" height="130.36"/>
  </clipPath>
  <clipPath id="p389ef0d1b6">
   <rect x="51.05" y="403.68" width="802.15" height="130.36"/>
  </clipPath>
 </defs>
</svg>
