<?xml version="1.0" encoding="utf-8" standalone="no"?>
<!DOCTYPE svg PUBLIC "-//W3C//DTD SVG 1.1//EN"
  "http://www.w3.org/Graphics/SVG/1.1/DTD/svg11.dtd">
<svg xmlns:xlink="http://www.w3.org/1999/xlink" width="864pt" height="576pt" viewBox="0 0 864 576" xmlns="http://www.w3.org/2000/svg" version="1.1">
 <metadata>
  <rdf:RDF xmlns:dc="http://purl.org/dc/elements/1.1/" xmlns:cc="http://creativecommons.org/ns#" xmlns:rdf="http://www.w3.org/1999/02/22-rdf-syntax-ns#">
   <cc:Work>
    <dc:type rdf:resource="http://purl.org/dc/dcmitype/StillImage"/>
    <dc:date>2024-02-15T13:54:37.021478</dc:date>
    <dc:format>image/svg+xml</dc:format>
    <dc:creator>
     <cc:Agent>
      <dc:title>Matplotlib v3.8.0, https://matplotlib.org/</dc:title>
     </cc:Agent>
    </dc:creator>
   </cc:Work>
  </rdf:RDF>
 </metadata>
 <defs>
  <style type="text/css">*{stroke-linejoin: round; stroke-linecap: butt}</style>
 </defs>
 <g id="figure_1">
  <g id="patch_1">
   <path d="M 0 576 
L 864 576 
L 864 0 
L 0 0 
z
" style="fill: #ffffff"/>
  </g>
  <g id="axes_1">
   <g id="patch_2">
    <path d="M 36.88 171.32 
L 853.2 171.32 
L 853.2 26.88 
L 36.88 26.88 
z
" style="fill: #ffffff"/>
   </g>
   <g id="matplotlib.axis_1">
    <g id="xtick_1">
     <g id="line2d_1">
      <defs>
       <path id="me12eaa26d6" d="M 0 0 
L 0 3.5 
" style="stroke: #000000; stroke-width: 0.8"/>
      </defs>
      <g>
       <use xlink:href="#me12eaa26d6" x="73.985455" y="171.32" style="stroke: #000000; stroke-width: 0.8"/>
      </g>
     </g>
     <g id="text_1">
      <!-- 0 -->
      <g transform="translate(70.804205 185.918438) scale(0.1 -0.1)">
       <defs>
        <path id="DejaVuSans-30" d="M 2034 4250 
Q 1547 4250 1301 3770 
Q 1056 3291 1056 2328 
Q 1056 1369 1301 889 
Q 1547 409 2034 409 
Q 2525 409 2770 889 
Q 3016 1369 3016 2328 
Q 3016 3291 2770 3770 
Q 2525 4250 2034 4250 
z
M 2034 4750 
Q 2819 4750 3233 4129 
Q 3647 3509 3647 2328 
Q 3647 1150 3233 529 
Q 2819 -91 2034 -91 
Q 1250 -91 836 529 
Q 422 1150 422 2328 
Q 422 3509 836 4129 
Q 1250 4750 2034 4750 
z
" transform="scale(0.015625)"/>
       </defs>
       <use xlink:href="#DejaVuSans-30"/>
      </g>
     </g>
    </g>
    <g id="xtick_2">
     <g id="line2d_2">
      <g>
       <use xlink:href="#me12eaa26d6" x="233.236332" y="171.32" style="stroke: #000000; stroke-width: 0.8"/>
      </g>
     </g>
     <g id="text_2">
      <!-- 50 -->
      <g transform="translate(226.873832 185.918438) scale(0.1 -0.1)">
       <defs>
        <path id="DejaVuSans-35" d="M 691 4666 
L 3169 4666 
L 3169 4134 
L 1269 4134 
L 1269 2991 
Q 1406 3038 1543 3061 
Q 1681 3084 1819 3084 
Q 2600 3084 3056 2656 
Q 3513 2228 3513 1497 
Q 3513 744 3044 326 
Q 2575 -91 1722 -91 
Q 1428 -91 1123 -41 
Q 819 9 494 109 
L 494 744 
Q 775 591 1075 516 
Q 1375 441 1709 441 
Q 2250 441 2565 725 
Q 2881 1009 2881 1497 
Q 2881 1984 2565 2268 
Q 2250 2553 1709 2553 
Q 1456 2553 1204 2497 
Q 953 2441 691 2322 
L 691 4666 
z
" transform="scale(0.015625)"/>
       </defs>
       <use xlink:href="#DejaVuSans-35"/>
       <use xlink:href="#DejaVuSans-30" x="63.623047"/>
      </g>
     </g>
    </g>
    <g id="xtick_3">
     <g id="line2d_3">
      <g>
       <use xlink:href="#me12eaa26d6" x="392.48721" y="171.32" style="stroke: #000000; stroke-width: 0.8"/>
      </g>
     </g>
     <g id="text_3">
      <!-- 100 -->
      <g transform="translate(382.94346 185.918438) scale(0.1 -0.1)">
       <defs>
        <path id="DejaVuSans-31" d="M 794 531 
L 1825 531 
L 1825 4091 
L 703 3866 
L 703 4441 
L 1819 4666 
L 2450 4666 
L 2450 531 
L 3481 531 
L 3481 0 
L 794 0 
L 794 531 
z
" transform="scale(0.015625)"/>
       </defs>
       <use xlink:href="#DejaVuSans-31"/>
       <use xlink:href="#DejaVuSans-30" x="63.623047"/>
       <use xlink:href="#DejaVuSans-30" x="127.246094"/>
      </g>
     </g>
    </g>
    <g id="xtick_4">
     <g id="line2d_4">
      <g>
       <use xlink:href="#me12eaa26d6" x="551.738088" y="171.32" style="stroke: #000000; stroke-width: 0.8"/>
      </g>
     </g>
     <g id="text_4">
      <!-- 150 -->
      <g transform="translate(542.194338 185.918438) scale(0.1 -0.1)">
       <use xlink:href="#DejaVuSans-31"/>
       <use xlink:href="#DejaVuSans-35" x="63.623047"/>
       <use xlink:href="#DejaVuSans-30" x="127.246094"/>
      </g>
     </g>
    </g>
    <g id="xtick_5">
     <g id="line2d_5">
      <g>
       <use xlink:href="#me12eaa26d6" x="710.988966" y="171.32" style="stroke: #000000; stroke-width: 0.8"/>
      </g>
     </g>
     <g id="text_5">
      <!-- 200 -->
      <g transform="translate(701.445216 185.918438) scale(0.1 -0.1)">
       <defs>
        <path id="DejaVuSans-32" d="M 1228 531 
L 3431 531 
L 3431 0 
L 469 0 
L 469 531 
Q 828 903 1448 1529 
Q 2069 2156 2228 2338 
Q 2531 2678 2651 2914 
Q 2772 3150 2772 3378 
Q 2772 3750 2511 3984 
Q 2250 4219 1831 4219 
Q 1534 4219 1204 4116 
Q 875 4013 500 3803 
L 500 4441 
Q 881 4594 1212 4672 
Q 1544 4750 1819 4750 
Q 2544 4750 2975 4387 
Q 3406 4025 3406 3419 
Q 3406 3131 3298 2873 
Q 3191 2616 2906 2266 
Q 2828 2175 2409 1742 
Q 1991 1309 1228 531 
z
" transform="scale(0.015625)"/>
       </defs>
       <use xlink:href="#DejaVuSans-32"/>
       <use xlink:href="#DejaVuSans-30" x="63.623047"/>
       <use xlink:href="#DejaVuSans-30" x="127.246094"/>
      </g>
     </g>
    </g>
   </g>
   <g id="matplotlib.axis_2">
    <g id="ytick_1">
     <g id="line2d_6">
      <defs>
       <path id="mbda9cdc2a0" d="M 0 0 
L -3.5 0 
" style="stroke: #000000; stroke-width: 0.8"/>
      </defs>
      <g>
       <use xlink:href="#mbda9cdc2a0" x="36.88" y="164.754545" style="stroke: #000000; stroke-width: 0.8"/>
      </g>
     </g>
     <g id="text_6">
      <!-- 642 -->
      <g transform="translate(10.7925 168.553764) scale(0.1 -0.1)">
       <defs>
        <path id="DejaVuSans-36" d="M 2113 2584 
Q 1688 2584 1439 2293 
Q 1191 2003 1191 1497 
Q 1191 994 1439 701 
Q 1688 409 2113 409 
Q 2538 409 2786 701 
Q 3034 994 3034 1497 
Q 3034 2003 2786 2293 
Q 2538 2584 2113 2584 
z
M 3366 4563 
L 3366 3988 
Q 3128 4100 2886 4159 
Q 2644 4219 2406 4219 
Q 1781 4219 1451 3797 
Q 1122 3375 1075 2522 
Q 1259 2794 1537 2939 
Q 1816 3084 2150 3084 
Q 2853 3084 3261 2657 
Q 3669 2231 3669 1497 
Q 3669 778 3244 343 
Q 2819 -91 2113 -91 
Q 1303 -91 875 529 
Q 447 1150 447 2328 
Q 447 3434 972 4092 
Q 1497 4750 2381 4750 
Q 2619 4750 2861 4703 
Q 3103 4656 3366 4563 
z
" transform="scale(0.015625)"/>
        <path id="DejaVuSans-34" d="M 2419 4116 
L 825 1625 
L 2419 1625 
L 2419 4116 
z
M 2253 4666 
L 3047 4666 
L 3047 1625 
L 3713 1625 
L 3713 1100 
L 3047 1100 
L 3047 0 
L 2419 0 
L 2419 1100 
L 313 1100 
L 313 1709 
L 2253 4666 
z
" transform="scale(0.015625)"/>
       </defs>
       <use xlink:href="#DejaVuSans-36"/>
       <use xlink:href="#DejaVuSans-34" x="63.623047"/>
       <use xlink:href="#DejaVuSans-32" x="127.246094"/>
      </g>
     </g>
    </g>
    <g id="ytick_2">
     <g id="line2d_7">
      <g>
       <use xlink:href="#mbda9cdc2a0" x="36.88" y="120.984848" style="stroke: #000000; stroke-width: 0.8"/>
      </g>
     </g>
     <g id="text_7">
      <!-- 643 -->
      <g transform="translate(10.7925 124.784067) scale(0.1 -0.1)">
       <defs>
        <path id="DejaVuSans-33" d="M 2597 2516 
Q 3050 2419 3304 2112 
Q 3559 1806 3559 1356 
Q 3559 666 3084 287 
Q 2609 -91 1734 -91 
Q 1441 -91 1130 -33 
Q 819 25 488 141 
L 488 750 
Q 750 597 1062 519 
Q 1375 441 1716 441 
Q 2309 441 2620 675 
Q 2931 909 2931 1356 
Q 2931 1769 2642 2001 
Q 2353 2234 1838 2234 
L 1294 2234 
L 1294 2753 
L 1863 2753 
Q 2328 2753 2575 2939 
Q 2822 3125 2822 3475 
Q 2822 3834 2567 4026 
Q 2313 4219 1838 4219 
Q 1578 4219 1281 4162 
Q 984 4106 628 3988 
L 628 4550 
Q 988 4650 1302 4700 
Q 1616 4750 1894 4750 
Q 2613 4750 3031 4423 
Q 3450 4097 3450 3541 
Q 3450 3153 3228 2886 
Q 3006 2619 2597 2516 
z
" transform="scale(0.015625)"/>
       </defs>
       <use xlink:href="#DejaVuSans-36"/>
       <use xlink:href="#DejaVuSans-34" x="63.623047"/>
       <use xlink:href="#DejaVuSans-33" x="127.246094"/>
      </g>
     </g>
    </g>
    <g id="ytick_3">
     <g id="line2d_8">
      <g>
       <use xlink:href="#mbda9cdc2a0" x="36.88" y="77.215152" style="stroke: #000000; stroke-width: 0.8"/>
      </g>
     </g>
     <g id="text_8">
      <!-- 644 -->
      <g transform="translate(10.7925 81.01437) scale(0.1 -0.1)">
       <use xlink:href="#DejaVuSans-36"/>
       <use xlink:href="#DejaVuSans-34" x="63.623047"/>
       <use xlink:href="#DejaVuSans-34" x="127.246094"/>
      </g>
     </g>
    </g>
    <g id="ytick_4">
     <g id="line2d_9">
      <g>
       <use xlink:href="#mbda9cdc2a0" x="36.88" y="33.445455" style="stroke: #000000; stroke-width: 0.8"/>
      </g>
     </g>
     <g id="text_9">
      <!-- 645 -->
      <g transform="translate(10.7925 37.244673) scale(0.1 -0.1)">
       <use xlink:href="#DejaVuSans-36"/>
       <use xlink:href="#DejaVuSans-34" x="63.623047"/>
       <use xlink:href="#DejaVuSans-35" x="127.246094"/>
      </g>
     </g>
    </g>
   </g>
   <g id="line2d_10">
    <path d="M 73.985455 120.984848 
L 77.170472 120.984848 
L 80.35549 77.215152 
L 83.540507 120.984848 
L 86.725525 120.984848 
L 89.910542 77.215152 
L 93.09556 77.215152 
L 96.280577 120.984848 
L 99.465595 120.984848 
L 102.650613 77.215152 
L 105.83563 120.984848 
L 124.945735 120.984848 
L 128.130753 77.215152 
L 134.500788 164.754545 
L 140.870823 77.215152 
L 144.055841 120.984848 
L 156.795911 120.984848 
L 159.980929 77.215152 
L 163.165946 164.754545 
L 166.350964 120.984848 
L 172.720999 120.984848 
L 175.906016 77.215152 
L 182.276052 77.215152 
L 185.461069 120.984848 
L 188.646087 120.984848 
L 191.831104 33.445455 
L 195.016122 120.984848 
L 204.571174 120.984848 
L 207.756192 77.215152 
L 210.94121 120.984848 
L 214.126227 120.984848 
L 217.311245 77.215152 
L 220.496262 77.215152 
L 223.68128 120.984848 
L 230.051315 33.445455 
L 233.236332 120.984848 
L 236.42135 77.215152 
L 245.976403 77.215152 
L 249.16142 120.984848 
L 255.531455 120.984848 
L 258.716473 77.215152 
L 261.90149 120.984848 
L 274.641561 120.984848 
L 277.826578 77.215152 
L 281.011596 77.215152 
L 284.196613 120.984848 
L 287.381631 77.215152 
L 290.566648 120.984848 
L 293.751666 77.215152 
L 296.936684 120.984848 
L 306.491736 120.984848 
L 309.676754 77.215152 
L 312.861771 120.984848 
L 325.601842 120.984848 
L 328.786859 77.215152 
L 331.971877 120.984848 
L 335.156894 77.215152 
L 338.341912 120.984848 
L 344.711947 120.984848 
L 347.896964 77.215152 
L 351.081982 120.984848 
L 354.267 77.215152 
L 376.562123 77.215152 
L 379.74714 164.754545 
L 382.932158 120.984848 
L 386.117175 120.984848 
L 389.302193 77.215152 
L 392.48721 77.215152 
L 395.672228 120.984848 
L 402.042263 120.984848 
L 405.227281 77.215152 
L 408.412298 120.984848 
L 411.597316 77.215152 
L 417.967351 77.215152 
L 424.337386 164.754545 
L 430.707421 77.215152 
L 433.892439 120.984848 
L 437.077456 77.215152 
L 440.262474 120.984848 
L 443.447491 33.445455 
L 446.632509 120.984848 
L 462.557597 120.984848 
L 465.742614 77.215152 
L 468.927632 120.984848 
L 484.852719 120.984848 
L 488.037737 77.215152 
L 491.222755 120.984848 
L 494.407772 120.984848 
L 497.59279 77.215152 
L 503.962825 77.215152 
L 507.147842 120.984848 
L 510.33286 77.215152 
L 513.517877 120.984848 
L 523.07293 120.984848 
L 526.257948 33.445455 
L 529.442965 120.984848 
L 532.627983 77.215152 
L 535.813 77.215152 
L 538.998018 120.984848 
L 548.553071 120.984848 
L 551.738088 164.754545 
L 558.108123 77.215152 
L 561.293141 120.984848 
L 570.848194 120.984848 
L 574.033211 77.215152 
L 577.218229 120.984848 
L 609.068404 120.984848 
L 612.253422 77.215152 
L 615.438439 120.984848 
L 618.623457 120.984848 
L 621.808474 77.215152 
L 624.993492 120.984848 
L 634.548545 120.984848 
L 637.733562 164.754545 
L 640.91858 77.215152 
L 644.103597 120.984848 
L 647.288615 77.215152 
L 650.473632 120.984848 
L 653.65865 77.215152 
L 656.843668 120.984848 
L 660.028685 120.984848 
L 663.213703 77.215152 
L 666.39872 120.984848 
L 675.953773 120.984848 
L 679.13879 77.215152 
L 685.508826 164.754545 
L 688.693843 120.984848 
L 691.878861 120.984848 
L 695.063878 77.215152 
L 698.248896 120.984848 
L 701.433913 77.215152 
L 704.618931 120.984848 
L 720.544019 120.984848 
L 723.729036 77.215152 
L 726.914054 77.215152 
L 730.099071 120.984848 
L 736.469107 120.984848 
L 739.654124 77.215152 
L 742.839142 120.984848 
L 746.024159 120.984848 
L 749.209177 77.215152 
L 752.394194 120.984848 
L 765.134265 120.984848 
L 771.5043 33.445455 
L 777.874335 120.984848 
L 781.059352 120.984848 
L 784.24437 77.215152 
L 787.429387 120.984848 
L 796.98444 120.984848 
L 800.169458 164.754545 
L 806.539493 77.215152 
L 809.72451 77.215152 
L 812.909528 120.984848 
L 816.094545 120.984848 
L 816.094545 120.984848 
" clip-path="url(#pbb916b812f)" style="fill: none; stroke: #1f77b4; stroke-width: 1.5; stroke-linecap: square"/>
   </g>
   <g id="patch_3">
    <path d="M 36.88 171.32 
L 36.88 26.88 
" style="fill: none; stroke: #000000; stroke-width: 0.8; stroke-linejoin: miter; stroke-linecap: square"/>
   </g>
   <g id="patch_4">
    <path d="M 853.2 171.32 
L 853.2 26.88 
" style="fill: none; stroke: #000000; stroke-width: 0.8; stroke-linejoin: miter; stroke-linecap: square"/>
   </g>
   <g id="patch_5">
    <path d="M 36.88 171.32 
L 853.2 171.32 
" style="fill: none; stroke: #000000; stroke-width: 0.8; stroke-linejoin: miter; stroke-linecap: square"/>
   </g>
   <g id="patch_6">
    <path d="M 36.88 26.88 
L 853.2 26.88 
" style="fill: none; stroke: #000000; stroke-width: 0.8; stroke-linejoin: miter; stroke-linecap: square"/>
   </g>
   <g id="text_10">
    <!-- x-ordinate over time -->
    <g transform="translate(383.429375 20.88) scale(0.12 -0.12)">
     <defs>
      <path id="DejaVuSans-78" d="M 3513 3500 
L 2247 1797 
L 3578 0 
L 2900 0 
L 1881 1375 
L 863 0 
L 184 0 
L 1544 1831 
L 300 3500 
L 978 3500 
L 1906 2253 
L 2834 3500 
L 3513 3500 
z
" transform="scale(0.015625)"/>
      <path id="DejaVuSans-2d" d="M 313 2009 
L 1997 2009 
L 1997 1497 
L 313 1497 
L 313 2009 
z
" transform="scale(0.015625)"/>
      <path id="DejaVuSans-6f" d="M 1959 3097 
Q 1497 3097 1228 2736 
Q 959 2375 959 1747 
Q 959 1119 1226 758 
Q 1494 397 1959 397 
Q 2419 397 2687 759 
Q 2956 1122 2956 1747 
Q 2956 2369 2687 2733 
Q 2419 3097 1959 3097 
z
M 1959 3584 
Q 2709 3584 3137 3096 
Q 3566 2609 3566 1747 
Q 3566 888 3137 398 
Q 2709 -91 1959 -91 
Q 1206 -91 779 398 
Q 353 888 353 1747 
Q 353 2609 779 3096 
Q 1206 3584 1959 3584 
z
" transform="scale(0.015625)"/>
      <path id="DejaVuSans-72" d="M 2631 2963 
Q 2534 3019 2420 3045 
Q 2306 3072 2169 3072 
Q 1681 3072 1420 2755 
Q 1159 2438 1159 1844 
L 1159 0 
L 581 0 
L 581 3500 
L 1159 3500 
L 1159 2956 
Q 1341 3275 1631 3429 
Q 1922 3584 2338 3584 
Q 2397 3584 2469 3576 
Q 2541 3569 2628 3553 
L 2631 2963 
z
" transform="scale(0.015625)"/>
      <path id="DejaVuSans-64" d="M 2906 2969 
L 2906 4863 
L 3481 4863 
L 3481 0 
L 2906 0 
L 2906 525 
Q 2725 213 2448 61 
Q 2172 -91 1784 -91 
Q 1150 -91 751 415 
Q 353 922 353 1747 
Q 353 2572 751 3078 
Q 1150 3584 1784 3584 
Q 2172 3584 2448 3432 
Q 2725 3281 2906 2969 
z
M 947 1747 
Q 947 1113 1208 752 
Q 1469 391 1925 391 
Q 2381 391 2643 752 
Q 2906 1113 2906 1747 
Q 2906 2381 2643 2742 
Q 2381 3103 1925 3103 
Q 1469 3103 1208 2742 
Q 947 2381 947 1747 
z
" transform="scale(0.015625)"/>
      <path id="DejaVuSans-69" d="M 603 3500 
L 1178 3500 
L 1178 0 
L 603 0 
L 603 3500 
z
M 603 4863 
L 1178 4863 
L 1178 4134 
L 603 4134 
L 603 4863 
z
" transform="scale(0.015625)"/>
      <path id="DejaVuSans-6e" d="M 3513 2113 
L 3513 0 
L 2938 0 
L 2938 2094 
Q 2938 2591 2744 2837 
Q 2550 3084 2163 3084 
Q 1697 3084 1428 2787 
Q 1159 2491 1159 1978 
L 1159 0 
L 581 0 
L 581 3500 
L 1159 3500 
L 1159 2956 
Q 1366 3272 1645 3428 
Q 1925 3584 2291 3584 
Q 2894 3584 3203 3211 
Q 3513 2838 3513 2113 
z
" transform="scale(0.015625)"/>
      <path id="DejaVuSans-61" d="M 2194 1759 
Q 1497 1759 1228 1600 
Q 959 1441 959 1056 
Q 959 750 1161 570 
Q 1363 391 1709 391 
Q 2188 391 2477 730 
Q 2766 1069 2766 1631 
L 2766 1759 
L 2194 1759 
z
M 3341 1997 
L 3341 0 
L 2766 0 
L 2766 531 
Q 2569 213 2275 61 
Q 1981 -91 1556 -91 
Q 1019 -91 701 211 
Q 384 513 384 1019 
Q 384 1609 779 1909 
Q 1175 2209 1959 2209 
L 2766 2209 
L 2766 2266 
Q 2766 2663 2505 2880 
Q 2244 3097 1772 3097 
Q 1472 3097 1187 3025 
Q 903 2953 641 2809 
L 641 3341 
Q 956 3463 1253 3523 
Q 1550 3584 1831 3584 
Q 2591 3584 2966 3190 
Q 3341 2797 3341 1997 
z
" transform="scale(0.015625)"/>
      <path id="DejaVuSans-74" d="M 1172 4494 
L 1172 3500 
L 2356 3500 
L 2356 3053 
L 1172 3053 
L 1172 1153 
Q 1172 725 1289 603 
Q 1406 481 1766 481 
L 2356 481 
L 2356 0 
L 1766 0 
Q 1100 0 847 248 
Q 594 497 594 1153 
L 594 3053 
L 172 3053 
L 172 3500 
L 594 3500 
L 594 4494 
L 1172 4494 
z
" transform="scale(0.015625)"/>
      <path id="DejaVuSans-65" d="M 3597 1894 
L 3597 1613 
L 953 1613 
Q 991 1019 1311 708 
Q 1631 397 2203 397 
Q 2534 397 2845 478 
Q 3156 559 3463 722 
L 3463 178 
Q 3153 47 2828 -22 
Q 2503 -91 2169 -91 
Q 1331 -91 842 396 
Q 353 884 353 1716 
Q 353 2575 817 3079 
Q 1281 3584 2069 3584 
Q 2775 3584 3186 3129 
Q 3597 2675 3597 1894 
z
M 3022 2063 
Q 3016 2534 2758 2815 
Q 2500 3097 2075 3097 
Q 1594 3097 1305 2825 
Q 1016 2553 972 2059 
L 3022 2063 
z
" transform="scale(0.015625)"/>
      <path id="DejaVuSans-20" transform="scale(0.015625)"/>
      <path id="DejaVuSans-76" d="M 191 3500 
L 800 3500 
L 1894 563 
L 2988 3500 
L 3597 3500 
L 2284 0 
L 1503 0 
L 191 3500 
z
" transform="scale(0.015625)"/>
      <path id="DejaVuSans-6d" d="M 3328 2828 
Q 3544 3216 3844 3400 
Q 4144 3584 4550 3584 
Q 5097 3584 5394 3201 
Q 5691 2819 5691 2113 
L 5691 0 
L 5113 0 
L 5113 2094 
Q 5113 2597 4934 2840 
Q 4756 3084 4391 3084 
Q 3944 3084 3684 2787 
Q 3425 2491 3425 1978 
L 3425 0 
L 2847 0 
L 2847 2094 
Q 2847 2600 2669 2842 
Q 2491 3084 2119 3084 
Q 1678 3084 1418 2786 
Q 1159 2488 1159 1978 
L 1159 0 
L 581 0 
L 581 3500 
L 1159 3500 
L 1159 2956 
Q 1356 3278 1631 3431 
Q 1906 3584 2284 3584 
Q 2666 3584 2933 3390 
Q 3200 3197 3328 2828 
z
" transform="scale(0.015625)"/>
     </defs>
     <use xlink:href="#DejaVuSans-78"/>
     <use xlink:href="#DejaVuSans-2d" x="59.179688"/>
     <use xlink:href="#DejaVuSans-6f" x="97.138672"/>
     <use xlink:href="#DejaVuSans-72" x="158.320312"/>
     <use xlink:href="#DejaVuSans-64" x="197.683594"/>
     <use xlink:href="#DejaVuSans-69" x="261.160156"/>
     <use xlink:href="#DejaVuSans-6e" x="288.943359"/>
     <use xlink:href="#DejaVuSans-61" x="352.322266"/>
     <use xlink:href="#DejaVuSans-74" x="413.601562"/>
     <use xlink:href="#DejaVuSans-65" x="452.810547"/>
     <use xlink:href="#DejaVuSans-20" x="514.333984"/>
     <use xlink:href="#DejaVuSans-6f" x="546.121094"/>
     <use xlink:href="#DejaVuSans-76" x="607.302734"/>
     <use xlink:href="#DejaVuSans-65" x="666.482422"/>
     <use xlink:href="#DejaVuSans-72" x="728.005859"/>
     <use xlink:href="#DejaVuSans-20" x="769.119141"/>
     <use xlink:href="#DejaVuSans-74" x="800.90625"/>
     <use xlink:href="#DejaVuSans-69" x="840.115234"/>
     <use xlink:href="#DejaVuSans-6d" x="867.898438"/>
     <use xlink:href="#DejaVuSans-65" x="965.310547"/>
    </g>
   </g>
  </g>
  <g id="axes_2">
   <g id="patch_7">
    <path d="M 36.88 359.72 
L 853.2 359.72 
L 853.2 215.28 
L 36.88 215.28 
z
" style="fill: #ffffff"/>
   </g>
   <g id="matplotlib.axis_3">
    <g id="xtick_6">
     <g id="line2d_11">
      <g>
       <use xlink:href="#me12eaa26d6" x="73.985455" y="359.72" style="stroke: #000000; stroke-width: 0.8"/>
      </g>
     </g>
     <g id="text_11">
      <!-- 0 -->
      <g transform="translate(70.804205 374.318438) scale(0.1 -0.1)">
       <use xlink:href="#DejaVuSans-30"/>
      </g>
     </g>
    </g>
    <g id="xtick_7">
     <g id="line2d_12">
      <g>
       <use xlink:href="#me12eaa26d6" x="233.236332" y="359.72" style="stroke: #000000; stroke-width: 0.8"/>
      </g>
     </g>
     <g id="text_12">
      <!-- 50 -->
      <g transform="translate(226.873832 374.318438) scale(0.1 -0.1)">
       <use xlink:href="#DejaVuSans-35"/>
       <use xlink:href="#DejaVuSans-30" x="63.623047"/>
      </g>
     </g>
    </g>
    <g id="xtick_8">
     <g id="line2d_13">
      <g>
       <use xlink:href="#me12eaa26d6" x="392.48721" y="359.72" style="stroke: #000000; stroke-width: 0.8"/>
      </g>
     </g>
     <g id="text_13">
      <!-- 100 -->
      <g transform="translate(382.94346 374.318438) scale(0.1 -0.1)">
       <use xlink:href="#DejaVuSans-31"/>
       <use xlink:href="#DejaVuSans-30" x="63.623047"/>
       <use xlink:href="#DejaVuSans-30" x="127.246094"/>
      </g>
     </g>
    </g>
    <g id="xtick_9">
     <g id="line2d_14">
      <g>
       <use xlink:href="#me12eaa26d6" x="551.738088" y="359.72" style="stroke: #000000; stroke-width: 0.8"/>
      </g>
     </g>
     <g id="text_14">
      <!-- 150 -->
      <g transform="translate(542.194338 374.318438) scale(0.1 -0.1)">
       <use xlink:href="#DejaVuSans-31"/>
       <use xlink:href="#DejaVuSans-35" x="63.623047"/>
       <use xlink:href="#DejaVuSans-30" x="127.246094"/>
      </g>
     </g>
    </g>
    <g id="xtick_10">
     <g id="line2d_15">
      <g>
       <use xlink:href="#me12eaa26d6" x="710.988966" y="359.72" style="stroke: #000000; stroke-width: 0.8"/>
      </g>
     </g>
     <g id="text_15">
      <!-- 200 -->
      <g transform="translate(701.445216 374.318438) scale(0.1 -0.1)">
       <use xlink:href="#DejaVuSans-32"/>
       <use xlink:href="#DejaVuSans-30" x="63.623047"/>
       <use xlink:href="#DejaVuSans-30" x="127.246094"/>
      </g>
     </g>
    </g>
   </g>
   <g id="matplotlib.axis_4">
    <g id="ytick_5">
     <g id="line2d_16">
      <g>
       <use xlink:href="#mbda9cdc2a0" x="36.88" y="353.154545" style="stroke: #000000; stroke-width: 0.8"/>
      </g>
     </g>
     <g id="text_16">
      <!-- 315 -->
      <g transform="translate(10.7925 356.953764) scale(0.1 -0.1)">
       <use xlink:href="#DejaVuSans-33"/>
       <use xlink:href="#DejaVuSans-31" x="63.623047"/>
       <use xlink:href="#DejaVuSans-35" x="127.246094"/>
      </g>
     </g>
    </g>
    <g id="ytick_6">
     <g id="line2d_17">
      <g>
       <use xlink:href="#mbda9cdc2a0" x="36.88" y="287.5" style="stroke: #000000; stroke-width: 0.8"/>
      </g>
     </g>
     <g id="text_17">
      <!-- 316 -->
      <g transform="translate(10.7925 291.299219) scale(0.1 -0.1)">
       <use xlink:href="#DejaVuSans-33"/>
       <use xlink:href="#DejaVuSans-31" x="63.623047"/>
       <use xlink:href="#DejaVuSans-36" x="127.246094"/>
      </g>
     </g>
    </g>
    <g id="ytick_7">
     <g id="line2d_18">
      <g>
       <use xlink:href="#mbda9cdc2a0" x="36.88" y="221.845455" style="stroke: #000000; stroke-width: 0.8"/>
      </g>
     </g>
     <g id="text_18">
      <!-- 317 -->
      <g transform="translate(10.7925 225.644673) scale(0.1 -0.1)">
       <defs>
        <path id="DejaVuSans-37" d="M 525 4666 
L 3525 4666 
L 3525 4397 
L 1831 0 
L 1172 0 
L 2766 4134 
L 525 4134 
L 525 4666 
z
" transform="scale(0.015625)"/>
       </defs>
       <use xlink:href="#DejaVuSans-33"/>
       <use xlink:href="#DejaVuSans-31" x="63.623047"/>
       <use xlink:href="#DejaVuSans-37" x="127.246094"/>
      </g>
     </g>
    </g>
   </g>
   <g id="line2d_19">
    <path d="M 73.985455 287.5 
L 77.170472 353.154545 
L 80.35549 221.845455 
L 83.540507 353.154545 
L 86.725525 287.5 
L 89.910542 353.154545 
L 93.09556 287.5 
L 96.280577 353.154545 
L 99.465595 287.5 
L 102.650613 287.5 
L 105.83563 353.154545 
L 109.020648 287.5 
L 112.205665 353.154545 
L 115.390683 287.5 
L 131.315771 287.5 
L 134.500788 353.154545 
L 137.685806 353.154545 
L 140.870823 287.5 
L 144.055841 353.154545 
L 147.240858 287.5 
L 159.980929 287.5 
L 163.165946 221.845455 
L 166.350964 287.5 
L 172.720999 287.5 
L 175.906016 353.154545 
L 182.276052 353.154545 
L 185.461069 287.5 
L 188.646087 353.154545 
L 195.016122 221.845455 
L 198.201139 287.5 
L 204.571174 287.5 
L 207.756192 353.154545 
L 210.94121 353.154545 
L 214.126227 287.5 
L 217.311245 353.154545 
L 220.496262 287.5 
L 223.68128 287.5 
L 226.866297 353.154545 
L 230.051315 287.5 
L 233.236332 287.5 
L 236.42135 353.154545 
L 239.606368 287.5 
L 242.791385 353.154545 
L 252.346438 353.154545 
L 258.716473 221.845455 
L 265.086508 353.154545 
L 268.271526 287.5 
L 271.456543 287.5 
L 274.641561 353.154545 
L 277.826578 353.154545 
L 281.011596 287.5 
L 284.196613 353.154545 
L 287.381631 287.5 
L 306.491736 287.5 
L 309.676754 353.154545 
L 312.861771 353.154545 
L 316.046789 287.5 
L 319.231806 287.5 
L 322.416824 353.154545 
L 325.601842 287.5 
L 328.786859 353.154545 
L 331.971877 287.5 
L 335.156894 353.154545 
L 338.341912 353.154545 
L 341.526929 287.5 
L 344.711947 287.5 
L 347.896964 353.154545 
L 351.081982 287.5 
L 354.267 353.154545 
L 357.452017 287.5 
L 360.637035 353.154545 
L 367.00707 353.154545 
L 370.192087 287.5 
L 373.377105 287.5 
L 376.562123 353.154545 
L 379.74714 287.5 
L 382.932158 353.154545 
L 386.117175 287.5 
L 398.857245 287.5 
L 402.042263 353.154545 
L 405.227281 353.154545 
L 408.412298 287.5 
L 414.782333 287.5 
L 417.967351 353.154545 
L 424.337386 353.154545 
L 427.522403 287.5 
L 433.892439 287.5 
L 437.077456 353.154545 
L 440.262474 287.5 
L 443.447491 353.154545 
L 446.632509 287.5 
L 453.002544 287.5 
L 456.187561 353.154545 
L 459.372579 287.5 
L 462.557597 287.5 
L 465.742614 353.154545 
L 472.112649 353.154545 
L 475.297667 287.5 
L 488.037737 287.5 
L 491.222755 353.154545 
L 500.777807 353.154545 
L 503.962825 287.5 
L 507.147842 287.5 
L 510.33286 353.154545 
L 513.517877 353.154545 
L 516.702895 287.5 
L 532.627983 287.5 
L 535.813 353.154545 
L 538.998018 287.5 
L 542.183036 287.5 
L 545.368053 221.845455 
L 548.553071 287.5 
L 570.848194 287.5 
L 574.033211 353.154545 
L 583.588264 353.154545 
L 586.773281 287.5 
L 589.958299 353.154545 
L 593.143316 287.5 
L 599.513352 287.5 
L 602.698369 353.154545 
L 605.883387 287.5 
L 609.068404 353.154545 
L 612.253422 353.154545 
L 615.438439 287.5 
L 618.623457 353.154545 
L 621.808474 353.154545 
L 624.993492 287.5 
L 631.363527 287.5 
L 634.548545 353.154545 
L 637.733562 353.154545 
L 640.91858 287.5 
L 653.65865 287.5 
L 656.843668 353.154545 
L 660.028685 287.5 
L 663.213703 353.154545 
L 675.953773 353.154545 
L 679.13879 287.5 
L 682.323808 287.5 
L 685.508826 353.154545 
L 688.693843 287.5 
L 691.878861 287.5 
L 695.063878 353.154545 
L 707.803948 353.154545 
L 710.988966 287.5 
L 714.173984 353.154545 
L 717.359001 353.154545 
L 720.544019 287.5 
L 723.729036 353.154545 
L 726.914054 287.5 
L 755.579212 287.5 
L 758.764229 353.154545 
L 761.949247 353.154545 
L 765.134265 287.5 
L 768.319282 353.154545 
L 771.5043 353.154545 
L 774.689317 287.5 
L 793.799423 287.5 
L 796.98444 353.154545 
L 800.169458 287.5 
L 803.354475 287.5 
L 806.539493 353.154545 
L 809.72451 287.5 
L 812.909528 287.5 
L 816.094545 353.154545 
L 816.094545 353.154545 
" clip-path="url(#p686d6c4aa0)" style="fill: none; stroke: #1f77b4; stroke-width: 1.5; stroke-linecap: square"/>
   </g>
   <g id="patch_8">
    <path d="M 36.88 359.72 
L 36.88 215.28 
" style="fill: none; stroke: #000000; stroke-width: 0.8; stroke-linejoin: miter; stroke-linecap: square"/>
   </g>
   <g id="patch_9">
    <path d="M 853.2 359.72 
L 853.2 215.28 
" style="fill: none; stroke: #000000; stroke-width: 0.8; stroke-linejoin: miter; stroke-linecap: square"/>
   </g>
   <g id="patch_10">
    <path d="M 36.88 359.72 
L 853.2 359.72 
" style="fill: none; stroke: #000000; stroke-width: 0.8; stroke-linejoin: miter; stroke-linecap: square"/>
   </g>
   <g id="patch_11">
    <path d="M 36.88 215.28 
L 853.2 215.28 
" style="fill: none; stroke: #000000; stroke-width: 0.8; stroke-linejoin: miter; stroke-linecap: square"/>
   </g>
   <g id="text_19">
    <!-- y-ordinate over time -->
    <g transform="translate(383.534375 209.28) scale(0.12 -0.12)">
     <defs>
      <path id="DejaVuSans-79" d="M 2059 -325 
Q 1816 -950 1584 -1140 
Q 1353 -1331 966 -1331 
L 506 -1331 
L 506 -850 
L 844 -850 
Q 1081 -850 1212 -737 
Q 1344 -625 1503 -206 
L 1606 56 
L 191 3500 
L 800 3500 
L 1894 763 
L 2988 3500 
L 3597 3500 
L 2059 -325 
z
" transform="scale(0.015625)"/>
     </defs>
     <use xlink:href="#DejaVuSans-79"/>
     <use xlink:href="#DejaVuSans-2d" x="57.429688"/>
     <use xlink:href="#DejaVuSans-6f" x="95.388672"/>
     <use xlink:href="#DejaVuSans-72" x="156.570312"/>
     <use xlink:href="#DejaVuSans-64" x="195.933594"/>
     <use xlink:href="#DejaVuSans-69" x="259.410156"/>
     <use xlink:href="#DejaVuSans-6e" x="287.193359"/>
     <use xlink:href="#DejaVuSans-61" x="350.572266"/>
     <use xlink:href="#DejaVuSans-74" x="411.851562"/>
     <use xlink:href="#DejaVuSans-65" x="451.060547"/>
     <use xlink:href="#DejaVuSans-20" x="512.583984"/>
     <use xlink:href="#DejaVuSans-6f" x="544.371094"/>
     <use xlink:href="#DejaVuSans-76" x="605.552734"/>
     <use xlink:href="#DejaVuSans-65" x="664.732422"/>
     <use xlink:href="#DejaVuSans-72" x="726.255859"/>
     <use xlink:href="#DejaVuSans-20" x="767.369141"/>
     <use xlink:href="#DejaVuSans-74" x="799.15625"/>
     <use xlink:href="#DejaVuSans-69" x="838.365234"/>
     <use xlink:href="#DejaVuSans-6d" x="866.148438"/>
     <use xlink:href="#DejaVuSans-65" x="963.560547"/>
    </g>
   </g>
  </g>
  <g id="axes_3">
   <g id="patch_12">
    <path d="M 36.88 548.12 
L 853.2 548.12 
L 853.2 403.68 
L 36.88 403.68 
z
" style="fill: #ffffff"/>
   </g>
   <g id="matplotlib.axis_5">
    <g id="xtick_11">
     <g id="line2d_20">
      <g>
       <use xlink:href="#me12eaa26d6" x="73.985455" y="548.12" style="stroke: #000000; stroke-width: 0.8"/>
      </g>
     </g>
     <g id="text_20">
      <!-- 0 -->
      <g transform="translate(70.804205 562.718437) scale(0.1 -0.1)">
       <use xlink:href="#DejaVuSans-30"/>
      </g>
     </g>
    </g>
    <g id="xtick_12">
     <g id="line2d_21">
      <g>
       <use xlink:href="#me12eaa26d6" x="233.236332" y="548.12" style="stroke: #000000; stroke-width: 0.8"/>
      </g>
     </g>
     <g id="text_21">
      <!-- 50 -->
      <g transform="translate(226.873832 562.718437) scale(0.1 -0.1)">
       <use xlink:href="#DejaVuSans-35"/>
       <use xlink:href="#DejaVuSans-30" x="63.623047"/>
      </g>
     </g>
    </g>
    <g id="xtick_13">
     <g id="line2d_22">
      <g>
       <use xlink:href="#me12eaa26d6" x="392.48721" y="548.12" style="stroke: #000000; stroke-width: 0.8"/>
      </g>
     </g>
     <g id="text_22">
      <!-- 100 -->
      <g transform="translate(382.94346 562.718437) scale(0.1 -0.1)">
       <use xlink:href="#DejaVuSans-31"/>
       <use xlink:href="#DejaVuSans-30" x="63.623047"/>
       <use xlink:href="#DejaVuSans-30" x="127.246094"/>
      </g>
     </g>
    </g>
    <g id="xtick_14">
     <g id="line2d_23">
      <g>
       <use xlink:href="#me12eaa26d6" x="551.738088" y="548.12" style="stroke: #000000; stroke-width: 0.8"/>
      </g>
     </g>
     <g id="text_23">
      <!-- 150 -->
      <g transform="translate(542.194338 562.718437) scale(0.1 -0.1)">
       <use xlink:href="#DejaVuSans-31"/>
       <use xlink:href="#DejaVuSans-35" x="63.623047"/>
       <use xlink:href="#DejaVuSans-30" x="127.246094"/>
      </g>
     </g>
    </g>
    <g id="xtick_15">
     <g id="line2d_24">
      <g>
       <use xlink:href="#me12eaa26d6" x="710.988966" y="548.12" style="stroke: #000000; stroke-width: 0.8"/>
      </g>
     </g>
     <g id="text_24">
      <!-- 200 -->
      <g transform="translate(701.445216 562.718437) scale(0.1 -0.1)">
       <use xlink:href="#DejaVuSans-32"/>
       <use xlink:href="#DejaVuSans-30" x="63.623047"/>
       <use xlink:href="#DejaVuSans-30" x="127.246094"/>
      </g>
     </g>
    </g>
   </g>
   <g id="matplotlib.axis_6">
    <g id="ytick_8">
     <g id="line2d_25">
      <g>
       <use xlink:href="#mbda9cdc2a0" x="36.88" y="541.554545" style="stroke: #000000; stroke-width: 0.8"/>
      </g>
     </g>
     <g id="text_25">
      <!-- 497 -->
      <g transform="translate(10.7925 545.353764) scale(0.1 -0.1)">
       <defs>
        <path id="DejaVuSans-39" d="M 703 97 
L 703 672 
Q 941 559 1184 500 
Q 1428 441 1663 441 
Q 2288 441 2617 861 
Q 2947 1281 2994 2138 
Q 2813 1869 2534 1725 
Q 2256 1581 1919 1581 
Q 1219 1581 811 2004 
Q 403 2428 403 3163 
Q 403 3881 828 4315 
Q 1253 4750 1959 4750 
Q 2769 4750 3195 4129 
Q 3622 3509 3622 2328 
Q 3622 1225 3098 567 
Q 2575 -91 1691 -91 
Q 1453 -91 1209 -44 
Q 966 3 703 97 
z
M 1959 2075 
Q 2384 2075 2632 2365 
Q 2881 2656 2881 3163 
Q 2881 3666 2632 3958 
Q 2384 4250 1959 4250 
Q 1534 4250 1286 3958 
Q 1038 3666 1038 3163 
Q 1038 2656 1286 2365 
Q 1534 2075 1959 2075 
z
" transform="scale(0.015625)"/>
       </defs>
       <use xlink:href="#DejaVuSans-34"/>
       <use xlink:href="#DejaVuSans-39" x="63.623047"/>
       <use xlink:href="#DejaVuSans-37" x="127.246094"/>
      </g>
     </g>
    </g>
    <g id="ytick_9">
     <g id="line2d_26">
      <g>
       <use xlink:href="#mbda9cdc2a0" x="36.88" y="475.9" style="stroke: #000000; stroke-width: 0.8"/>
      </g>
     </g>
     <g id="text_26">
      <!-- 498 -->
      <g transform="translate(10.7925 479.699219) scale(0.1 -0.1)">
       <defs>
        <path id="DejaVuSans-38" d="M 2034 2216 
Q 1584 2216 1326 1975 
Q 1069 1734 1069 1313 
Q 1069 891 1326 650 
Q 1584 409 2034 409 
Q 2484 409 2743 651 
Q 3003 894 3003 1313 
Q 3003 1734 2745 1975 
Q 2488 2216 2034 2216 
z
M 1403 2484 
Q 997 2584 770 2862 
Q 544 3141 544 3541 
Q 544 4100 942 4425 
Q 1341 4750 2034 4750 
Q 2731 4750 3128 4425 
Q 3525 4100 3525 3541 
Q 3525 3141 3298 2862 
Q 3072 2584 2669 2484 
Q 3125 2378 3379 2068 
Q 3634 1759 3634 1313 
Q 3634 634 3220 271 
Q 2806 -91 2034 -91 
Q 1263 -91 848 271 
Q 434 634 434 1313 
Q 434 1759 690 2068 
Q 947 2378 1403 2484 
z
M 1172 3481 
Q 1172 3119 1398 2916 
Q 1625 2713 2034 2713 
Q 2441 2713 2670 2916 
Q 2900 3119 2900 3481 
Q 2900 3844 2670 4047 
Q 2441 4250 2034 4250 
Q 1625 4250 1398 4047 
Q 1172 3844 1172 3481 
z
" transform="scale(0.015625)"/>
       </defs>
       <use xlink:href="#DejaVuSans-34"/>
       <use xlink:href="#DejaVuSans-39" x="63.623047"/>
       <use xlink:href="#DejaVuSans-38" x="127.246094"/>
      </g>
     </g>
    </g>
    <g id="ytick_10">
     <g id="line2d_27">
      <g>
       <use xlink:href="#mbda9cdc2a0" x="36.88" y="410.245455" style="stroke: #000000; stroke-width: 0.8"/>
      </g>
     </g>
     <g id="text_27">
      <!-- 499 -->
      <g transform="translate(10.7925 414.044673) scale(0.1 -0.1)">
       <use xlink:href="#DejaVuSans-34"/>
       <use xlink:href="#DejaVuSans-39" x="63.623047"/>
       <use xlink:href="#DejaVuSans-39" x="127.246094"/>
      </g>
     </g>
    </g>
   </g>
   <g id="line2d_28">
    <path d="M 73.985455 410.245455 
L 77.170472 541.554545 
L 80.35549 410.245455 
L 83.540507 475.9 
L 86.725525 410.245455 
L 89.910542 475.9 
L 96.280577 475.9 
L 99.465595 410.245455 
L 109.020648 410.245455 
L 112.205665 475.9 
L 115.390683 475.9 
L 118.5757 410.245455 
L 121.760718 475.9 
L 124.945735 410.245455 
L 128.130753 410.245455 
L 131.315771 475.9 
L 134.500788 475.9 
L 137.685806 410.245455 
L 140.870823 475.9 
L 144.055841 410.245455 
L 153.610893 410.245455 
L 156.795911 475.9 
L 159.980929 410.245455 
L 163.165946 475.9 
L 166.350964 410.245455 
L 169.535981 475.9 
L 172.720999 410.245455 
L 182.276052 410.245455 
L 185.461069 475.9 
L 188.646087 410.245455 
L 191.831104 475.9 
L 198.201139 475.9 
L 201.386157 410.245455 
L 204.571174 475.9 
L 214.126227 475.9 
L 217.311245 410.245455 
L 220.496262 410.245455 
L 223.68128 475.9 
L 226.866297 410.245455 
L 239.606368 410.245455 
L 242.791385 475.9 
L 245.976403 410.245455 
L 255.531455 410.245455 
L 258.716473 475.9 
L 261.90149 475.9 
L 265.086508 410.245455 
L 268.271526 475.9 
L 271.456543 475.9 
L 274.641561 410.245455 
L 277.826578 475.9 
L 281.011596 410.245455 
L 284.196613 475.9 
L 287.381631 410.245455 
L 290.566648 475.9 
L 293.751666 410.245455 
L 300.121701 410.245455 
L 303.306719 475.9 
L 306.491736 410.245455 
L 309.676754 475.9 
L 312.861771 410.245455 
L 316.046789 475.9 
L 319.231806 410.245455 
L 325.601842 410.245455 
L 328.786859 475.9 
L 335.156894 475.9 
L 338.341912 410.245455 
L 357.452017 410.245455 
L 360.637035 475.9 
L 363.822052 410.245455 
L 389.302193 410.245455 
L 392.48721 475.9 
L 395.672228 410.245455 
L 398.857245 475.9 
L 402.042263 410.245455 
L 414.782333 410.245455 
L 417.967351 475.9 
L 421.152368 475.9 
L 424.337386 410.245455 
L 456.187561 410.245455 
L 459.372579 475.9 
L 472.112649 475.9 
L 475.297667 410.245455 
L 478.482684 475.9 
L 481.667702 410.245455 
L 494.407772 410.245455 
L 497.59279 475.9 
L 500.777807 410.245455 
L 510.33286 410.245455 
L 513.517877 475.9 
L 516.702895 410.245455 
L 523.07293 410.245455 
L 526.257948 475.9 
L 529.442965 410.245455 
L 532.627983 475.9 
L 535.813 475.9 
L 538.998018 410.245455 
L 551.738088 410.245455 
L 554.923106 475.9 
L 558.108123 410.245455 
L 561.293141 410.245455 
L 564.478158 475.9 
L 567.663176 410.245455 
L 570.848194 410.245455 
L 574.033211 475.9 
L 577.218229 410.245455 
L 605.883387 410.245455 
L 609.068404 475.9 
L 612.253422 410.245455 
L 637.733562 410.245455 
L 640.91858 475.9 
L 644.103597 410.245455 
L 666.39872 410.245455 
L 669.583738 475.9 
L 672.768755 410.245455 
L 675.953773 475.9 
L 679.13879 410.245455 
L 691.878861 410.245455 
L 695.063878 475.9 
L 698.248896 475.9 
L 701.433913 410.245455 
L 704.618931 410.245455 
L 707.803948 475.9 
L 710.988966 410.245455 
L 720.544019 410.245455 
L 723.729036 475.9 
L 726.914054 410.245455 
L 736.469107 410.245455 
L 739.654124 475.9 
L 742.839142 410.245455 
L 746.024159 475.9 
L 749.209177 410.245455 
L 752.394194 475.9 
L 755.579212 410.245455 
L 765.134265 410.245455 
L 768.319282 475.9 
L 774.689317 475.9 
L 777.874335 410.245455 
L 784.24437 410.245455 
L 787.429387 475.9 
L 793.799423 475.9 
L 796.98444 410.245455 
L 800.169458 475.9 
L 809.72451 475.9 
L 812.909528 410.245455 
L 816.094545 410.245455 
L 816.094545 410.245455 
" clip-path="url(#p7f489c13d8)" style="fill: none; stroke: #1f77b4; stroke-width: 1.5; stroke-linecap: square"/>
   </g>
   <g id="patch_13">
    <path d="M 36.88 548.12 
L 36.88 403.68 
" style="fill: none; stroke: #000000; stroke-width: 0.8; stroke-linejoin: miter; stroke-linecap: square"/>
   </g>
   <g id="patch_14">
    <path d="M 853.2 548.12 
L 853.2 403.68 
" style="fill: none; stroke: #000000; stroke-width: 0.8; stroke-linejoin: miter; stroke-linecap: square"/>
   </g>
   <g id="patch_15">
    <path d="M 36.88 548.12 
L 853.2 548.12 
" style="fill: none; stroke: #000000; stroke-width: 0.8; stroke-linejoin: miter; stroke-linecap: square"/>
   </g>
   <g id="patch_16">
    <path d="M 36.88 403.68 
L 853.2 403.68 
" style="fill: none; stroke: #000000; stroke-width: 0.8; stroke-linejoin: miter; stroke-linecap: square"/>
   </g>
   <g id="text_28">
    <!-- Depth over time -->
    <g transform="translate(396.014375 397.68) scale(0.12 -0.12)">
     <defs>
      <path id="DejaVuSans-44" d="M 1259 4147 
L 1259 519 
L 2022 519 
Q 2988 519 3436 956 
Q 3884 1394 3884 2338 
Q 3884 3275 3436 3711 
Q 2988 4147 2022 4147 
L 1259 4147 
z
M 628 4666 
L 1925 4666 
Q 3281 4666 3915 4102 
Q 4550 3538 4550 2338 
Q 4550 1131 3912 565 
Q 3275 0 1925 0 
L 628 0 
L 628 4666 
z
" transform="scale(0.015625)"/>
      <path id="DejaVuSans-70" d="M 1159 525 
L 1159 -1331 
L 581 -1331 
L 581 3500 
L 1159 3500 
L 1159 2969 
Q 1341 3281 1617 3432 
Q 1894 3584 2278 3584 
Q 2916 3584 3314 3078 
Q 3713 2572 3713 1747 
Q 3713 922 3314 415 
Q 2916 -91 2278 -91 
Q 1894 -91 1617 61 
Q 1341 213 1159 525 
z
M 3116 1747 
Q 3116 2381 2855 2742 
Q 2594 3103 2138 3103 
Q 1681 3103 1420 2742 
Q 1159 2381 1159 1747 
Q 1159 1113 1420 752 
Q 1681 391 2138 391 
Q 2594 391 2855 752 
Q 3116 1113 3116 1747 
z
" transform="scale(0.015625)"/>
      <path id="DejaVuSans-68" d="M 3513 2113 
L 3513 0 
L 2938 0 
L 2938 2094 
Q 2938 2591 2744 2837 
Q 2550 3084 2163 3084 
Q 1697 3084 1428 2787 
Q 1159 2491 1159 1978 
L 1159 0 
L 581 0 
L 581 4863 
L 1159 4863 
L 1159 2956 
Q 1366 3272 1645 3428 
Q 1925 3584 2291 3584 
Q 2894 3584 3203 3211 
Q 3513 2838 3513 2113 
z
" transform="scale(0.015625)"/>
     </defs>
     <use xlink:href="#DejaVuSans-44"/>
     <use xlink:href="#DejaVuSans-65" x="77.001953"/>
     <use xlink:href="#DejaVuSans-70" x="138.525391"/>
     <use xlink:href="#DejaVuSans-74" x="202.001953"/>
     <use xlink:href="#DejaVuSans-68" x="241.210938"/>
     <use xlink:href="#DejaVuSans-20" x="304.589844"/>
     <use xlink:href="#DejaVuSans-6f" x="336.376953"/>
     <use xlink:href="#DejaVuSans-76" x="397.558594"/>
     <use xlink:href="#DejaVuSans-65" x="456.738281"/>
     <use xlink:href="#DejaVuSans-72" x="518.261719"/>
     <use xlink:href="#DejaVuSans-20" x="559.375"/>
     <use xlink:href="#DejaVuSans-74" x="591.162109"/>
     <use xlink:href="#DejaVuSans-69" x="630.371094"/>
     <use xlink:href="#DejaVuSans-6d" x="658.154297"/>
     <use xlink:href="#DejaVuSans-65" x="755.566406"/>
    </g>
   </g>
  </g>
 </g>
 <defs>
  <clipPath id="pbb916b812f">
   <rect x="36.88" y="26.88" width="816.32" height="144.44"/>
  </clipPath>
  <clipPath id="p686d6c4aa0">
   <rect x="36.88" y="215.28" width="816.32" height="144.44"/>
  </clipPath>
  <clipPath id="p7f489c13d8">
   <rect x="36.88" y="403.68" width="816.32" height="144.44"/>
  </clipPath>
 </defs>
</svg>
