<?xml version="1.0" encoding="utf-8" standalone="no"?>
<!DOCTYPE svg PUBLIC "-//W3C//DTD SVG 1.1//EN"
  "http://www.w3.org/Graphics/SVG/1.1/DTD/svg11.dtd">
<svg xmlns:xlink="http://www.w3.org/1999/xlink" width="864pt" height="576pt" viewBox="0 0 864 576" xmlns="http://www.w3.org/2000/svg" version="1.1">
 <metadata>
  <rdf:RDF xmlns:dc="http://purl.org/dc/elements/1.1/" xmlns:cc="http://creativecommons.org/ns#" xmlns:rdf="http://www.w3.org/1999/02/22-rdf-syntax-ns#">
   <cc:Work>
    <dc:type rdf:resource="http://purl.org/dc/dcmitype/StillImage"/>
    <dc:date>2024-02-15T13:52:30.593427</dc:date>
    <dc:format>image/svg+xml</dc:format>
    <dc:creator>
     <cc:Agent>
      <dc:title>Matplotlib v3.8.0, https://matplotlib.org/</dc:title>
     </cc:Agent>
    </dc:creator>
   </cc:Work>
  </rdf:RDF>
 </metadata>
 <defs>
  <style type="text/css">*{stroke-linejoin: round; stroke-linecap: butt}</style>
 </defs>
 <g id="figure_1">
  <g id="patch_1">
   <path d="M 0 576 
L 864 576 
L 864 0 
L 0 0 
z
" style="fill: #ffffff"/>
  </g>
  <g id="axes_1">
   <g id="patch_2">
    <path d="M 36.88 171.32 
L 853.2 171.32 
L 853.2 26.88 
L 36.88 26.88 
z
" style="fill: #ffffff"/>
   </g>
   <g id="matplotlib.axis_1">
    <g id="xtick_1">
     <g id="line2d_1">
      <defs>
       <path id="m46c6ee06a7" d="M 0 0 
L 0 3.5 
" style="stroke: #000000; stroke-width: 0.8"/>
      </defs>
      <g>
       <use xlink:href="#m46c6ee06a7" x="73.985455" y="171.32" style="stroke: #000000; stroke-width: 0.8"/>
      </g>
     </g>
     <g id="text_1">
      <!-- 0 -->
      <g transform="translate(70.804205 185.918438) scale(0.1 -0.1)">
       <defs>
        <path id="DejaVuSans-30" d="M 2034 4250 
Q 1547 4250 1301 3770 
Q 1056 3291 1056 2328 
Q 1056 1369 1301 889 
Q 1547 409 2034 409 
Q 2525 409 2770 889 
Q 3016 1369 3016 2328 
Q 3016 3291 2770 3770 
Q 2525 4250 2034 4250 
z
M 2034 4750 
Q 2819 4750 3233 4129 
Q 3647 3509 3647 2328 
Q 3647 1150 3233 529 
Q 2819 -91 2034 -91 
Q 1250 -91 836 529 
Q 422 1150 422 2328 
Q 422 3509 836 4129 
Q 1250 4750 2034 4750 
z
" transform="scale(0.015625)"/>
       </defs>
       <use xlink:href="#DejaVuSans-30"/>
      </g>
     </g>
    </g>
    <g id="xtick_2">
     <g id="line2d_2">
      <g>
       <use xlink:href="#m46c6ee06a7" x="207.458313" y="171.32" style="stroke: #000000; stroke-width: 0.8"/>
      </g>
     </g>
     <g id="text_2">
      <!-- 50 -->
      <g transform="translate(201.095813 185.918438) scale(0.1 -0.1)">
       <defs>
        <path id="DejaVuSans-35" d="M 691 4666 
L 3169 4666 
L 3169 4134 
L 1269 4134 
L 1269 2991 
Q 1406 3038 1543 3061 
Q 1681 3084 1819 3084 
Q 2600 3084 3056 2656 
Q 3513 2228 3513 1497 
Q 3513 744 3044 326 
Q 2575 -91 1722 -91 
Q 1428 -91 1123 -41 
Q 819 9 494 109 
L 494 744 
Q 775 591 1075 516 
Q 1375 441 1709 441 
Q 2250 441 2565 725 
Q 2881 1009 2881 1497 
Q 2881 1984 2565 2268 
Q 2250 2553 1709 2553 
Q 1456 2553 1204 2497 
Q 953 2441 691 2322 
L 691 4666 
z
" transform="scale(0.015625)"/>
       </defs>
       <use xlink:href="#DejaVuSans-35"/>
       <use xlink:href="#DejaVuSans-30" x="63.623047"/>
      </g>
     </g>
    </g>
    <g id="xtick_3">
     <g id="line2d_3">
      <g>
       <use xlink:href="#m46c6ee06a7" x="340.931171" y="171.32" style="stroke: #000000; stroke-width: 0.8"/>
      </g>
     </g>
     <g id="text_3">
      <!-- 100 -->
      <g transform="translate(331.387421 185.918438) scale(0.1 -0.1)">
       <defs>
        <path id="DejaVuSans-31" d="M 794 531 
L 1825 531 
L 1825 4091 
L 703 3866 
L 703 4441 
L 1819 4666 
L 2450 4666 
L 2450 531 
L 3481 531 
L 3481 0 
L 794 0 
L 794 531 
z
" transform="scale(0.015625)"/>
       </defs>
       <use xlink:href="#DejaVuSans-31"/>
       <use xlink:href="#DejaVuSans-30" x="63.623047"/>
       <use xlink:href="#DejaVuSans-30" x="127.246094"/>
      </g>
     </g>
    </g>
    <g id="xtick_4">
     <g id="line2d_4">
      <g>
       <use xlink:href="#m46c6ee06a7" x="474.404029" y="171.32" style="stroke: #000000; stroke-width: 0.8"/>
      </g>
     </g>
     <g id="text_4">
      <!-- 150 -->
      <g transform="translate(464.860279 185.918438) scale(0.1 -0.1)">
       <use xlink:href="#DejaVuSans-31"/>
       <use xlink:href="#DejaVuSans-35" x="63.623047"/>
       <use xlink:href="#DejaVuSans-30" x="127.246094"/>
      </g>
     </g>
    </g>
    <g id="xtick_5">
     <g id="line2d_5">
      <g>
       <use xlink:href="#m46c6ee06a7" x="607.876887" y="171.32" style="stroke: #000000; stroke-width: 0.8"/>
      </g>
     </g>
     <g id="text_5">
      <!-- 200 -->
      <g transform="translate(598.333137 185.918438) scale(0.1 -0.1)">
       <defs>
        <path id="DejaVuSans-32" d="M 1228 531 
L 3431 531 
L 3431 0 
L 469 0 
L 469 531 
Q 828 903 1448 1529 
Q 2069 2156 2228 2338 
Q 2531 2678 2651 2914 
Q 2772 3150 2772 3378 
Q 2772 3750 2511 3984 
Q 2250 4219 1831 4219 
Q 1534 4219 1204 4116 
Q 875 4013 500 3803 
L 500 4441 
Q 881 4594 1212 4672 
Q 1544 4750 1819 4750 
Q 2544 4750 2975 4387 
Q 3406 4025 3406 3419 
Q 3406 3131 3298 2873 
Q 3191 2616 2906 2266 
Q 2828 2175 2409 1742 
Q 1991 1309 1228 531 
z
" transform="scale(0.015625)"/>
       </defs>
       <use xlink:href="#DejaVuSans-32"/>
       <use xlink:href="#DejaVuSans-30" x="63.623047"/>
       <use xlink:href="#DejaVuSans-30" x="127.246094"/>
      </g>
     </g>
    </g>
    <g id="xtick_6">
     <g id="line2d_6">
      <g>
       <use xlink:href="#m46c6ee06a7" x="741.349745" y="171.32" style="stroke: #000000; stroke-width: 0.8"/>
      </g>
     </g>
     <g id="text_6">
      <!-- 250 -->
      <g transform="translate(731.805995 185.918438) scale(0.1 -0.1)">
       <use xlink:href="#DejaVuSans-32"/>
       <use xlink:href="#DejaVuSans-35" x="63.623047"/>
       <use xlink:href="#DejaVuSans-30" x="127.246094"/>
      </g>
     </g>
    </g>
   </g>
   <g id="matplotlib.axis_2">
    <g id="ytick_1">
     <g id="line2d_7">
      <defs>
       <path id="m778ff8e08e" d="M 0 0 
L -3.5 0 
" style="stroke: #000000; stroke-width: 0.8"/>
      </defs>
      <g>
       <use xlink:href="#m778ff8e08e" x="36.88" y="164.754545" style="stroke: #000000; stroke-width: 0.8"/>
      </g>
     </g>
     <g id="text_7">
      <!-- 826 -->
      <g transform="translate(10.7925 168.553764) scale(0.1 -0.1)">
       <defs>
        <path id="DejaVuSans-38" d="M 2034 2216 
Q 1584 2216 1326 1975 
Q 1069 1734 1069 1313 
Q 1069 891 1326 650 
Q 1584 409 2034 409 
Q 2484 409 2743 651 
Q 3003 894 3003 1313 
Q 3003 1734 2745 1975 
Q 2488 2216 2034 2216 
z
M 1403 2484 
Q 997 2584 770 2862 
Q 544 3141 544 3541 
Q 544 4100 942 4425 
Q 1341 4750 2034 4750 
Q 2731 4750 3128 4425 
Q 3525 4100 3525 3541 
Q 3525 3141 3298 2862 
Q 3072 2584 2669 2484 
Q 3125 2378 3379 2068 
Q 3634 1759 3634 1313 
Q 3634 634 3220 271 
Q 2806 -91 2034 -91 
Q 1263 -91 848 271 
Q 434 634 434 1313 
Q 434 1759 690 2068 
Q 947 2378 1403 2484 
z
M 1172 3481 
Q 1172 3119 1398 2916 
Q 1625 2713 2034 2713 
Q 2441 2713 2670 2916 
Q 2900 3119 2900 3481 
Q 2900 3844 2670 4047 
Q 2441 4250 2034 4250 
Q 1625 4250 1398 4047 
Q 1172 3844 1172 3481 
z
" transform="scale(0.015625)"/>
        <path id="DejaVuSans-36" d="M 2113 2584 
Q 1688 2584 1439 2293 
Q 1191 2003 1191 1497 
Q 1191 994 1439 701 
Q 1688 409 2113 409 
Q 2538 409 2786 701 
Q 3034 994 3034 1497 
Q 3034 2003 2786 2293 
Q 2538 2584 2113 2584 
z
M 3366 4563 
L 3366 3988 
Q 3128 4100 2886 4159 
Q 2644 4219 2406 4219 
Q 1781 4219 1451 3797 
Q 1122 3375 1075 2522 
Q 1259 2794 1537 2939 
Q 1816 3084 2150 3084 
Q 2853 3084 3261 2657 
Q 3669 2231 3669 1497 
Q 3669 778 3244 343 
Q 2819 -91 2113 -91 
Q 1303 -91 875 529 
Q 447 1150 447 2328 
Q 447 3434 972 4092 
Q 1497 4750 2381 4750 
Q 2619 4750 2861 4703 
Q 3103 4656 3366 4563 
z
" transform="scale(0.015625)"/>
       </defs>
       <use xlink:href="#DejaVuSans-38"/>
       <use xlink:href="#DejaVuSans-32" x="63.623047"/>
       <use xlink:href="#DejaVuSans-36" x="127.246094"/>
      </g>
     </g>
    </g>
    <g id="ytick_2">
     <g id="line2d_8">
      <g>
       <use xlink:href="#m778ff8e08e" x="36.88" y="131.927273" style="stroke: #000000; stroke-width: 0.8"/>
      </g>
     </g>
     <g id="text_8">
      <!-- 827 -->
      <g transform="translate(10.7925 135.726491) scale(0.1 -0.1)">
       <defs>
        <path id="DejaVuSans-37" d="M 525 4666 
L 3525 4666 
L 3525 4397 
L 1831 0 
L 1172 0 
L 2766 4134 
L 525 4134 
L 525 4666 
z
" transform="scale(0.015625)"/>
       </defs>
       <use xlink:href="#DejaVuSans-38"/>
       <use xlink:href="#DejaVuSans-32" x="63.623047"/>
       <use xlink:href="#DejaVuSans-37" x="127.246094"/>
      </g>
     </g>
    </g>
    <g id="ytick_3">
     <g id="line2d_9">
      <g>
       <use xlink:href="#m778ff8e08e" x="36.88" y="99.1" style="stroke: #000000; stroke-width: 0.8"/>
      </g>
     </g>
     <g id="text_9">
      <!-- 828 -->
      <g transform="translate(10.7925 102.899219) scale(0.1 -0.1)">
       <use xlink:href="#DejaVuSans-38"/>
       <use xlink:href="#DejaVuSans-32" x="63.623047"/>
       <use xlink:href="#DejaVuSans-38" x="127.246094"/>
      </g>
     </g>
    </g>
    <g id="ytick_4">
     <g id="line2d_10">
      <g>
       <use xlink:href="#m778ff8e08e" x="36.88" y="66.272727" style="stroke: #000000; stroke-width: 0.8"/>
      </g>
     </g>
     <g id="text_10">
      <!-- 829 -->
      <g transform="translate(10.7925 70.071946) scale(0.1 -0.1)">
       <defs>
        <path id="DejaVuSans-39" d="M 703 97 
L 703 672 
Q 941 559 1184 500 
Q 1428 441 1663 441 
Q 2288 441 2617 861 
Q 2947 1281 2994 2138 
Q 2813 1869 2534 1725 
Q 2256 1581 1919 1581 
Q 1219 1581 811 2004 
Q 403 2428 403 3163 
Q 403 3881 828 4315 
Q 1253 4750 1959 4750 
Q 2769 4750 3195 4129 
Q 3622 3509 3622 2328 
Q 3622 1225 3098 567 
Q 2575 -91 1691 -91 
Q 1453 -91 1209 -44 
Q 966 3 703 97 
z
M 1959 2075 
Q 2384 2075 2632 2365 
Q 2881 2656 2881 3163 
Q 2881 3666 2632 3958 
Q 2384 4250 1959 4250 
Q 1534 4250 1286 3958 
Q 1038 3666 1038 3163 
Q 1038 2656 1286 2365 
Q 1534 2075 1959 2075 
z
" transform="scale(0.015625)"/>
       </defs>
       <use xlink:href="#DejaVuSans-38"/>
       <use xlink:href="#DejaVuSans-32" x="63.623047"/>
       <use xlink:href="#DejaVuSans-39" x="127.246094"/>
      </g>
     </g>
    </g>
    <g id="ytick_5">
     <g id="line2d_11">
      <g>
       <use xlink:href="#m778ff8e08e" x="36.88" y="33.445455" style="stroke: #000000; stroke-width: 0.8"/>
      </g>
     </g>
     <g id="text_11">
      <!-- 830 -->
      <g transform="translate(10.7925 37.244673) scale(0.1 -0.1)">
       <defs>
        <path id="DejaVuSans-33" d="M 2597 2516 
Q 3050 2419 3304 2112 
Q 3559 1806 3559 1356 
Q 3559 666 3084 287 
Q 2609 -91 1734 -91 
Q 1441 -91 1130 -33 
Q 819 25 488 141 
L 488 750 
Q 750 597 1062 519 
Q 1375 441 1716 441 
Q 2309 441 2620 675 
Q 2931 909 2931 1356 
Q 2931 1769 2642 2001 
Q 2353 2234 1838 2234 
L 1294 2234 
L 1294 2753 
L 1863 2753 
Q 2328 2753 2575 2939 
Q 2822 3125 2822 3475 
Q 2822 3834 2567 4026 
Q 2313 4219 1838 4219 
Q 1578 4219 1281 4162 
Q 984 4106 628 3988 
L 628 4550 
Q 988 4650 1302 4700 
Q 1616 4750 1894 4750 
Q 2613 4750 3031 4423 
Q 3450 4097 3450 3541 
Q 3450 3153 3228 2886 
Q 3006 2619 2597 2516 
z
" transform="scale(0.015625)"/>
       </defs>
       <use xlink:href="#DejaVuSans-38"/>
       <use xlink:href="#DejaVuSans-33" x="63.623047"/>
       <use xlink:href="#DejaVuSans-30" x="127.246094"/>
      </g>
     </g>
    </g>
   </g>
   <g id="line2d_12">
    <path d="M 73.985455 99.1 
L 76.654912 99.1 
L 79.324369 66.272727 
L 81.993826 99.1 
L 84.663283 66.272727 
L 87.33274 66.272727 
L 90.002198 99.1 
L 124.705141 99.1 
L 127.374598 66.272727 
L 130.044055 99.1 
L 132.713512 99.1 
L 135.382969 66.272727 
L 138.052426 99.1 
L 140.721884 99.1 
L 143.391341 66.272727 
L 146.060798 99.1 
L 148.730255 99.1 
L 151.399712 66.272727 
L 156.738627 66.272727 
L 159.408084 99.1 
L 167.416455 99.1 
L 170.085912 33.445455 
L 172.75537 99.1 
L 175.424827 66.272727 
L 178.094284 99.1 
L 180.763741 66.272727 
L 202.119398 66.272727 
L 207.458313 131.927273 
L 210.12777 66.272727 
L 212.797227 66.272727 
L 215.466684 99.1 
L 218.136141 66.272727 
L 220.805598 66.272727 
L 223.475056 99.1 
L 226.144513 66.272727 
L 228.81397 66.272727 
L 231.483427 99.1 
L 234.152884 66.272727 
L 236.822341 66.272727 
L 239.491799 99.1 
L 244.830713 99.1 
L 247.50017 66.272727 
L 252.839084 66.272727 
L 255.508542 99.1 
L 258.177999 66.272727 
L 268.855827 66.272727 
L 271.525284 99.1 
L 274.194742 66.272727 
L 279.533656 66.272727 
L 282.203113 99.1 
L 284.87257 66.272727 
L 287.542027 66.272727 
L 290.211485 99.1 
L 292.880942 66.272727 
L 295.550399 99.1 
L 298.219856 66.272727 
L 306.228228 66.272727 
L 308.897685 99.1 
L 311.567142 66.272727 
L 314.236599 99.1 
L 316.906056 66.272727 
L 322.244971 66.272727 
L 324.914428 99.1 
L 327.583885 66.272727 
L 335.592256 66.272727 
L 338.261714 99.1 
L 340.931171 99.1 
L 343.600628 66.272727 
L 346.270085 99.1 
L 348.939542 66.272727 
L 351.608999 99.1 
L 354.278457 99.1 
L 356.947914 66.272727 
L 359.617371 99.1 
L 370.295199 99.1 
L 372.964657 66.272727 
L 378.303571 66.272727 
L 380.973028 99.1 
L 388.9814 99.1 
L 391.650857 66.272727 
L 394.320314 99.1 
L 402.328685 99.1 
L 404.998143 66.272727 
L 407.6676 99.1 
L 413.006514 99.1 
L 415.675971 66.272727 
L 418.345428 99.1 
L 421.014886 99.1 
L 423.684343 66.272727 
L 426.3538 99.1 
L 431.692714 99.1 
L 434.362171 66.272727 
L 437.031629 99.1 
L 442.370543 99.1 
L 445.04 66.272727 
L 447.709457 66.272727 
L 450.378914 99.1 
L 453.048371 66.272727 
L 455.717829 99.1 
L 458.387286 66.272727 
L 461.056743 99.1 
L 463.7262 99.1 
L 466.395657 66.272727 
L 469.065114 99.1 
L 471.734572 99.1 
L 474.404029 66.272727 
L 477.073486 66.272727 
L 479.742943 33.445455 
L 482.4124 99.1 
L 485.081857 99.1 
L 487.751315 66.272727 
L 490.420772 99.1 
L 493.090229 66.272727 
L 495.759686 99.1 
L 498.429143 66.272727 
L 501.0986 66.272727 
L 503.768058 99.1 
L 506.437515 66.272727 
L 511.776429 131.927273 
L 517.115343 66.272727 
L 519.784801 99.1 
L 522.454258 66.272727 
L 525.123715 66.272727 
L 527.793172 99.1 
L 530.462629 99.1 
L 533.132086 66.272727 
L 535.801543 66.272727 
L 538.471001 131.927273 
L 543.809915 66.272727 
L 546.479372 99.1 
L 549.148829 66.272727 
L 557.157201 66.272727 
L 559.826658 99.1 
L 565.165572 99.1 
L 567.835029 131.927273 
L 570.504487 66.272727 
L 573.173944 99.1 
L 575.843401 99.1 
L 578.512858 66.272727 
L 581.182315 66.272727 
L 583.851772 99.1 
L 586.52123 66.272727 
L 589.190687 99.1 
L 594.529601 99.1 
L 597.199058 66.272727 
L 599.868515 99.1 
L 602.537973 66.272727 
L 605.20743 99.1 
L 607.876887 66.272727 
L 610.546344 99.1 
L 613.215801 99.1 
L 615.885258 131.927273 
L 621.224173 66.272727 
L 623.89363 99.1 
L 626.563087 66.272727 
L 631.902001 66.272727 
L 634.571458 99.1 
L 637.240916 66.272727 
L 639.910373 99.1 
L 650.588201 99.1 
L 653.257659 66.272727 
L 658.596573 66.272727 
L 661.26603 99.1 
L 663.935487 66.272727 
L 666.604944 99.1 
L 669.274402 99.1 
L 671.943859 164.754545 
L 674.613316 66.272727 
L 677.282773 66.272727 
L 679.95223 99.1 
L 685.291145 99.1 
L 687.960602 66.272727 
L 690.630059 99.1 
L 693.299516 66.272727 
L 695.968973 99.1 
L 701.307888 99.1 
L 703.977345 66.272727 
L 706.646802 99.1 
L 709.316259 99.1 
L 711.985716 66.272727 
L 714.655173 99.1 
L 717.32463 66.272727 
L 725.333002 66.272727 
L 728.002459 99.1 
L 730.671916 66.272727 
L 738.680288 66.272727 
L 744.019202 131.927273 
L 749.358116 66.272727 
L 752.027574 99.1 
L 754.697031 66.272727 
L 762.705402 66.272727 
L 765.374859 99.1 
L 768.044317 66.272727 
L 770.713774 66.272727 
L 773.383231 99.1 
L 776.052688 99.1 
L 778.722145 66.272727 
L 781.391602 99.1 
L 784.06106 99.1 
L 786.730517 66.272727 
L 794.738888 66.272727 
L 797.408345 99.1 
L 800.077802 99.1 
L 802.74726 66.272727 
L 805.416717 99.1 
L 808.086174 66.272727 
L 810.755631 99.1 
L 813.425088 66.272727 
L 816.094545 66.272727 
L 816.094545 66.272727 
" clip-path="url(#p70d11e1000)" style="fill: none; stroke: #1f77b4; stroke-width: 1.5; stroke-linecap: square"/>
   </g>
   <g id="patch_3">
    <path d="M 36.88 171.32 
L 36.88 26.88 
" style="fill: none; stroke: #000000; stroke-width: 0.8; stroke-linejoin: miter; stroke-linecap: square"/>
   </g>
   <g id="patch_4">
    <path d="M 853.2 171.32 
L 853.2 26.88 
" style="fill: none; stroke: #000000; stroke-width: 0.8; stroke-linejoin: miter; stroke-linecap: square"/>
   </g>
   <g id="patch_5">
    <path d="M 36.88 171.32 
L 853.2 171.32 
" style="fill: none; stroke: #000000; stroke-width: 0.8; stroke-linejoin: miter; stroke-linecap: square"/>
   </g>
   <g id="patch_6">
    <path d="M 36.88 26.88 
L 853.2 26.88 
" style="fill: none; stroke: #000000; stroke-width: 0.8; stroke-linejoin: miter; stroke-linecap: square"/>
   </g>
   <g id="text_12">
    <!-- x-ordinate over time -->
    <g transform="translate(383.429375 20.88) scale(0.12 -0.12)">
     <defs>
      <path id="DejaVuSans-78" d="M 3513 3500 
L 2247 1797 
L 3578 0 
L 2900 0 
L 1881 1375 
L 863 0 
L 184 0 
L 1544 1831 
L 300 3500 
L 978 3500 
L 1906 2253 
L 2834 3500 
L 3513 3500 
z
" transform="scale(0.015625)"/>
      <path id="DejaVuSans-2d" d="M 313 2009 
L 1997 2009 
L 1997 1497 
L 313 1497 
L 313 2009 
z
" transform="scale(0.015625)"/>
      <path id="DejaVuSans-6f" d="M 1959 3097 
Q 1497 3097 1228 2736 
Q 959 2375 959 1747 
Q 959 1119 1226 758 
Q 1494 397 1959 397 
Q 2419 397 2687 759 
Q 2956 1122 2956 1747 
Q 2956 2369 2687 2733 
Q 2419 3097 1959 3097 
z
M 1959 3584 
Q 2709 3584 3137 3096 
Q 3566 2609 3566 1747 
Q 3566 888 3137 398 
Q 2709 -91 1959 -91 
Q 1206 -91 779 398 
Q 353 888 353 1747 
Q 353 2609 779 3096 
Q 1206 3584 1959 3584 
z
" transform="scale(0.015625)"/>
      <path id="DejaVuSans-72" d="M 2631 2963 
Q 2534 3019 2420 3045 
Q 2306 3072 2169 3072 
Q 1681 3072 1420 2755 
Q 1159 2438 1159 1844 
L 1159 0 
L 581 0 
L 581 3500 
L 1159 3500 
L 1159 2956 
Q 1341 3275 1631 3429 
Q 1922 3584 2338 3584 
Q 2397 3584 2469 3576 
Q 2541 3569 2628 3553 
L 2631 2963 
z
" transform="scale(0.015625)"/>
      <path id="DejaVuSans-64" d="M 2906 2969 
L 2906 4863 
L 3481 4863 
L 3481 0 
L 2906 0 
L 2906 525 
Q 2725 213 2448 61 
Q 2172 -91 1784 -91 
Q 1150 -91 751 415 
Q 353 922 353 1747 
Q 353 2572 751 3078 
Q 1150 3584 1784 3584 
Q 2172 3584 2448 3432 
Q 2725 3281 2906 2969 
z
M 947 1747 
Q 947 1113 1208 752 
Q 1469 391 1925 391 
Q 2381 391 2643 752 
Q 2906 1113 2906 1747 
Q 2906 2381 2643 2742 
Q 2381 3103 1925 3103 
Q 1469 3103 1208 2742 
Q 947 2381 947 1747 
z
" transform="scale(0.015625)"/>
      <path id="DejaVuSans-69" d="M 603 3500 
L 1178 3500 
L 1178 0 
L 603 0 
L 603 3500 
z
M 603 4863 
L 1178 4863 
L 1178 4134 
L 603 4134 
L 603 4863 
z
" transform="scale(0.015625)"/>
      <path id="DejaVuSans-6e" d="M 3513 2113 
L 3513 0 
L 2938 0 
L 2938 2094 
Q 2938 2591 2744 2837 
Q 2550 3084 2163 3084 
Q 1697 3084 1428 2787 
Q 1159 2491 1159 1978 
L 1159 0 
L 581 0 
L 581 3500 
L 1159 3500 
L 1159 2956 
Q 1366 3272 1645 3428 
Q 1925 3584 2291 3584 
Q 2894 3584 3203 3211 
Q 3513 2838 3513 2113 
z
" transform="scale(0.015625)"/>
      <path id="DejaVuSans-61" d="M 2194 1759 
Q 1497 1759 1228 1600 
Q 959 1441 959 1056 
Q 959 750 1161 570 
Q 1363 391 1709 391 
Q 2188 391 2477 730 
Q 2766 1069 2766 1631 
L 2766 1759 
L 2194 1759 
z
M 3341 1997 
L 3341 0 
L 2766 0 
L 2766 531 
Q 2569 213 2275 61 
Q 1981 -91 1556 -91 
Q 1019 -91 701 211 
Q 384 513 384 1019 
Q 384 1609 779 1909 
Q 1175 2209 1959 2209 
L 2766 2209 
L 2766 2266 
Q 2766 2663 2505 2880 
Q 2244 3097 1772 3097 
Q 1472 3097 1187 3025 
Q 903 2953 641 2809 
L 641 3341 
Q 956 3463 1253 3523 
Q 1550 3584 1831 3584 
Q 2591 3584 2966 3190 
Q 3341 2797 3341 1997 
z
" transform="scale(0.015625)"/>
      <path id="DejaVuSans-74" d="M 1172 4494 
L 1172 3500 
L 2356 3500 
L 2356 3053 
L 1172 3053 
L 1172 1153 
Q 1172 725 1289 603 
Q 1406 481 1766 481 
L 2356 481 
L 2356 0 
L 1766 0 
Q 1100 0 847 248 
Q 594 497 594 1153 
L 594 3053 
L 172 3053 
L 172 3500 
L 594 3500 
L 594 4494 
L 1172 4494 
z
" transform="scale(0.015625)"/>
      <path id="DejaVuSans-65" d="M 3597 1894 
L 3597 1613 
L 953 1613 
Q 991 1019 1311 708 
Q 1631 397 2203 397 
Q 2534 397 2845 478 
Q 3156 559 3463 722 
L 3463 178 
Q 3153 47 2828 -22 
Q 2503 -91 2169 -91 
Q 1331 -91 842 396 
Q 353 884 353 1716 
Q 353 2575 817 3079 
Q 1281 3584 2069 3584 
Q 2775 3584 3186 3129 
Q 3597 2675 3597 1894 
z
M 3022 2063 
Q 3016 2534 2758 2815 
Q 2500 3097 2075 3097 
Q 1594 3097 1305 2825 
Q 1016 2553 972 2059 
L 3022 2063 
z
" transform="scale(0.015625)"/>
      <path id="DejaVuSans-20" transform="scale(0.015625)"/>
      <path id="DejaVuSans-76" d="M 191 3500 
L 800 3500 
L 1894 563 
L 2988 3500 
L 3597 3500 
L 2284 0 
L 1503 0 
L 191 3500 
z
" transform="scale(0.015625)"/>
      <path id="DejaVuSans-6d" d="M 3328 2828 
Q 3544 3216 3844 3400 
Q 4144 3584 4550 3584 
Q 5097 3584 5394 3201 
Q 5691 2819 5691 2113 
L 5691 0 
L 5113 0 
L 5113 2094 
Q 5113 2597 4934 2840 
Q 4756 3084 4391 3084 
Q 3944 3084 3684 2787 
Q 3425 2491 3425 1978 
L 3425 0 
L 2847 0 
L 2847 2094 
Q 2847 2600 2669 2842 
Q 2491 3084 2119 3084 
Q 1678 3084 1418 2786 
Q 1159 2488 1159 1978 
L 1159 0 
L 581 0 
L 581 3500 
L 1159 3500 
L 1159 2956 
Q 1356 3278 1631 3431 
Q 1906 3584 2284 3584 
Q 2666 3584 2933 3390 
Q 3200 3197 3328 2828 
z
" transform="scale(0.015625)"/>
     </defs>
     <use xlink:href="#DejaVuSans-78"/>
     <use xlink:href="#DejaVuSans-2d" x="59.179688"/>
     <use xlink:href="#DejaVuSans-6f" x="97.138672"/>
     <use xlink:href="#DejaVuSans-72" x="158.320312"/>
     <use xlink:href="#DejaVuSans-64" x="197.683594"/>
     <use xlink:href="#DejaVuSans-69" x="261.160156"/>
     <use xlink:href="#DejaVuSans-6e" x="288.943359"/>
     <use xlink:href="#DejaVuSans-61" x="352.322266"/>
     <use xlink:href="#DejaVuSans-74" x="413.601562"/>
     <use xlink:href="#DejaVuSans-65" x="452.810547"/>
     <use xlink:href="#DejaVuSans-20" x="514.333984"/>
     <use xlink:href="#DejaVuSans-6f" x="546.121094"/>
     <use xlink:href="#DejaVuSans-76" x="607.302734"/>
     <use xlink:href="#DejaVuSans-65" x="666.482422"/>
     <use xlink:href="#DejaVuSans-72" x="728.005859"/>
     <use xlink:href="#DejaVuSans-20" x="769.119141"/>
     <use xlink:href="#DejaVuSans-74" x="800.90625"/>
     <use xlink:href="#DejaVuSans-69" x="840.115234"/>
     <use xlink:href="#DejaVuSans-6d" x="867.898438"/>
     <use xlink:href="#DejaVuSans-65" x="965.310547"/>
    </g>
   </g>
  </g>
  <g id="axes_2">
   <g id="patch_7">
    <path d="M 36.88 359.72 
L 853.2 359.72 
L 853.2 215.28 
L 36.88 215.28 
z
" style="fill: #ffffff"/>
   </g>
   <g id="matplotlib.axis_3">
    <g id="xtick_7">
     <g id="line2d_13">
      <g>
       <use xlink:href="#m46c6ee06a7" x="73.985455" y="359.72" style="stroke: #000000; stroke-width: 0.8"/>
      </g>
     </g>
     <g id="text_13">
      <!-- 0 -->
      <g transform="translate(70.804205 374.318438) scale(0.1 -0.1)">
       <use xlink:href="#DejaVuSans-30"/>
      </g>
     </g>
    </g>
    <g id="xtick_8">
     <g id="line2d_14">
      <g>
       <use xlink:href="#m46c6ee06a7" x="207.458313" y="359.72" style="stroke: #000000; stroke-width: 0.8"/>
      </g>
     </g>
     <g id="text_14">
      <!-- 50 -->
      <g transform="translate(201.095813 374.318438) scale(0.1 -0.1)">
       <use xlink:href="#DejaVuSans-35"/>
       <use xlink:href="#DejaVuSans-30" x="63.623047"/>
      </g>
     </g>
    </g>
    <g id="xtick_9">
     <g id="line2d_15">
      <g>
       <use xlink:href="#m46c6ee06a7" x="340.931171" y="359.72" style="stroke: #000000; stroke-width: 0.8"/>
      </g>
     </g>
     <g id="text_15">
      <!-- 100 -->
      <g transform="translate(331.387421 374.318438) scale(0.1 -0.1)">
       <use xlink:href="#DejaVuSans-31"/>
       <use xlink:href="#DejaVuSans-30" x="63.623047"/>
       <use xlink:href="#DejaVuSans-30" x="127.246094"/>
      </g>
     </g>
    </g>
    <g id="xtick_10">
     <g id="line2d_16">
      <g>
       <use xlink:href="#m46c6ee06a7" x="474.404029" y="359.72" style="stroke: #000000; stroke-width: 0.8"/>
      </g>
     </g>
     <g id="text_16">
      <!-- 150 -->
      <g transform="translate(464.860279 374.318438) scale(0.1 -0.1)">
       <use xlink:href="#DejaVuSans-31"/>
       <use xlink:href="#DejaVuSans-35" x="63.623047"/>
       <use xlink:href="#DejaVuSans-30" x="127.246094"/>
      </g>
     </g>
    </g>
    <g id="xtick_11">
     <g id="line2d_17">
      <g>
       <use xlink:href="#m46c6ee06a7" x="607.876887" y="359.72" style="stroke: #000000; stroke-width: 0.8"/>
      </g>
     </g>
     <g id="text_17">
      <!-- 200 -->
      <g transform="translate(598.333137 374.318438) scale(0.1 -0.1)">
       <use xlink:href="#DejaVuSans-32"/>
       <use xlink:href="#DejaVuSans-30" x="63.623047"/>
       <use xlink:href="#DejaVuSans-30" x="127.246094"/>
      </g>
     </g>
    </g>
    <g id="xtick_12">
     <g id="line2d_18">
      <g>
       <use xlink:href="#m46c6ee06a7" x="741.349745" y="359.72" style="stroke: #000000; stroke-width: 0.8"/>
      </g>
     </g>
     <g id="text_18">
      <!-- 250 -->
      <g transform="translate(731.805995 374.318438) scale(0.1 -0.1)">
       <use xlink:href="#DejaVuSans-32"/>
       <use xlink:href="#DejaVuSans-35" x="63.623047"/>
       <use xlink:href="#DejaVuSans-30" x="127.246094"/>
      </g>
     </g>
    </g>
   </g>
   <g id="matplotlib.axis_4">
    <g id="ytick_6">
     <g id="line2d_19">
      <g>
       <use xlink:href="#m778ff8e08e" x="36.88" y="353.154545" style="stroke: #000000; stroke-width: 0.8"/>
      </g>
     </g>
     <g id="text_19">
      <!-- 171 -->
      <g transform="translate(10.7925 356.953764) scale(0.1 -0.1)">
       <use xlink:href="#DejaVuSans-31"/>
       <use xlink:href="#DejaVuSans-37" x="63.623047"/>
       <use xlink:href="#DejaVuSans-31" x="127.246094"/>
      </g>
     </g>
    </g>
    <g id="ytick_7">
     <g id="line2d_20">
      <g>
       <use xlink:href="#m778ff8e08e" x="36.88" y="320.327273" style="stroke: #000000; stroke-width: 0.8"/>
      </g>
     </g>
     <g id="text_20">
      <!-- 172 -->
      <g transform="translate(10.7925 324.126491) scale(0.1 -0.1)">
       <use xlink:href="#DejaVuSans-31"/>
       <use xlink:href="#DejaVuSans-37" x="63.623047"/>
       <use xlink:href="#DejaVuSans-32" x="127.246094"/>
      </g>
     </g>
    </g>
    <g id="ytick_8">
     <g id="line2d_21">
      <g>
       <use xlink:href="#m778ff8e08e" x="36.88" y="287.5" style="stroke: #000000; stroke-width: 0.8"/>
      </g>
     </g>
     <g id="text_21">
      <!-- 173 -->
      <g transform="translate(10.7925 291.299219) scale(0.1 -0.1)">
       <use xlink:href="#DejaVuSans-31"/>
       <use xlink:href="#DejaVuSans-37" x="63.623047"/>
       <use xlink:href="#DejaVuSans-33" x="127.246094"/>
      </g>
     </g>
    </g>
    <g id="ytick_9">
     <g id="line2d_22">
      <g>
       <use xlink:href="#m778ff8e08e" x="36.88" y="254.672727" style="stroke: #000000; stroke-width: 0.8"/>
      </g>
     </g>
     <g id="text_22">
      <!-- 174 -->
      <g transform="translate(10.7925 258.471946) scale(0.1 -0.1)">
       <defs>
        <path id="DejaVuSans-34" d="M 2419 4116 
L 825 1625 
L 2419 1625 
L 2419 4116 
z
M 2253 4666 
L 3047 4666 
L 3047 1625 
L 3713 1625 
L 3713 1100 
L 3047 1100 
L 3047 0 
L 2419 0 
L 2419 1100 
L 313 1100 
L 313 1709 
L 2253 4666 
z
" transform="scale(0.015625)"/>
       </defs>
       <use xlink:href="#DejaVuSans-31"/>
       <use xlink:href="#DejaVuSans-37" x="63.623047"/>
       <use xlink:href="#DejaVuSans-34" x="127.246094"/>
      </g>
     </g>
    </g>
    <g id="ytick_10">
     <g id="line2d_23">
      <g>
       <use xlink:href="#m778ff8e08e" x="36.88" y="221.845455" style="stroke: #000000; stroke-width: 0.8"/>
      </g>
     </g>
     <g id="text_23">
      <!-- 175 -->
      <g transform="translate(10.7925 225.644673) scale(0.1 -0.1)">
       <use xlink:href="#DejaVuSans-31"/>
       <use xlink:href="#DejaVuSans-37" x="63.623047"/>
       <use xlink:href="#DejaVuSans-35" x="127.246094"/>
      </g>
     </g>
    </g>
   </g>
   <g id="line2d_24">
    <path d="M 73.985455 320.327273 
L 76.654912 287.5 
L 79.324369 353.154545 
L 81.993826 287.5 
L 84.663283 320.327273 
L 87.33274 287.5 
L 90.002198 320.327273 
L 92.671655 254.672727 
L 98.010569 320.327273 
L 100.680026 320.327273 
L 106.01894 254.672727 
L 111.357855 320.327273 
L 116.696769 320.327273 
L 119.366226 287.5 
L 122.035683 320.327273 
L 124.705141 287.5 
L 127.374598 320.327273 
L 130.044055 320.327273 
L 135.382969 254.672727 
L 138.052426 320.327273 
L 146.060798 320.327273 
L 148.730255 287.5 
L 151.399712 287.5 
L 154.069169 353.154545 
L 156.738627 320.327273 
L 164.746998 320.327273 
L 167.416455 287.5 
L 170.085912 320.327273 
L 175.424827 320.327273 
L 178.094284 287.5 
L 180.763741 221.845455 
L 183.433198 287.5 
L 191.44157 287.5 
L 194.111027 320.327273 
L 196.780484 320.327273 
L 199.449941 254.672727 
L 202.119398 320.327273 
L 204.788855 320.327273 
L 207.458313 221.845455 
L 210.12777 287.5 
L 212.797227 254.672727 
L 215.466684 287.5 
L 218.136141 287.5 
L 220.805598 320.327273 
L 223.475056 320.327273 
L 226.144513 287.5 
L 228.81397 353.154545 
L 231.483427 320.327273 
L 236.822341 320.327273 
L 239.491799 287.5 
L 242.161256 320.327273 
L 244.830713 320.327273 
L 247.50017 254.672727 
L 255.508542 353.154545 
L 258.177999 287.5 
L 260.847456 254.672727 
L 263.516913 320.327273 
L 266.18637 320.327273 
L 268.855827 287.5 
L 271.525284 320.327273 
L 274.194742 287.5 
L 276.864199 320.327273 
L 279.533656 287.5 
L 282.203113 221.845455 
L 284.87257 287.5 
L 287.542027 320.327273 
L 290.211485 287.5 
L 303.55877 287.5 
L 306.228228 320.327273 
L 308.897685 320.327273 
L 311.567142 287.5 
L 319.575513 287.5 
L 322.244971 254.672727 
L 324.914428 287.5 
L 330.253342 287.5 
L 332.922799 320.327273 
L 335.592256 287.5 
L 338.261714 287.5 
L 340.931171 254.672727 
L 343.600628 287.5 
L 346.270085 287.5 
L 348.939542 320.327273 
L 351.608999 287.5 
L 356.947914 287.5 
L 359.617371 320.327273 
L 364.956285 320.327273 
L 367.625742 254.672727 
L 370.295199 320.327273 
L 372.964657 221.845455 
L 375.634114 320.327273 
L 378.303571 287.5 
L 383.642485 287.5 
L 386.311942 320.327273 
L 388.9814 287.5 
L 391.650857 320.327273 
L 394.320314 287.5 
L 396.989771 287.5 
L 399.659228 353.154545 
L 404.998143 287.5 
L 407.6676 287.5 
L 410.337057 320.327273 
L 413.006514 320.327273 
L 415.675971 287.5 
L 418.345428 320.327273 
L 421.014886 287.5 
L 423.684343 320.327273 
L 429.023257 320.327273 
L 431.692714 287.5 
L 434.362171 320.327273 
L 437.031629 320.327273 
L 439.701086 287.5 
L 442.370543 221.845455 
L 445.04 287.5 
L 447.709457 320.327273 
L 450.378914 320.327273 
L 453.048371 287.5 
L 455.717829 320.327273 
L 463.7262 320.327273 
L 466.395657 353.154545 
L 469.065114 287.5 
L 471.734572 320.327273 
L 474.404029 320.327273 
L 477.073486 254.672727 
L 479.742943 320.327273 
L 482.4124 353.154545 
L 485.081857 320.327273 
L 495.759686 320.327273 
L 498.429143 287.5 
L 501.0986 320.327273 
L 511.776429 320.327273 
L 514.445886 287.5 
L 517.115343 320.327273 
L 519.784801 254.672727 
L 522.454258 320.327273 
L 530.462629 320.327273 
L 533.132086 287.5 
L 535.801543 353.154545 
L 538.471001 221.845455 
L 543.809915 287.5 
L 546.479372 254.672727 
L 551.818286 320.327273 
L 554.487744 320.327273 
L 557.157201 287.5 
L 559.826658 287.5 
L 562.496115 254.672727 
L 565.165572 254.672727 
L 567.835029 320.327273 
L 573.173944 320.327273 
L 575.843401 221.845455 
L 578.512858 287.5 
L 581.182315 320.327273 
L 583.851772 254.672727 
L 586.52123 320.327273 
L 589.190687 287.5 
L 591.860144 221.845455 
L 594.529601 287.5 
L 597.199058 320.327273 
L 599.868515 320.327273 
L 602.537973 287.5 
L 605.20743 320.327273 
L 607.876887 254.672727 
L 610.546344 287.5 
L 613.215801 287.5 
L 615.885258 320.327273 
L 621.224173 320.327273 
L 623.89363 287.5 
L 626.563087 287.5 
L 629.232544 320.327273 
L 631.902001 287.5 
L 634.571458 320.327273 
L 637.240916 254.672727 
L 642.57983 254.672727 
L 645.249287 320.327273 
L 650.588201 320.327273 
L 653.257659 287.5 
L 655.927116 353.154545 
L 661.26603 287.5 
L 666.604944 287.5 
L 669.274402 320.327273 
L 671.943859 287.5 
L 674.613316 287.5 
L 677.282773 353.154545 
L 679.95223 287.5 
L 682.621687 320.327273 
L 685.291145 320.327273 
L 687.960602 287.5 
L 690.630059 287.5 
L 693.299516 320.327273 
L 695.968973 287.5 
L 698.63843 320.327273 
L 701.307888 254.672727 
L 703.977345 254.672727 
L 706.646802 320.327273 
L 709.316259 320.327273 
L 711.985716 287.5 
L 714.655173 320.327273 
L 722.663545 320.327273 
L 730.671916 221.845455 
L 733.341373 254.672727 
L 736.010831 254.672727 
L 738.680288 287.5 
L 741.349745 287.5 
L 744.019202 254.672727 
L 746.688659 254.672727 
L 749.358116 320.327273 
L 773.383231 320.327273 
L 776.052688 287.5 
L 778.722145 320.327273 
L 794.738888 320.327273 
L 797.408345 254.672727 
L 800.077802 320.327273 
L 802.74726 320.327273 
L 808.086174 254.672727 
L 810.755631 287.5 
L 813.425088 287.5 
L 816.094545 320.327273 
L 816.094545 320.327273 
" clip-path="url(#p21ca0f0562)" style="fill: none; stroke: #1f77b4; stroke-width: 1.5; stroke-linecap: square"/>
   </g>
   <g id="patch_8">
    <path d="M 36.88 359.72 
L 36.88 215.28 
" style="fill: none; stroke: #000000; stroke-width: 0.8; stroke-linejoin: miter; stroke-linecap: square"/>
   </g>
   <g id="patch_9">
    <path d="M 853.2 359.72 
L 853.2 215.28 
" style="fill: none; stroke: #000000; stroke-width: 0.8; stroke-linejoin: miter; stroke-linecap: square"/>
   </g>
   <g id="patch_10">
    <path d="M 36.88 359.72 
L 853.2 359.72 
" style="fill: none; stroke: #000000; stroke-width: 0.8; stroke-linejoin: miter; stroke-linecap: square"/>
   </g>
   <g id="patch_11">
    <path d="M 36.88 215.28 
L 853.2 215.28 
" style="fill: none; stroke: #000000; stroke-width: 0.8; stroke-linejoin: miter; stroke-linecap: square"/>
   </g>
   <g id="text_24">
    <!-- y-ordinate over time -->
    <g transform="translate(383.534375 209.28) scale(0.12 -0.12)">
     <defs>
      <path id="DejaVuSans-79" d="M 2059 -325 
Q 1816 -950 1584 -1140 
Q 1353 -1331 966 -1331 
L 506 -1331 
L 506 -850 
L 844 -850 
Q 1081 -850 1212 -737 
Q 1344 -625 1503 -206 
L 1606 56 
L 191 3500 
L 800 3500 
L 1894 763 
L 2988 3500 
L 3597 3500 
L 2059 -325 
z
" transform="scale(0.015625)"/>
     </defs>
     <use xlink:href="#DejaVuSans-79"/>
     <use xlink:href="#DejaVuSans-2d" x="57.429688"/>
     <use xlink:href="#DejaVuSans-6f" x="95.388672"/>
     <use xlink:href="#DejaVuSans-72" x="156.570312"/>
     <use xlink:href="#DejaVuSans-64" x="195.933594"/>
     <use xlink:href="#DejaVuSans-69" x="259.410156"/>
     <use xlink:href="#DejaVuSans-6e" x="287.193359"/>
     <use xlink:href="#DejaVuSans-61" x="350.572266"/>
     <use xlink:href="#DejaVuSans-74" x="411.851562"/>
     <use xlink:href="#DejaVuSans-65" x="451.060547"/>
     <use xlink:href="#DejaVuSans-20" x="512.583984"/>
     <use xlink:href="#DejaVuSans-6f" x="544.371094"/>
     <use xlink:href="#DejaVuSans-76" x="605.552734"/>
     <use xlink:href="#DejaVuSans-65" x="664.732422"/>
     <use xlink:href="#DejaVuSans-72" x="726.255859"/>
     <use xlink:href="#DejaVuSans-20" x="767.369141"/>
     <use xlink:href="#DejaVuSans-74" x="799.15625"/>
     <use xlink:href="#DejaVuSans-69" x="838.365234"/>
     <use xlink:href="#DejaVuSans-6d" x="866.148438"/>
     <use xlink:href="#DejaVuSans-65" x="963.560547"/>
    </g>
   </g>
  </g>
  <g id="axes_3">
   <g id="patch_12">
    <path d="M 36.88 548.12 
L 853.2 548.12 
L 853.2 403.68 
L 36.88 403.68 
z
" style="fill: #ffffff"/>
   </g>
   <g id="matplotlib.axis_5">
    <g id="xtick_13">
     <g id="line2d_25">
      <g>
       <use xlink:href="#m46c6ee06a7" x="73.985455" y="548.12" style="stroke: #000000; stroke-width: 0.8"/>
      </g>
     </g>
     <g id="text_25">
      <!-- 0 -->
      <g transform="translate(70.804205 562.718437) scale(0.1 -0.1)">
       <use xlink:href="#DejaVuSans-30"/>
      </g>
     </g>
    </g>
    <g id="xtick_14">
     <g id="line2d_26">
      <g>
       <use xlink:href="#m46c6ee06a7" x="207.458313" y="548.12" style="stroke: #000000; stroke-width: 0.8"/>
      </g>
     </g>
     <g id="text_26">
      <!-- 50 -->
      <g transform="translate(201.095813 562.718437) scale(0.1 -0.1)">
       <use xlink:href="#DejaVuSans-35"/>
       <use xlink:href="#DejaVuSans-30" x="63.623047"/>
      </g>
     </g>
    </g>
    <g id="xtick_15">
     <g id="line2d_27">
      <g>
       <use xlink:href="#m46c6ee06a7" x="340.931171" y="548.12" style="stroke: #000000; stroke-width: 0.8"/>
      </g>
     </g>
     <g id="text_27">
      <!-- 100 -->
      <g transform="translate(331.387421 562.718437) scale(0.1 -0.1)">
       <use xlink:href="#DejaVuSans-31"/>
       <use xlink:href="#DejaVuSans-30" x="63.623047"/>
       <use xlink:href="#DejaVuSans-30" x="127.246094"/>
      </g>
     </g>
    </g>
    <g id="xtick_16">
     <g id="line2d_28">
      <g>
       <use xlink:href="#m46c6ee06a7" x="474.404029" y="548.12" style="stroke: #000000; stroke-width: 0.8"/>
      </g>
     </g>
     <g id="text_28">
      <!-- 150 -->
      <g transform="translate(464.860279 562.718437) scale(0.1 -0.1)">
       <use xlink:href="#DejaVuSans-31"/>
       <use xlink:href="#DejaVuSans-35" x="63.623047"/>
       <use xlink:href="#DejaVuSans-30" x="127.246094"/>
      </g>
     </g>
    </g>
    <g id="xtick_17">
     <g id="line2d_29">
      <g>
       <use xlink:href="#m46c6ee06a7" x="607.876887" y="548.12" style="stroke: #000000; stroke-width: 0.8"/>
      </g>
     </g>
     <g id="text_29">
      <!-- 200 -->
      <g transform="translate(598.333137 562.718437) scale(0.1 -0.1)">
       <use xlink:href="#DejaVuSans-32"/>
       <use xlink:href="#DejaVuSans-30" x="63.623047"/>
       <use xlink:href="#DejaVuSans-30" x="127.246094"/>
      </g>
     </g>
    </g>
    <g id="xtick_18">
     <g id="line2d_30">
      <g>
       <use xlink:href="#m46c6ee06a7" x="741.349745" y="548.12" style="stroke: #000000; stroke-width: 0.8"/>
      </g>
     </g>
     <g id="text_30">
      <!-- 250 -->
      <g transform="translate(731.805995 562.718437) scale(0.1 -0.1)">
       <use xlink:href="#DejaVuSans-32"/>
       <use xlink:href="#DejaVuSans-35" x="63.623047"/>
       <use xlink:href="#DejaVuSans-30" x="127.246094"/>
      </g>
     </g>
    </g>
   </g>
   <g id="matplotlib.axis_6">
    <g id="ytick_11">
     <g id="line2d_31">
      <g>
       <use xlink:href="#m778ff8e08e" x="36.88" y="541.554545" style="stroke: #000000; stroke-width: 0.8"/>
      </g>
     </g>
     <g id="text_31">
      <!-- 523 -->
      <g transform="translate(10.7925 545.353764) scale(0.1 -0.1)">
       <use xlink:href="#DejaVuSans-35"/>
       <use xlink:href="#DejaVuSans-32" x="63.623047"/>
       <use xlink:href="#DejaVuSans-33" x="127.246094"/>
      </g>
     </g>
    </g>
    <g id="ytick_12">
     <g id="line2d_32">
      <g>
       <use xlink:href="#m778ff8e08e" x="36.88" y="497.784848" style="stroke: #000000; stroke-width: 0.8"/>
      </g>
     </g>
     <g id="text_32">
      <!-- 524 -->
      <g transform="translate(10.7925 501.584067) scale(0.1 -0.1)">
       <use xlink:href="#DejaVuSans-35"/>
       <use xlink:href="#DejaVuSans-32" x="63.623047"/>
       <use xlink:href="#DejaVuSans-34" x="127.246094"/>
      </g>
     </g>
    </g>
    <g id="ytick_13">
     <g id="line2d_33">
      <g>
       <use xlink:href="#m778ff8e08e" x="36.88" y="454.015152" style="stroke: #000000; stroke-width: 0.8"/>
      </g>
     </g>
     <g id="text_33">
      <!-- 525 -->
      <g transform="translate(10.7925 457.81437) scale(0.1 -0.1)">
       <use xlink:href="#DejaVuSans-35"/>
       <use xlink:href="#DejaVuSans-32" x="63.623047"/>
       <use xlink:href="#DejaVuSans-35" x="127.246094"/>
      </g>
     </g>
    </g>
    <g id="ytick_14">
     <g id="line2d_34">
      <g>
       <use xlink:href="#m778ff8e08e" x="36.88" y="410.245455" style="stroke: #000000; stroke-width: 0.8"/>
      </g>
     </g>
     <g id="text_34">
      <!-- 526 -->
      <g transform="translate(10.7925 414.044673) scale(0.1 -0.1)">
       <use xlink:href="#DejaVuSans-35"/>
       <use xlink:href="#DejaVuSans-32" x="63.623047"/>
       <use xlink:href="#DejaVuSans-36" x="127.246094"/>
      </g>
     </g>
    </g>
   </g>
   <g id="line2d_35">
    <path d="M 73.985455 541.554545 
L 76.654912 497.784848 
L 95.341112 497.784848 
L 98.010569 454.015152 
L 100.680026 497.784848 
L 103.349483 497.784848 
L 106.01894 454.015152 
L 108.688398 497.784848 
L 114.027312 497.784848 
L 116.696769 454.015152 
L 119.366226 497.784848 
L 140.721884 497.784848 
L 143.391341 454.015152 
L 146.060798 454.015152 
L 148.730255 497.784848 
L 154.069169 497.784848 
L 156.738627 454.015152 
L 159.408084 497.784848 
L 162.077541 454.015152 
L 164.746998 497.784848 
L 167.416455 454.015152 
L 170.085912 454.015152 
L 172.75537 497.784848 
L 178.094284 497.784848 
L 180.763741 410.245455 
L 183.433198 454.015152 
L 186.102655 454.015152 
L 188.772112 497.784848 
L 191.44157 454.015152 
L 194.111027 497.784848 
L 199.449941 410.245455 
L 202.119398 497.784848 
L 207.458313 410.245455 
L 210.12777 497.784848 
L 218.136141 497.784848 
L 220.805598 454.015152 
L 223.475056 497.784848 
L 226.144513 454.015152 
L 231.483427 454.015152 
L 234.152884 497.784848 
L 236.822341 454.015152 
L 247.50017 454.015152 
L 250.169627 497.784848 
L 252.839084 497.784848 
L 255.508542 454.015152 
L 258.177999 497.784848 
L 260.847456 454.015152 
L 263.516913 497.784848 
L 266.18637 454.015152 
L 268.855827 497.784848 
L 276.864199 497.784848 
L 282.203113 410.245455 
L 284.87257 454.015152 
L 287.542027 454.015152 
L 290.211485 497.784848 
L 292.880942 454.015152 
L 295.550399 497.784848 
L 300.889313 497.784848 
L 303.55877 454.015152 
L 311.567142 454.015152 
L 314.236599 497.784848 
L 316.906056 454.015152 
L 319.575513 497.784848 
L 322.244971 454.015152 
L 324.914428 497.784848 
L 327.583885 454.015152 
L 330.253342 497.784848 
L 335.592256 497.784848 
L 338.261714 454.015152 
L 343.600628 454.015152 
L 346.270085 497.784848 
L 348.939542 497.784848 
L 351.608999 454.015152 
L 354.278457 497.784848 
L 356.947914 497.784848 
L 359.617371 454.015152 
L 362.286828 454.015152 
L 364.956285 497.784848 
L 367.625742 454.015152 
L 370.295199 497.784848 
L 372.964657 454.015152 
L 375.634114 454.015152 
L 378.303571 497.784848 
L 380.973028 454.015152 
L 383.642485 454.015152 
L 386.311942 497.784848 
L 388.9814 454.015152 
L 394.320314 454.015152 
L 396.989771 497.784848 
L 399.659228 497.784848 
L 402.328685 454.015152 
L 404.998143 497.784848 
L 407.6676 497.784848 
L 410.337057 454.015152 
L 415.675971 454.015152 
L 418.345428 497.784848 
L 421.014886 497.784848 
L 423.684343 454.015152 
L 426.3538 454.015152 
L 429.023257 497.784848 
L 431.692714 454.015152 
L 434.362171 497.784848 
L 439.701086 497.784848 
L 442.370543 410.245455 
L 445.04 497.784848 
L 447.709457 454.015152 
L 450.378914 454.015152 
L 453.048371 497.784848 
L 455.717829 497.784848 
L 458.387286 454.015152 
L 461.056743 497.784848 
L 463.7262 497.784848 
L 466.395657 454.015152 
L 469.065114 497.784848 
L 471.734572 454.015152 
L 474.404029 497.784848 
L 477.073486 454.015152 
L 479.742943 497.784848 
L 482.4124 497.784848 
L 485.081857 454.015152 
L 487.751315 497.784848 
L 498.429143 497.784848 
L 501.0986 454.015152 
L 503.768058 497.784848 
L 506.437515 454.015152 
L 509.106972 497.784848 
L 517.115343 497.784848 
L 519.784801 454.015152 
L 522.454258 454.015152 
L 525.123715 497.784848 
L 535.801543 497.784848 
L 538.471001 410.245455 
L 541.140458 497.784848 
L 543.809915 497.784848 
L 546.479372 454.015152 
L 549.148829 497.784848 
L 559.826658 497.784848 
L 562.496115 454.015152 
L 567.835029 454.015152 
L 570.504487 497.784848 
L 573.173944 497.784848 
L 575.843401 410.245455 
L 581.182315 497.784848 
L 583.851772 454.015152 
L 586.52123 454.015152 
L 589.190687 497.784848 
L 591.860144 410.245455 
L 594.529601 497.784848 
L 607.876887 497.784848 
L 610.546344 454.015152 
L 615.885258 454.015152 
L 618.554716 497.784848 
L 621.224173 454.015152 
L 623.89363 497.784848 
L 626.563087 497.784848 
L 629.232544 454.015152 
L 631.902001 497.784848 
L 634.571458 454.015152 
L 642.57983 454.015152 
L 645.249287 497.784848 
L 650.588201 497.784848 
L 653.257659 454.015152 
L 655.927116 497.784848 
L 666.604944 497.784848 
L 669.274402 454.015152 
L 677.282773 454.015152 
L 679.95223 497.784848 
L 698.63843 497.784848 
L 701.307888 454.015152 
L 709.316259 454.015152 
L 711.985716 497.784848 
L 717.32463 497.784848 
L 719.994088 454.015152 
L 722.663545 497.784848 
L 725.333002 454.015152 
L 736.010831 454.015152 
L 738.680288 497.784848 
L 741.349745 497.784848 
L 744.019202 454.015152 
L 746.688659 454.015152 
L 749.358116 497.784848 
L 754.697031 497.784848 
L 757.366488 454.015152 
L 765.374859 454.015152 
L 768.044317 497.784848 
L 773.383231 497.784848 
L 776.052688 454.015152 
L 778.722145 454.015152 
L 781.391602 497.784848 
L 784.06106 454.015152 
L 786.730517 497.784848 
L 789.399974 454.015152 
L 794.738888 454.015152 
L 797.408345 497.784848 
L 800.077802 454.015152 
L 802.74726 497.784848 
L 805.416717 497.784848 
L 808.086174 454.015152 
L 810.755631 454.015152 
L 813.425088 497.784848 
L 816.094545 454.015152 
L 816.094545 454.015152 
" clip-path="url(#p9eb4879d2e)" style="fill: none; stroke: #1f77b4; stroke-width: 1.5; stroke-linecap: square"/>
   </g>
   <g id="patch_13">
    <path d="M 36.88 548.12 
L 36.88 403.68 
" style="fill: none; stroke: #000000; stroke-width: 0.8; stroke-linejoin: miter; stroke-linecap: square"/>
   </g>
   <g id="patch_14">
    <path d="M 853.2 548.12 
L 853.2 403.68 
" style="fill: none; stroke: #000000; stroke-width: 0.8; stroke-linejoin: miter; stroke-linecap: square"/>
   </g>
   <g id="patch_15">
    <path d="M 36.88 548.12 
L 853.2 548.12 
" style="fill: none; stroke: #000000; stroke-width: 0.8; stroke-linejoin: miter; stroke-linecap: square"/>
   </g>
   <g id="patch_16">
    <path d="M 36.88 403.68 
L 853.2 403.68 
" style="fill: none; stroke: #000000; stroke-width: 0.8; stroke-linejoin: miter; stroke-linecap: square"/>
   </g>
   <g id="text_35">
    <!-- Depth over time -->
    <g transform="translate(396.014375 397.68) scale(0.12 -0.12)">
     <defs>
      <path id="DejaVuSans-44" d="M 1259 4147 
L 1259 519 
L 2022 519 
Q 2988 519 3436 956 
Q 3884 1394 3884 2338 
Q 3884 3275 3436 3711 
Q 2988 4147 2022 4147 
L 1259 4147 
z
M 628 4666 
L 1925 4666 
Q 3281 4666 3915 4102 
Q 4550 3538 4550 2338 
Q 4550 1131 3912 565 
Q 3275 0 1925 0 
L 628 0 
L 628 4666 
z
" transform="scale(0.015625)"/>
      <path id="DejaVuSans-70" d="M 1159 525 
L 1159 -1331 
L 581 -1331 
L 581 3500 
L 1159 3500 
L 1159 2969 
Q 1341 3281 1617 3432 
Q 1894 3584 2278 3584 
Q 2916 3584 3314 3078 
Q 3713 2572 3713 1747 
Q 3713 922 3314 415 
Q 2916 -91 2278 -91 
Q 1894 -91 1617 61 
Q 1341 213 1159 525 
z
M 3116 1747 
Q 3116 2381 2855 2742 
Q 2594 3103 2138 3103 
Q 1681 3103 1420 2742 
Q 1159 2381 1159 1747 
Q 1159 1113 1420 752 
Q 1681 391 2138 391 
Q 2594 391 2855 752 
Q 3116 1113 3116 1747 
z
" transform="scale(0.015625)"/>
      <path id="DejaVuSans-68" d="M 3513 2113 
L 3513 0 
L 2938 0 
L 2938 2094 
Q 2938 2591 2744 2837 
Q 2550 3084 2163 3084 
Q 1697 3084 1428 2787 
Q 1159 2491 1159 1978 
L 1159 0 
L 581 0 
L 581 4863 
L 1159 4863 
L 1159 2956 
Q 1366 3272 1645 3428 
Q 1925 3584 2291 3584 
Q 2894 3584 3203 3211 
Q 3513 2838 3513 2113 
z
" transform="scale(0.015625)"/>
     </defs>
     <use xlink:href="#DejaVuSans-44"/>
     <use xlink:href="#DejaVuSans-65" x="77.001953"/>
     <use xlink:href="#DejaVuSans-70" x="138.525391"/>
     <use xlink:href="#DejaVuSans-74" x="202.001953"/>
     <use xlink:href="#DejaVuSans-68" x="241.210938"/>
     <use xlink:href="#DejaVuSans-20" x="304.589844"/>
     <use xlink:href="#DejaVuSans-6f" x="336.376953"/>
     <use xlink:href="#DejaVuSans-76" x="397.558594"/>
     <use xlink:href="#DejaVuSans-65" x="456.738281"/>
     <use xlink:href="#DejaVuSans-72" x="518.261719"/>
     <use xlink:href="#DejaVuSans-20" x="559.375"/>
     <use xlink:href="#DejaVuSans-74" x="591.162109"/>
     <use xlink:href="#DejaVuSans-69" x="630.371094"/>
     <use xlink:href="#DejaVuSans-6d" x="658.154297"/>
     <use xlink:href="#DejaVuSans-65" x="755.566406"/>
    </g>
   </g>
  </g>
 </g>
 <defs>
  <clipPath id="p70d11e1000">
   <rect x="36.88" y="26.88" width="816.32" height="144.44"/>
  </clipPath>
  <clipPath id="p21ca0f0562">
   <rect x="36.88" y="215.28" width="816.32" height="144.44"/>
  </clipPath>
  <clipPath id="p9eb4879d2e">
   <rect x="36.88" y="403.68" width="816.32" height="144.44"/>
  </clipPath>
 </defs>
</svg>
