<?xml version="1.0" encoding="utf-8" standalone="no"?>
<!DOCTYPE svg PUBLIC "-//W3C//DTD SVG 1.1//EN"
  "http://www.w3.org/Graphics/SVG/1.1/DTD/svg11.dtd">
<svg xmlns:xlink="http://www.w3.org/1999/xlink" width="864pt" height="576pt" viewBox="0 0 864 576" xmlns="http://www.w3.org/2000/svg" version="1.1">
 <metadata>
  <rdf:RDF xmlns:dc="http://purl.org/dc/elements/1.1/" xmlns:cc="http://creativecommons.org/ns#" xmlns:rdf="http://www.w3.org/1999/02/22-rdf-syntax-ns#">
   <cc:Work>
    <dc:type rdf:resource="http://purl.org/dc/dcmitype/StillImage"/>
    <dc:date>2024-02-15T13:58:21.495967</dc:date>
    <dc:format>image/svg+xml</dc:format>
    <dc:creator>
     <cc:Agent>
      <dc:title>Matplotlib v3.8.0, https://matplotlib.org/</dc:title>
     </cc:Agent>
    </dc:creator>
   </cc:Work>
  </rdf:RDF>
 </metadata>
 <defs>
  <style type="text/css">*{stroke-linejoin: round; stroke-linecap: butt}</style>
 </defs>
 <g id="figure_1">
  <g id="patch_1">
   <path d="M 0 576 
L 864 576 
L 864 0 
L 0 0 
z
" style="fill: #ffffff"/>
  </g>
  <g id="axes_1">
   <g id="patch_2">
    <path d="M 36.88 171.32 
L 853.2 171.32 
L 853.2 26.88 
L 36.88 26.88 
z
" style="fill: #ffffff"/>
   </g>
   <g id="matplotlib.axis_1">
    <g id="xtick_1">
     <g id="line2d_1">
      <defs>
       <path id="mbb7f7eabb0" d="M 0 0 
L 0 3.5 
" style="stroke: #000000; stroke-width: 0.8"/>
      </defs>
      <g>
       <use xlink:href="#mbb7f7eabb0" x="73.985455" y="171.32" style="stroke: #000000; stroke-width: 0.8"/>
      </g>
     </g>
     <g id="text_1">
      <!-- 0 -->
      <g transform="translate(70.804205 185.918438) scale(0.1 -0.1)">
       <defs>
        <path id="DejaVuSans-30" d="M 2034 4250 
Q 1547 4250 1301 3770 
Q 1056 3291 1056 2328 
Q 1056 1369 1301 889 
Q 1547 409 2034 409 
Q 2525 409 2770 889 
Q 3016 1369 3016 2328 
Q 3016 3291 2770 3770 
Q 2525 4250 2034 4250 
z
M 2034 4750 
Q 2819 4750 3233 4129 
Q 3647 3509 3647 2328 
Q 3647 1150 3233 529 
Q 2819 -91 2034 -91 
Q 1250 -91 836 529 
Q 422 1150 422 2328 
Q 422 3509 836 4129 
Q 1250 4750 2034 4750 
z
" transform="scale(0.015625)"/>
       </defs>
       <use xlink:href="#DejaVuSans-30"/>
      </g>
     </g>
    </g>
    <g id="xtick_2">
     <g id="line2d_2">
      <g>
       <use xlink:href="#mbb7f7eabb0" x="186.767991" y="171.32" style="stroke: #000000; stroke-width: 0.8"/>
      </g>
     </g>
     <g id="text_2">
      <!-- 50 -->
      <g transform="translate(180.405491 185.918438) scale(0.1 -0.1)">
       <defs>
        <path id="DejaVuSans-35" d="M 691 4666 
L 3169 4666 
L 3169 4134 
L 1269 4134 
L 1269 2991 
Q 1406 3038 1543 3061 
Q 1681 3084 1819 3084 
Q 2600 3084 3056 2656 
Q 3513 2228 3513 1497 
Q 3513 744 3044 326 
Q 2575 -91 1722 -91 
Q 1428 -91 1123 -41 
Q 819 9 494 109 
L 494 744 
Q 775 591 1075 516 
Q 1375 441 1709 441 
Q 2250 441 2565 725 
Q 2881 1009 2881 1497 
Q 2881 1984 2565 2268 
Q 2250 2553 1709 2553 
Q 1456 2553 1204 2497 
Q 953 2441 691 2322 
L 691 4666 
z
" transform="scale(0.015625)"/>
       </defs>
       <use xlink:href="#DejaVuSans-35"/>
       <use xlink:href="#DejaVuSans-30" x="63.623047"/>
      </g>
     </g>
    </g>
    <g id="xtick_3">
     <g id="line2d_3">
      <g>
       <use xlink:href="#mbb7f7eabb0" x="299.550528" y="171.32" style="stroke: #000000; stroke-width: 0.8"/>
      </g>
     </g>
     <g id="text_3">
      <!-- 100 -->
      <g transform="translate(290.006778 185.918438) scale(0.1 -0.1)">
       <defs>
        <path id="DejaVuSans-31" d="M 794 531 
L 1825 531 
L 1825 4091 
L 703 3866 
L 703 4441 
L 1819 4666 
L 2450 4666 
L 2450 531 
L 3481 531 
L 3481 0 
L 794 0 
L 794 531 
z
" transform="scale(0.015625)"/>
       </defs>
       <use xlink:href="#DejaVuSans-31"/>
       <use xlink:href="#DejaVuSans-30" x="63.623047"/>
       <use xlink:href="#DejaVuSans-30" x="127.246094"/>
      </g>
     </g>
    </g>
    <g id="xtick_4">
     <g id="line2d_4">
      <g>
       <use xlink:href="#mbb7f7eabb0" x="412.333064" y="171.32" style="stroke: #000000; stroke-width: 0.8"/>
      </g>
     </g>
     <g id="text_4">
      <!-- 150 -->
      <g transform="translate(402.789314 185.918438) scale(0.1 -0.1)">
       <use xlink:href="#DejaVuSans-31"/>
       <use xlink:href="#DejaVuSans-35" x="63.623047"/>
       <use xlink:href="#DejaVuSans-30" x="127.246094"/>
      </g>
     </g>
    </g>
    <g id="xtick_5">
     <g id="line2d_5">
      <g>
       <use xlink:href="#mbb7f7eabb0" x="525.115601" y="171.32" style="stroke: #000000; stroke-width: 0.8"/>
      </g>
     </g>
     <g id="text_5">
      <!-- 200 -->
      <g transform="translate(515.571851 185.918438) scale(0.1 -0.1)">
       <defs>
        <path id="DejaVuSans-32" d="M 1228 531 
L 3431 531 
L 3431 0 
L 469 0 
L 469 531 
Q 828 903 1448 1529 
Q 2069 2156 2228 2338 
Q 2531 2678 2651 2914 
Q 2772 3150 2772 3378 
Q 2772 3750 2511 3984 
Q 2250 4219 1831 4219 
Q 1534 4219 1204 4116 
Q 875 4013 500 3803 
L 500 4441 
Q 881 4594 1212 4672 
Q 1544 4750 1819 4750 
Q 2544 4750 2975 4387 
Q 3406 4025 3406 3419 
Q 3406 3131 3298 2873 
Q 3191 2616 2906 2266 
Q 2828 2175 2409 1742 
Q 1991 1309 1228 531 
z
" transform="scale(0.015625)"/>
       </defs>
       <use xlink:href="#DejaVuSans-32"/>
       <use xlink:href="#DejaVuSans-30" x="63.623047"/>
       <use xlink:href="#DejaVuSans-30" x="127.246094"/>
      </g>
     </g>
    </g>
    <g id="xtick_6">
     <g id="line2d_6">
      <g>
       <use xlink:href="#mbb7f7eabb0" x="637.898138" y="171.32" style="stroke: #000000; stroke-width: 0.8"/>
      </g>
     </g>
     <g id="text_6">
      <!-- 250 -->
      <g transform="translate(628.354388 185.918438) scale(0.1 -0.1)">
       <use xlink:href="#DejaVuSans-32"/>
       <use xlink:href="#DejaVuSans-35" x="63.623047"/>
       <use xlink:href="#DejaVuSans-30" x="127.246094"/>
      </g>
     </g>
    </g>
    <g id="xtick_7">
     <g id="line2d_7">
      <g>
       <use xlink:href="#mbb7f7eabb0" x="750.680674" y="171.32" style="stroke: #000000; stroke-width: 0.8"/>
      </g>
     </g>
     <g id="text_7">
      <!-- 300 -->
      <g transform="translate(741.136924 185.918438) scale(0.1 -0.1)">
       <defs>
        <path id="DejaVuSans-33" d="M 2597 2516 
Q 3050 2419 3304 2112 
Q 3559 1806 3559 1356 
Q 3559 666 3084 287 
Q 2609 -91 1734 -91 
Q 1441 -91 1130 -33 
Q 819 25 488 141 
L 488 750 
Q 750 597 1062 519 
Q 1375 441 1716 441 
Q 2309 441 2620 675 
Q 2931 909 2931 1356 
Q 2931 1769 2642 2001 
Q 2353 2234 1838 2234 
L 1294 2234 
L 1294 2753 
L 1863 2753 
Q 2328 2753 2575 2939 
Q 2822 3125 2822 3475 
Q 2822 3834 2567 4026 
Q 2313 4219 1838 4219 
Q 1578 4219 1281 4162 
Q 984 4106 628 3988 
L 628 4550 
Q 988 4650 1302 4700 
Q 1616 4750 1894 4750 
Q 2613 4750 3031 4423 
Q 3450 4097 3450 3541 
Q 3450 3153 3228 2886 
Q 3006 2619 2597 2516 
z
" transform="scale(0.015625)"/>
       </defs>
       <use xlink:href="#DejaVuSans-33"/>
       <use xlink:href="#DejaVuSans-30" x="63.623047"/>
       <use xlink:href="#DejaVuSans-30" x="127.246094"/>
      </g>
     </g>
    </g>
   </g>
   <g id="matplotlib.axis_2">
    <g id="ytick_1">
     <g id="line2d_8">
      <defs>
       <path id="m16228e1960" d="M 0 0 
L -3.5 0 
" style="stroke: #000000; stroke-width: 0.8"/>
      </defs>
      <g>
       <use xlink:href="#m16228e1960" x="36.88" y="164.754545" style="stroke: #000000; stroke-width: 0.8"/>
      </g>
     </g>
     <g id="text_8">
      <!-- 639 -->
      <g transform="translate(10.7925 168.553764) scale(0.1 -0.1)">
       <defs>
        <path id="DejaVuSans-36" d="M 2113 2584 
Q 1688 2584 1439 2293 
Q 1191 2003 1191 1497 
Q 1191 994 1439 701 
Q 1688 409 2113 409 
Q 2538 409 2786 701 
Q 3034 994 3034 1497 
Q 3034 2003 2786 2293 
Q 2538 2584 2113 2584 
z
M 3366 4563 
L 3366 3988 
Q 3128 4100 2886 4159 
Q 2644 4219 2406 4219 
Q 1781 4219 1451 3797 
Q 1122 3375 1075 2522 
Q 1259 2794 1537 2939 
Q 1816 3084 2150 3084 
Q 2853 3084 3261 2657 
Q 3669 2231 3669 1497 
Q 3669 778 3244 343 
Q 2819 -91 2113 -91 
Q 1303 -91 875 529 
Q 447 1150 447 2328 
Q 447 3434 972 4092 
Q 1497 4750 2381 4750 
Q 2619 4750 2861 4703 
Q 3103 4656 3366 4563 
z
" transform="scale(0.015625)"/>
        <path id="DejaVuSans-39" d="M 703 97 
L 703 672 
Q 941 559 1184 500 
Q 1428 441 1663 441 
Q 2288 441 2617 861 
Q 2947 1281 2994 2138 
Q 2813 1869 2534 1725 
Q 2256 1581 1919 1581 
Q 1219 1581 811 2004 
Q 403 2428 403 3163 
Q 403 3881 828 4315 
Q 1253 4750 1959 4750 
Q 2769 4750 3195 4129 
Q 3622 3509 3622 2328 
Q 3622 1225 3098 567 
Q 2575 -91 1691 -91 
Q 1453 -91 1209 -44 
Q 966 3 703 97 
z
M 1959 2075 
Q 2384 2075 2632 2365 
Q 2881 2656 2881 3163 
Q 2881 3666 2632 3958 
Q 2384 4250 1959 4250 
Q 1534 4250 1286 3958 
Q 1038 3666 1038 3163 
Q 1038 2656 1286 2365 
Q 1534 2075 1959 2075 
z
" transform="scale(0.015625)"/>
       </defs>
       <use xlink:href="#DejaVuSans-36"/>
       <use xlink:href="#DejaVuSans-33" x="63.623047"/>
       <use xlink:href="#DejaVuSans-39" x="127.246094"/>
      </g>
     </g>
    </g>
    <g id="ytick_2">
     <g id="line2d_9">
      <g>
       <use xlink:href="#m16228e1960" x="36.88" y="138.492727" style="stroke: #000000; stroke-width: 0.8"/>
      </g>
     </g>
     <g id="text_9">
      <!-- 640 -->
      <g transform="translate(10.7925 142.291946) scale(0.1 -0.1)">
       <defs>
        <path id="DejaVuSans-34" d="M 2419 4116 
L 825 1625 
L 2419 1625 
L 2419 4116 
z
M 2253 4666 
L 3047 4666 
L 3047 1625 
L 3713 1625 
L 3713 1100 
L 3047 1100 
L 3047 0 
L 2419 0 
L 2419 1100 
L 313 1100 
L 313 1709 
L 2253 4666 
z
" transform="scale(0.015625)"/>
       </defs>
       <use xlink:href="#DejaVuSans-36"/>
       <use xlink:href="#DejaVuSans-34" x="63.623047"/>
       <use xlink:href="#DejaVuSans-30" x="127.246094"/>
      </g>
     </g>
    </g>
    <g id="ytick_3">
     <g id="line2d_10">
      <g>
       <use xlink:href="#m16228e1960" x="36.88" y="112.230909" style="stroke: #000000; stroke-width: 0.8"/>
      </g>
     </g>
     <g id="text_10">
      <!-- 641 -->
      <g transform="translate(10.7925 116.030128) scale(0.1 -0.1)">
       <use xlink:href="#DejaVuSans-36"/>
       <use xlink:href="#DejaVuSans-34" x="63.623047"/>
       <use xlink:href="#DejaVuSans-31" x="127.246094"/>
      </g>
     </g>
    </g>
    <g id="ytick_4">
     <g id="line2d_11">
      <g>
       <use xlink:href="#m16228e1960" x="36.88" y="85.969091" style="stroke: #000000; stroke-width: 0.8"/>
      </g>
     </g>
     <g id="text_11">
      <!-- 642 -->
      <g transform="translate(10.7925 89.76831) scale(0.1 -0.1)">
       <use xlink:href="#DejaVuSans-36"/>
       <use xlink:href="#DejaVuSans-34" x="63.623047"/>
       <use xlink:href="#DejaVuSans-32" x="127.246094"/>
      </g>
     </g>
    </g>
    <g id="ytick_5">
     <g id="line2d_12">
      <g>
       <use xlink:href="#m16228e1960" x="36.88" y="59.707273" style="stroke: #000000; stroke-width: 0.8"/>
      </g>
     </g>
     <g id="text_12">
      <!-- 643 -->
      <g transform="translate(10.7925 63.506491) scale(0.1 -0.1)">
       <use xlink:href="#DejaVuSans-36"/>
       <use xlink:href="#DejaVuSans-34" x="63.623047"/>
       <use xlink:href="#DejaVuSans-33" x="127.246094"/>
      </g>
     </g>
    </g>
    <g id="ytick_6">
     <g id="line2d_13">
      <g>
       <use xlink:href="#m16228e1960" x="36.88" y="33.445455" style="stroke: #000000; stroke-width: 0.8"/>
      </g>
     </g>
     <g id="text_13">
      <!-- 644 -->
      <g transform="translate(10.7925 37.244673) scale(0.1 -0.1)">
       <use xlink:href="#DejaVuSans-36"/>
       <use xlink:href="#DejaVuSans-34" x="63.623047"/>
       <use xlink:href="#DejaVuSans-34" x="127.246094"/>
      </g>
     </g>
    </g>
   </g>
   <g id="line2d_14">
    <path d="M 73.985455 164.754545 
L 76.241105 59.707273 
L 78.496756 112.230909 
L 80.752407 59.707273 
L 83.008057 85.969091 
L 85.263708 59.707273 
L 87.519359 59.707273 
L 89.77501 33.445455 
L 92.03066 59.707273 
L 94.286311 59.707273 
L 96.541962 33.445455 
L 98.797613 85.969091 
L 101.053263 85.969091 
L 103.308914 59.707273 
L 105.564565 59.707273 
L 107.820216 33.445455 
L 112.331517 85.969091 
L 114.587168 33.445455 
L 119.098469 33.445455 
L 123.609771 85.969091 
L 125.865421 59.707273 
L 128.121072 59.707273 
L 132.632374 112.230909 
L 134.888024 33.445455 
L 137.143675 85.969091 
L 139.399326 59.707273 
L 143.910627 59.707273 
L 146.166278 85.969091 
L 148.421929 59.707273 
L 150.677579 59.707273 
L 152.93323 85.969091 
L 155.188881 59.707273 
L 157.444532 85.969091 
L 159.700182 59.707273 
L 161.955833 85.969091 
L 164.211484 59.707273 
L 168.722785 59.707273 
L 170.978436 85.969091 
L 173.234087 59.707273 
L 175.489737 85.969091 
L 180.001039 85.969091 
L 182.25669 59.707273 
L 184.51234 59.707273 
L 186.767991 85.969091 
L 189.023642 59.707273 
L 191.279293 85.969091 
L 193.534943 59.707273 
L 198.046245 59.707273 
L 200.301896 85.969091 
L 202.557546 59.707273 
L 204.813197 85.969091 
L 209.324498 85.969091 
L 211.580149 59.707273 
L 216.091451 59.707273 
L 218.347101 85.969091 
L 222.858403 85.969091 
L 225.114054 59.707273 
L 227.369704 85.969091 
L 229.625355 59.707273 
L 234.136657 59.707273 
L 236.392307 85.969091 
L 238.647958 59.707273 
L 245.41491 59.707273 
L 247.670561 85.969091 
L 249.926212 59.707273 
L 252.181862 85.969091 
L 254.437513 59.707273 
L 258.948815 59.707273 
L 261.204465 33.445455 
L 263.460116 59.707273 
L 265.715767 59.707273 
L 267.971418 85.969091 
L 270.227068 59.707273 
L 272.482719 85.969091 
L 274.73837 85.969091 
L 279.249671 33.445455 
L 281.505322 85.969091 
L 283.760973 33.445455 
L 286.016623 59.707273 
L 288.272274 59.707273 
L 290.527925 85.969091 
L 295.039226 33.445455 
L 297.294877 59.707273 
L 317.595734 59.707273 
L 319.851384 85.969091 
L 322.107035 85.969091 
L 324.362686 59.707273 
L 333.385289 59.707273 
L 335.640939 85.969091 
L 337.89659 59.707273 
L 340.152241 85.969091 
L 342.407892 59.707273 
L 344.663542 85.969091 
L 349.174844 85.969091 
L 351.430495 59.707273 
L 355.941796 59.707273 
L 358.197447 33.445455 
L 360.453098 59.707273 
L 364.964399 59.707273 
L 367.22005 85.969091 
L 369.4757 59.707273 
L 371.731351 85.969091 
L 373.987002 85.969091 
L 376.242653 33.445455 
L 378.498303 59.707273 
L 385.265256 59.707273 
L 387.520906 33.445455 
L 392.032208 85.969091 
L 394.287859 59.707273 
L 396.543509 85.969091 
L 398.79916 59.707273 
L 401.054811 85.969091 
L 403.310461 59.707273 
L 407.821763 59.707273 
L 410.077414 85.969091 
L 412.333064 85.969091 
L 414.588715 59.707273 
L 416.844366 59.707273 
L 419.100017 85.969091 
L 421.355667 59.707273 
L 423.611318 85.969091 
L 425.866969 85.969091 
L 428.12262 59.707273 
L 430.37827 85.969091 
L 439.400873 85.969091 
L 441.656524 59.707273 
L 443.912175 85.969091 
L 446.167825 59.707273 
L 448.423476 85.969091 
L 455.190428 85.969091 
L 457.446079 59.707273 
L 459.70173 59.707273 
L 461.95738 85.969091 
L 464.213031 85.969091 
L 466.468682 33.445455 
L 468.724333 85.969091 
L 477.746936 85.969091 
L 480.002586 59.707273 
L 482.258237 85.969091 
L 484.513888 85.969091 
L 486.769539 59.707273 
L 489.025189 59.707273 
L 491.28084 85.969091 
L 493.536491 59.707273 
L 495.792141 85.969091 
L 500.303443 85.969091 
L 502.559094 59.707273 
L 504.814744 85.969091 
L 507.070395 85.969091 
L 509.326046 59.707273 
L 511.581697 85.969091 
L 513.837347 59.707273 
L 516.092998 85.969091 
L 534.138204 85.969091 
L 536.393855 59.707273 
L 545.416458 59.707273 
L 547.672108 85.969091 
L 549.927759 59.707273 
L 552.18341 85.969091 
L 563.461663 85.969091 
L 565.717314 59.707273 
L 567.972965 85.969091 
L 572.484266 85.969091 
L 574.739917 59.707273 
L 576.995568 85.969091 
L 579.251219 59.707273 
L 581.506869 59.707273 
L 583.76252 85.969091 
L 586.018171 59.707273 
L 588.273821 59.707273 
L 590.529472 85.969091 
L 595.040774 85.969091 
L 597.296424 59.707273 
L 599.552075 59.707273 
L 601.807726 85.969091 
L 613.08598 85.969091 
L 615.34163 59.707273 
L 622.108582 59.707273 
L 624.364233 85.969091 
L 626.619884 59.707273 
L 628.875535 85.969091 
L 631.131185 85.969091 
L 633.386836 59.707273 
L 635.642487 85.969091 
L 637.898138 85.969091 
L 640.153788 59.707273 
L 642.409439 85.969091 
L 644.66509 85.969091 
L 646.920741 59.707273 
L 649.176391 59.707273 
L 651.432042 85.969091 
L 653.687693 33.445455 
L 655.943343 85.969091 
L 658.198994 59.707273 
L 660.454645 85.969091 
L 662.710296 85.969091 
L 664.965946 59.707273 
L 667.221597 85.969091 
L 669.477248 85.969091 
L 671.732899 59.707273 
L 673.988549 85.969091 
L 676.2442 59.707273 
L 678.499851 85.969091 
L 680.755502 59.707273 
L 685.266803 59.707273 
L 687.522454 85.969091 
L 694.289406 85.969091 
L 698.800707 33.445455 
L 701.056358 85.969091 
L 703.312009 85.969091 
L 705.56766 59.707273 
L 707.82331 59.707273 
L 710.078961 85.969091 
L 712.334612 33.445455 
L 714.590263 59.707273 
L 723.612865 59.707273 
L 725.868516 85.969091 
L 728.124167 59.707273 
L 730.379818 85.969091 
L 732.635468 59.707273 
L 737.14677 59.707273 
L 739.402421 85.969091 
L 741.658071 59.707273 
L 746.169373 59.707273 
L 748.425023 85.969091 
L 750.680674 59.707273 
L 752.936325 85.969091 
L 755.191976 59.707273 
L 759.703277 59.707273 
L 761.958928 85.969091 
L 764.214579 59.707273 
L 766.470229 85.969091 
L 768.72588 59.707273 
L 773.237182 59.707273 
L 775.492832 33.445455 
L 780.004134 85.969091 
L 782.259784 85.969091 
L 784.515435 33.445455 
L 789.026737 85.969091 
L 791.282387 33.445455 
L 793.538038 59.707273 
L 816.094545 59.707273 
L 816.094545 59.707273 
" clip-path="url(#p8d47b5c476)" style="fill: none; stroke: #1f77b4; stroke-width: 1.5; stroke-linecap: square"/>
   </g>
   <g id="patch_3">
    <path d="M 36.88 171.32 
L 36.88 26.88 
" style="fill: none; stroke: #000000; stroke-width: 0.8; stroke-linejoin: miter; stroke-linecap: square"/>
   </g>
   <g id="patch_4">
    <path d="M 853.2 171.32 
L 853.2 26.88 
" style="fill: none; stroke: #000000; stroke-width: 0.8; stroke-linejoin: miter; stroke-linecap: square"/>
   </g>
   <g id="patch_5">
    <path d="M 36.88 171.32 
L 853.2 171.32 
" style="fill: none; stroke: #000000; stroke-width: 0.8; stroke-linejoin: miter; stroke-linecap: square"/>
   </g>
   <g id="patch_6">
    <path d="M 36.88 26.88 
L 853.2 26.88 
" style="fill: none; stroke: #000000; stroke-width: 0.8; stroke-linejoin: miter; stroke-linecap: square"/>
   </g>
   <g id="text_14">
    <!-- x-ordinate over time -->
    <g transform="translate(383.429375 20.88) scale(0.12 -0.12)">
     <defs>
      <path id="DejaVuSans-78" d="M 3513 3500 
L 2247 1797 
L 3578 0 
L 2900 0 
L 1881 1375 
L 863 0 
L 184 0 
L 1544 1831 
L 300 3500 
L 978 3500 
L 1906 2253 
L 2834 3500 
L 3513 3500 
z
" transform="scale(0.015625)"/>
      <path id="DejaVuSans-2d" d="M 313 2009 
L 1997 2009 
L 1997 1497 
L 313 1497 
L 313 2009 
z
" transform="scale(0.015625)"/>
      <path id="DejaVuSans-6f" d="M 1959 3097 
Q 1497 3097 1228 2736 
Q 959 2375 959 1747 
Q 959 1119 1226 758 
Q 1494 397 1959 397 
Q 2419 397 2687 759 
Q 2956 1122 2956 1747 
Q 2956 2369 2687 2733 
Q 2419 3097 1959 3097 
z
M 1959 3584 
Q 2709 3584 3137 3096 
Q 3566 2609 3566 1747 
Q 3566 888 3137 398 
Q 2709 -91 1959 -91 
Q 1206 -91 779 398 
Q 353 888 353 1747 
Q 353 2609 779 3096 
Q 1206 3584 1959 3584 
z
" transform="scale(0.015625)"/>
      <path id="DejaVuSans-72" d="M 2631 2963 
Q 2534 3019 2420 3045 
Q 2306 3072 2169 3072 
Q 1681 3072 1420 2755 
Q 1159 2438 1159 1844 
L 1159 0 
L 581 0 
L 581 3500 
L 1159 3500 
L 1159 2956 
Q 1341 3275 1631 3429 
Q 1922 3584 2338 3584 
Q 2397 3584 2469 3576 
Q 2541 3569 2628 3553 
L 2631 2963 
z
" transform="scale(0.015625)"/>
      <path id="DejaVuSans-64" d="M 2906 2969 
L 2906 4863 
L 3481 4863 
L 3481 0 
L 2906 0 
L 2906 525 
Q 2725 213 2448 61 
Q 2172 -91 1784 -91 
Q 1150 -91 751 415 
Q 353 922 353 1747 
Q 353 2572 751 3078 
Q 1150 3584 1784 3584 
Q 2172 3584 2448 3432 
Q 2725 3281 2906 2969 
z
M 947 1747 
Q 947 1113 1208 752 
Q 1469 391 1925 391 
Q 2381 391 2643 752 
Q 2906 1113 2906 1747 
Q 2906 2381 2643 2742 
Q 2381 3103 1925 3103 
Q 1469 3103 1208 2742 
Q 947 2381 947 1747 
z
" transform="scale(0.015625)"/>
      <path id="DejaVuSans-69" d="M 603 3500 
L 1178 3500 
L 1178 0 
L 603 0 
L 603 3500 
z
M 603 4863 
L 1178 4863 
L 1178 4134 
L 603 4134 
L 603 4863 
z
" transform="scale(0.015625)"/>
      <path id="DejaVuSans-6e" d="M 3513 2113 
L 3513 0 
L 2938 0 
L 2938 2094 
Q 2938 2591 2744 2837 
Q 2550 3084 2163 3084 
Q 1697 3084 1428 2787 
Q 1159 2491 1159 1978 
L 1159 0 
L 581 0 
L 581 3500 
L 1159 3500 
L 1159 2956 
Q 1366 3272 1645 3428 
Q 1925 3584 2291 3584 
Q 2894 3584 3203 3211 
Q 3513 2838 3513 2113 
z
" transform="scale(0.015625)"/>
      <path id="DejaVuSans-61" d="M 2194 1759 
Q 1497 1759 1228 1600 
Q 959 1441 959 1056 
Q 959 750 1161 570 
Q 1363 391 1709 391 
Q 2188 391 2477 730 
Q 2766 1069 2766 1631 
L 2766 1759 
L 2194 1759 
z
M 3341 1997 
L 3341 0 
L 2766 0 
L 2766 531 
Q 2569 213 2275 61 
Q 1981 -91 1556 -91 
Q 1019 -91 701 211 
Q 384 513 384 1019 
Q 384 1609 779 1909 
Q 1175 2209 1959 2209 
L 2766 2209 
L 2766 2266 
Q 2766 2663 2505 2880 
Q 2244 3097 1772 3097 
Q 1472 3097 1187 3025 
Q 903 2953 641 2809 
L 641 3341 
Q 956 3463 1253 3523 
Q 1550 3584 1831 3584 
Q 2591 3584 2966 3190 
Q 3341 2797 3341 1997 
z
" transform="scale(0.015625)"/>
      <path id="DejaVuSans-74" d="M 1172 4494 
L 1172 3500 
L 2356 3500 
L 2356 3053 
L 1172 3053 
L 1172 1153 
Q 1172 725 1289 603 
Q 1406 481 1766 481 
L 2356 481 
L 2356 0 
L 1766 0 
Q 1100 0 847 248 
Q 594 497 594 1153 
L 594 3053 
L 172 3053 
L 172 3500 
L 594 3500 
L 594 4494 
L 1172 4494 
z
" transform="scale(0.015625)"/>
      <path id="DejaVuSans-65" d="M 3597 1894 
L 3597 1613 
L 953 1613 
Q 991 1019 1311 708 
Q 1631 397 2203 397 
Q 2534 397 2845 478 
Q 3156 559 3463 722 
L 3463 178 
Q 3153 47 2828 -22 
Q 2503 -91 2169 -91 
Q 1331 -91 842 396 
Q 353 884 353 1716 
Q 353 2575 817 3079 
Q 1281 3584 2069 3584 
Q 2775 3584 3186 3129 
Q 3597 2675 3597 1894 
z
M 3022 2063 
Q 3016 2534 2758 2815 
Q 2500 3097 2075 3097 
Q 1594 3097 1305 2825 
Q 1016 2553 972 2059 
L 3022 2063 
z
" transform="scale(0.015625)"/>
      <path id="DejaVuSans-20" transform="scale(0.015625)"/>
      <path id="DejaVuSans-76" d="M 191 3500 
L 800 3500 
L 1894 563 
L 2988 3500 
L 3597 3500 
L 2284 0 
L 1503 0 
L 191 3500 
z
" transform="scale(0.015625)"/>
      <path id="DejaVuSans-6d" d="M 3328 2828 
Q 3544 3216 3844 3400 
Q 4144 3584 4550 3584 
Q 5097 3584 5394 3201 
Q 5691 2819 5691 2113 
L 5691 0 
L 5113 0 
L 5113 2094 
Q 5113 2597 4934 2840 
Q 4756 3084 4391 3084 
Q 3944 3084 3684 2787 
Q 3425 2491 3425 1978 
L 3425 0 
L 2847 0 
L 2847 2094 
Q 2847 2600 2669 2842 
Q 2491 3084 2119 3084 
Q 1678 3084 1418 2786 
Q 1159 2488 1159 1978 
L 1159 0 
L 581 0 
L 581 3500 
L 1159 3500 
L 1159 2956 
Q 1356 3278 1631 3431 
Q 1906 3584 2284 3584 
Q 2666 3584 2933 3390 
Q 3200 3197 3328 2828 
z
" transform="scale(0.015625)"/>
     </defs>
     <use xlink:href="#DejaVuSans-78"/>
     <use xlink:href="#DejaVuSans-2d" x="59.179688"/>
     <use xlink:href="#DejaVuSans-6f" x="97.138672"/>
     <use xlink:href="#DejaVuSans-72" x="158.320312"/>
     <use xlink:href="#DejaVuSans-64" x="197.683594"/>
     <use xlink:href="#DejaVuSans-69" x="261.160156"/>
     <use xlink:href="#DejaVuSans-6e" x="288.943359"/>
     <use xlink:href="#DejaVuSans-61" x="352.322266"/>
     <use xlink:href="#DejaVuSans-74" x="413.601562"/>
     <use xlink:href="#DejaVuSans-65" x="452.810547"/>
     <use xlink:href="#DejaVuSans-20" x="514.333984"/>
     <use xlink:href="#DejaVuSans-6f" x="546.121094"/>
     <use xlink:href="#DejaVuSans-76" x="607.302734"/>
     <use xlink:href="#DejaVuSans-65" x="666.482422"/>
     <use xlink:href="#DejaVuSans-72" x="728.005859"/>
     <use xlink:href="#DejaVuSans-20" x="769.119141"/>
     <use xlink:href="#DejaVuSans-74" x="800.90625"/>
     <use xlink:href="#DejaVuSans-69" x="840.115234"/>
     <use xlink:href="#DejaVuSans-6d" x="867.898438"/>
     <use xlink:href="#DejaVuSans-65" x="965.310547"/>
    </g>
   </g>
  </g>
  <g id="axes_2">
   <g id="patch_7">
    <path d="M 36.88 359.72 
L 853.2 359.72 
L 853.2 215.28 
L 36.88 215.28 
z
" style="fill: #ffffff"/>
   </g>
   <g id="matplotlib.axis_3">
    <g id="xtick_8">
     <g id="line2d_15">
      <g>
       <use xlink:href="#mbb7f7eabb0" x="73.985455" y="359.72" style="stroke: #000000; stroke-width: 0.8"/>
      </g>
     </g>
     <g id="text_15">
      <!-- 0 -->
      <g transform="translate(70.804205 374.318438) scale(0.1 -0.1)">
       <use xlink:href="#DejaVuSans-30"/>
      </g>
     </g>
    </g>
    <g id="xtick_9">
     <g id="line2d_16">
      <g>
       <use xlink:href="#mbb7f7eabb0" x="186.767991" y="359.72" style="stroke: #000000; stroke-width: 0.8"/>
      </g>
     </g>
     <g id="text_16">
      <!-- 50 -->
      <g transform="translate(180.405491 374.318438) scale(0.1 -0.1)">
       <use xlink:href="#DejaVuSans-35"/>
       <use xlink:href="#DejaVuSans-30" x="63.623047"/>
      </g>
     </g>
    </g>
    <g id="xtick_10">
     <g id="line2d_17">
      <g>
       <use xlink:href="#mbb7f7eabb0" x="299.550528" y="359.72" style="stroke: #000000; stroke-width: 0.8"/>
      </g>
     </g>
     <g id="text_17">
      <!-- 100 -->
      <g transform="translate(290.006778 374.318438) scale(0.1 -0.1)">
       <use xlink:href="#DejaVuSans-31"/>
       <use xlink:href="#DejaVuSans-30" x="63.623047"/>
       <use xlink:href="#DejaVuSans-30" x="127.246094"/>
      </g>
     </g>
    </g>
    <g id="xtick_11">
     <g id="line2d_18">
      <g>
       <use xlink:href="#mbb7f7eabb0" x="412.333064" y="359.72" style="stroke: #000000; stroke-width: 0.8"/>
      </g>
     </g>
     <g id="text_18">
      <!-- 150 -->
      <g transform="translate(402.789314 374.318438) scale(0.1 -0.1)">
       <use xlink:href="#DejaVuSans-31"/>
       <use xlink:href="#DejaVuSans-35" x="63.623047"/>
       <use xlink:href="#DejaVuSans-30" x="127.246094"/>
      </g>
     </g>
    </g>
    <g id="xtick_12">
     <g id="line2d_19">
      <g>
       <use xlink:href="#mbb7f7eabb0" x="525.115601" y="359.72" style="stroke: #000000; stroke-width: 0.8"/>
      </g>
     </g>
     <g id="text_19">
      <!-- 200 -->
      <g transform="translate(515.571851 374.318438) scale(0.1 -0.1)">
       <use xlink:href="#DejaVuSans-32"/>
       <use xlink:href="#DejaVuSans-30" x="63.623047"/>
       <use xlink:href="#DejaVuSans-30" x="127.246094"/>
      </g>
     </g>
    </g>
    <g id="xtick_13">
     <g id="line2d_20">
      <g>
       <use xlink:href="#mbb7f7eabb0" x="637.898138" y="359.72" style="stroke: #000000; stroke-width: 0.8"/>
      </g>
     </g>
     <g id="text_20">
      <!-- 250 -->
      <g transform="translate(628.354388 374.318438) scale(0.1 -0.1)">
       <use xlink:href="#DejaVuSans-32"/>
       <use xlink:href="#DejaVuSans-35" x="63.623047"/>
       <use xlink:href="#DejaVuSans-30" x="127.246094"/>
      </g>
     </g>
    </g>
    <g id="xtick_14">
     <g id="line2d_21">
      <g>
       <use xlink:href="#mbb7f7eabb0" x="750.680674" y="359.72" style="stroke: #000000; stroke-width: 0.8"/>
      </g>
     </g>
     <g id="text_21">
      <!-- 300 -->
      <g transform="translate(741.136924 374.318438) scale(0.1 -0.1)">
       <use xlink:href="#DejaVuSans-33"/>
       <use xlink:href="#DejaVuSans-30" x="63.623047"/>
       <use xlink:href="#DejaVuSans-30" x="127.246094"/>
      </g>
     </g>
    </g>
   </g>
   <g id="matplotlib.axis_4">
    <g id="ytick_7">
     <g id="line2d_22">
      <g>
       <use xlink:href="#m16228e1960" x="36.88" y="353.154545" style="stroke: #000000; stroke-width: 0.8"/>
      </g>
     </g>
     <g id="text_22">
      <!-- 585 -->
      <g transform="translate(10.7925 356.953764) scale(0.1 -0.1)">
       <defs>
        <path id="DejaVuSans-38" d="M 2034 2216 
Q 1584 2216 1326 1975 
Q 1069 1734 1069 1313 
Q 1069 891 1326 650 
Q 1584 409 2034 409 
Q 2484 409 2743 651 
Q 3003 894 3003 1313 
Q 3003 1734 2745 1975 
Q 2488 2216 2034 2216 
z
M 1403 2484 
Q 997 2584 770 2862 
Q 544 3141 544 3541 
Q 544 4100 942 4425 
Q 1341 4750 2034 4750 
Q 2731 4750 3128 4425 
Q 3525 4100 3525 3541 
Q 3525 3141 3298 2862 
Q 3072 2584 2669 2484 
Q 3125 2378 3379 2068 
Q 3634 1759 3634 1313 
Q 3634 634 3220 271 
Q 2806 -91 2034 -91 
Q 1263 -91 848 271 
Q 434 634 434 1313 
Q 434 1759 690 2068 
Q 947 2378 1403 2484 
z
M 1172 3481 
Q 1172 3119 1398 2916 
Q 1625 2713 2034 2713 
Q 2441 2713 2670 2916 
Q 2900 3119 2900 3481 
Q 2900 3844 2670 4047 
Q 2441 4250 2034 4250 
Q 1625 4250 1398 4047 
Q 1172 3844 1172 3481 
z
" transform="scale(0.015625)"/>
       </defs>
       <use xlink:href="#DejaVuSans-35"/>
       <use xlink:href="#DejaVuSans-38" x="63.623047"/>
       <use xlink:href="#DejaVuSans-35" x="127.246094"/>
      </g>
     </g>
    </g>
    <g id="ytick_8">
     <g id="line2d_23">
      <g>
       <use xlink:href="#m16228e1960" x="36.88" y="326.892727" style="stroke: #000000; stroke-width: 0.8"/>
      </g>
     </g>
     <g id="text_23">
      <!-- 586 -->
      <g transform="translate(10.7925 330.691946) scale(0.1 -0.1)">
       <use xlink:href="#DejaVuSans-35"/>
       <use xlink:href="#DejaVuSans-38" x="63.623047"/>
       <use xlink:href="#DejaVuSans-36" x="127.246094"/>
      </g>
     </g>
    </g>
    <g id="ytick_9">
     <g id="line2d_24">
      <g>
       <use xlink:href="#m16228e1960" x="36.88" y="300.630909" style="stroke: #000000; stroke-width: 0.8"/>
      </g>
     </g>
     <g id="text_24">
      <!-- 587 -->
      <g transform="translate(10.7925 304.430128) scale(0.1 -0.1)">
       <defs>
        <path id="DejaVuSans-37" d="M 525 4666 
L 3525 4666 
L 3525 4397 
L 1831 0 
L 1172 0 
L 2766 4134 
L 525 4134 
L 525 4666 
z
" transform="scale(0.015625)"/>
       </defs>
       <use xlink:href="#DejaVuSans-35"/>
       <use xlink:href="#DejaVuSans-38" x="63.623047"/>
       <use xlink:href="#DejaVuSans-37" x="127.246094"/>
      </g>
     </g>
    </g>
    <g id="ytick_10">
     <g id="line2d_25">
      <g>
       <use xlink:href="#m16228e1960" x="36.88" y="274.369091" style="stroke: #000000; stroke-width: 0.8"/>
      </g>
     </g>
     <g id="text_25">
      <!-- 588 -->
      <g transform="translate(10.7925 278.16831) scale(0.1 -0.1)">
       <use xlink:href="#DejaVuSans-35"/>
       <use xlink:href="#DejaVuSans-38" x="63.623047"/>
       <use xlink:href="#DejaVuSans-38" x="127.246094"/>
      </g>
     </g>
    </g>
    <g id="ytick_11">
     <g id="line2d_26">
      <g>
       <use xlink:href="#m16228e1960" x="36.88" y="248.107273" style="stroke: #000000; stroke-width: 0.8"/>
      </g>
     </g>
     <g id="text_26">
      <!-- 589 -->
      <g transform="translate(10.7925 251.906491) scale(0.1 -0.1)">
       <use xlink:href="#DejaVuSans-35"/>
       <use xlink:href="#DejaVuSans-38" x="63.623047"/>
       <use xlink:href="#DejaVuSans-39" x="127.246094"/>
      </g>
     </g>
    </g>
    <g id="ytick_12">
     <g id="line2d_27">
      <g>
       <use xlink:href="#m16228e1960" x="36.88" y="221.845455" style="stroke: #000000; stroke-width: 0.8"/>
      </g>
     </g>
     <g id="text_27">
      <!-- 590 -->
      <g transform="translate(10.7925 225.644673) scale(0.1 -0.1)">
       <use xlink:href="#DejaVuSans-35"/>
       <use xlink:href="#DejaVuSans-39" x="63.623047"/>
       <use xlink:href="#DejaVuSans-30" x="127.246094"/>
      </g>
     </g>
    </g>
   </g>
   <g id="line2d_28">
    <path d="M 73.985455 274.369091 
L 78.496756 274.369091 
L 80.752407 353.154545 
L 83.008057 274.369091 
L 85.263708 353.154545 
L 87.519359 300.630909 
L 92.03066 300.630909 
L 94.286311 248.107273 
L 96.541962 221.845455 
L 98.797613 248.107273 
L 105.564565 248.107273 
L 107.820216 221.845455 
L 110.075866 248.107273 
L 112.331517 248.107273 
L 114.587168 221.845455 
L 116.842818 248.107273 
L 128.121072 248.107273 
L 130.376723 221.845455 
L 132.632374 221.845455 
L 134.888024 248.107273 
L 137.143675 221.845455 
L 139.399326 248.107273 
L 146.166278 248.107273 
L 148.421929 221.845455 
L 150.677579 248.107273 
L 155.188881 248.107273 
L 157.444532 221.845455 
L 159.700182 248.107273 
L 161.955833 248.107273 
L 164.211484 221.845455 
L 166.467135 248.107273 
L 175.489737 248.107273 
L 177.745388 221.845455 
L 180.001039 221.845455 
L 182.25669 248.107273 
L 184.51234 221.845455 
L 186.767991 248.107273 
L 189.023642 248.107273 
L 191.279293 221.845455 
L 193.534943 248.107273 
L 213.8358 248.107273 
L 216.091451 221.845455 
L 218.347101 248.107273 
L 220.602752 221.845455 
L 222.858403 221.845455 
L 225.114054 274.369091 
L 227.369704 248.107273 
L 234.136657 248.107273 
L 236.392307 221.845455 
L 238.647958 248.107273 
L 261.204465 248.107273 
L 263.460116 221.845455 
L 265.715767 248.107273 
L 267.971418 221.845455 
L 270.227068 248.107273 
L 272.482719 248.107273 
L 274.73837 274.369091 
L 276.99402 221.845455 
L 279.249671 248.107273 
L 281.505322 248.107273 
L 283.760973 221.845455 
L 286.016623 248.107273 
L 315.340083 248.107273 
L 317.595734 221.845455 
L 322.107035 221.845455 
L 324.362686 248.107273 
L 335.640939 248.107273 
L 337.89659 221.845455 
L 340.152241 221.845455 
L 342.407892 248.107273 
L 344.663542 248.107273 
L 346.919193 221.845455 
L 351.430495 221.845455 
L 353.686145 248.107273 
L 355.941796 221.845455 
L 360.453098 221.845455 
L 362.708748 274.369091 
L 364.964399 248.107273 
L 367.22005 248.107273 
L 369.4757 300.630909 
L 371.731351 221.845455 
L 376.242653 274.369091 
L 378.498303 248.107273 
L 380.753954 248.107273 
L 383.009605 353.154545 
L 385.265256 248.107273 
L 387.520906 274.369091 
L 389.776557 274.369091 
L 392.032208 248.107273 
L 394.287859 274.369091 
L 398.79916 274.369091 
L 401.054811 248.107273 
L 412.333064 248.107273 
L 414.588715 274.369091 
L 421.355667 274.369091 
L 423.611318 248.107273 
L 425.866969 274.369091 
L 428.12262 248.107273 
L 434.889572 248.107273 
L 437.145222 274.369091 
L 439.400873 248.107273 
L 441.656524 274.369091 
L 443.912175 248.107273 
L 446.167825 274.369091 
L 448.423476 274.369091 
L 450.679127 248.107273 
L 455.190428 248.107273 
L 457.446079 274.369091 
L 459.70173 274.369091 
L 461.95738 248.107273 
L 464.213031 248.107273 
L 466.468682 274.369091 
L 468.724333 274.369091 
L 470.979983 248.107273 
L 473.235634 248.107273 
L 475.491285 274.369091 
L 477.746936 248.107273 
L 480.002586 274.369091 
L 484.513888 274.369091 
L 486.769539 248.107273 
L 489.025189 274.369091 
L 493.536491 274.369091 
L 495.792141 248.107273 
L 498.047792 274.369091 
L 502.559094 274.369091 
L 504.814744 248.107273 
L 507.070395 248.107273 
L 509.326046 274.369091 
L 511.581697 248.107273 
L 513.837347 274.369091 
L 516.092998 248.107273 
L 520.6043 248.107273 
L 522.85995 274.369091 
L 525.115601 248.107273 
L 527.371252 248.107273 
L 529.626902 274.369091 
L 531.882553 248.107273 
L 536.393855 248.107273 
L 538.649505 274.369091 
L 543.160807 274.369091 
L 545.416458 248.107273 
L 547.672108 274.369091 
L 549.927759 248.107273 
L 556.694711 248.107273 
L 558.950362 274.369091 
L 561.206013 274.369091 
L 563.461663 248.107273 
L 565.717314 248.107273 
L 567.972965 274.369091 
L 570.228616 248.107273 
L 572.484266 248.107273 
L 574.739917 274.369091 
L 576.995568 274.369091 
L 579.251219 248.107273 
L 581.506869 274.369091 
L 583.76252 248.107273 
L 586.018171 248.107273 
L 588.273821 274.369091 
L 592.785123 274.369091 
L 595.040774 248.107273 
L 597.296424 248.107273 
L 599.552075 274.369091 
L 601.807726 248.107273 
L 604.063377 274.369091 
L 606.319027 248.107273 
L 608.574678 248.107273 
L 610.830329 274.369091 
L 613.08598 248.107273 
L 615.34163 274.369091 
L 617.597281 274.369091 
L 619.852932 300.630909 
L 624.364233 248.107273 
L 626.619884 274.369091 
L 628.875535 248.107273 
L 631.131185 274.369091 
L 633.386836 274.369091 
L 635.642487 248.107273 
L 637.898138 274.369091 
L 640.153788 248.107273 
L 642.409439 274.369091 
L 649.176391 274.369091 
L 651.432042 248.107273 
L 653.687693 274.369091 
L 658.198994 274.369091 
L 660.454645 248.107273 
L 662.710296 248.107273 
L 664.965946 274.369091 
L 667.221597 274.369091 
L 669.477248 248.107273 
L 671.732899 274.369091 
L 673.988549 248.107273 
L 676.2442 274.369091 
L 680.755502 274.369091 
L 683.011152 248.107273 
L 692.033755 248.107273 
L 694.289406 274.369091 
L 698.800707 274.369091 
L 701.056358 248.107273 
L 703.312009 248.107273 
L 705.56766 274.369091 
L 707.82331 274.369091 
L 710.078961 248.107273 
L 712.334612 300.630909 
L 716.845913 248.107273 
L 719.101564 300.630909 
L 721.357215 274.369091 
L 723.612865 274.369091 
L 725.868516 248.107273 
L 728.124167 274.369091 
L 734.891119 274.369091 
L 737.14677 300.630909 
L 739.402421 274.369091 
L 764.214579 274.369091 
L 766.470229 248.107273 
L 768.72588 274.369091 
L 786.771086 274.369091 
L 789.026737 248.107273 
L 791.282387 274.369091 
L 807.071943 274.369091 
L 809.327593 300.630909 
L 811.583244 274.369091 
L 816.094545 274.369091 
L 816.094545 274.369091 
" clip-path="url(#p353cb26255)" style="fill: none; stroke: #1f77b4; stroke-width: 1.5; stroke-linecap: square"/>
   </g>
   <g id="patch_8">
    <path d="M 36.88 359.72 
L 36.88 215.28 
" style="fill: none; stroke: #000000; stroke-width: 0.8; stroke-linejoin: miter; stroke-linecap: square"/>
   </g>
   <g id="patch_9">
    <path d="M 853.2 359.72 
L 853.2 215.28 
" style="fill: none; stroke: #000000; stroke-width: 0.8; stroke-linejoin: miter; stroke-linecap: square"/>
   </g>
   <g id="patch_10">
    <path d="M 36.88 359.72 
L 853.2 359.72 
" style="fill: none; stroke: #000000; stroke-width: 0.8; stroke-linejoin: miter; stroke-linecap: square"/>
   </g>
   <g id="patch_11">
    <path d="M 36.88 215.28 
L 853.2 215.28 
" style="fill: none; stroke: #000000; stroke-width: 0.8; stroke-linejoin: miter; stroke-linecap: square"/>
   </g>
   <g id="text_28">
    <!-- y-ordinate over time -->
    <g transform="translate(383.534375 209.28) scale(0.12 -0.12)">
     <defs>
      <path id="DejaVuSans-79" d="M 2059 -325 
Q 1816 -950 1584 -1140 
Q 1353 -1331 966 -1331 
L 506 -1331 
L 506 -850 
L 844 -850 
Q 1081 -850 1212 -737 
Q 1344 -625 1503 -206 
L 1606 56 
L 191 3500 
L 800 3500 
L 1894 763 
L 2988 3500 
L 3597 3500 
L 2059 -325 
z
" transform="scale(0.015625)"/>
     </defs>
     <use xlink:href="#DejaVuSans-79"/>
     <use xlink:href="#DejaVuSans-2d" x="57.429688"/>
     <use xlink:href="#DejaVuSans-6f" x="95.388672"/>
     <use xlink:href="#DejaVuSans-72" x="156.570312"/>
     <use xlink:href="#DejaVuSans-64" x="195.933594"/>
     <use xlink:href="#DejaVuSans-69" x="259.410156"/>
     <use xlink:href="#DejaVuSans-6e" x="287.193359"/>
     <use xlink:href="#DejaVuSans-61" x="350.572266"/>
     <use xlink:href="#DejaVuSans-74" x="411.851562"/>
     <use xlink:href="#DejaVuSans-65" x="451.060547"/>
     <use xlink:href="#DejaVuSans-20" x="512.583984"/>
     <use xlink:href="#DejaVuSans-6f" x="544.371094"/>
     <use xlink:href="#DejaVuSans-76" x="605.552734"/>
     <use xlink:href="#DejaVuSans-65" x="664.732422"/>
     <use xlink:href="#DejaVuSans-72" x="726.255859"/>
     <use xlink:href="#DejaVuSans-20" x="767.369141"/>
     <use xlink:href="#DejaVuSans-74" x="799.15625"/>
     <use xlink:href="#DejaVuSans-69" x="838.365234"/>
     <use xlink:href="#DejaVuSans-6d" x="866.148438"/>
     <use xlink:href="#DejaVuSans-65" x="963.560547"/>
    </g>
   </g>
  </g>
  <g id="axes_3">
   <g id="patch_12">
    <path d="M 36.88 548.12 
L 853.2 548.12 
L 853.2 403.68 
L 36.88 403.68 
z
" style="fill: #ffffff"/>
   </g>
   <g id="matplotlib.axis_5">
    <g id="xtick_15">
     <g id="line2d_29">
      <g>
       <use xlink:href="#mbb7f7eabb0" x="73.985455" y="548.12" style="stroke: #000000; stroke-width: 0.8"/>
      </g>
     </g>
     <g id="text_29">
      <!-- 0 -->
      <g transform="translate(70.804205 562.718437) scale(0.1 -0.1)">
       <use xlink:href="#DejaVuSans-30"/>
      </g>
     </g>
    </g>
    <g id="xtick_16">
     <g id="line2d_30">
      <g>
       <use xlink:href="#mbb7f7eabb0" x="186.767991" y="548.12" style="stroke: #000000; stroke-width: 0.8"/>
      </g>
     </g>
     <g id="text_30">
      <!-- 50 -->
      <g transform="translate(180.405491 562.718437) scale(0.1 -0.1)">
       <use xlink:href="#DejaVuSans-35"/>
       <use xlink:href="#DejaVuSans-30" x="63.623047"/>
      </g>
     </g>
    </g>
    <g id="xtick_17">
     <g id="line2d_31">
      <g>
       <use xlink:href="#mbb7f7eabb0" x="299.550528" y="548.12" style="stroke: #000000; stroke-width: 0.8"/>
      </g>
     </g>
     <g id="text_31">
      <!-- 100 -->
      <g transform="translate(290.006778 562.718437) scale(0.1 -0.1)">
       <use xlink:href="#DejaVuSans-31"/>
       <use xlink:href="#DejaVuSans-30" x="63.623047"/>
       <use xlink:href="#DejaVuSans-30" x="127.246094"/>
      </g>
     </g>
    </g>
    <g id="xtick_18">
     <g id="line2d_32">
      <g>
       <use xlink:href="#mbb7f7eabb0" x="412.333064" y="548.12" style="stroke: #000000; stroke-width: 0.8"/>
      </g>
     </g>
     <g id="text_32">
      <!-- 150 -->
      <g transform="translate(402.789314 562.718437) scale(0.1 -0.1)">
       <use xlink:href="#DejaVuSans-31"/>
       <use xlink:href="#DejaVuSans-35" x="63.623047"/>
       <use xlink:href="#DejaVuSans-30" x="127.246094"/>
      </g>
     </g>
    </g>
    <g id="xtick_19">
     <g id="line2d_33">
      <g>
       <use xlink:href="#mbb7f7eabb0" x="525.115601" y="548.12" style="stroke: #000000; stroke-width: 0.8"/>
      </g>
     </g>
     <g id="text_33">
      <!-- 200 -->
      <g transform="translate(515.571851 562.718437) scale(0.1 -0.1)">
       <use xlink:href="#DejaVuSans-32"/>
       <use xlink:href="#DejaVuSans-30" x="63.623047"/>
       <use xlink:href="#DejaVuSans-30" x="127.246094"/>
      </g>
     </g>
    </g>
    <g id="xtick_20">
     <g id="line2d_34">
      <g>
       <use xlink:href="#mbb7f7eabb0" x="637.898138" y="548.12" style="stroke: #000000; stroke-width: 0.8"/>
      </g>
     </g>
     <g id="text_34">
      <!-- 250 -->
      <g transform="translate(628.354388 562.718437) scale(0.1 -0.1)">
       <use xlink:href="#DejaVuSans-32"/>
       <use xlink:href="#DejaVuSans-35" x="63.623047"/>
       <use xlink:href="#DejaVuSans-30" x="127.246094"/>
      </g>
     </g>
    </g>
    <g id="xtick_21">
     <g id="line2d_35">
      <g>
       <use xlink:href="#mbb7f7eabb0" x="750.680674" y="548.12" style="stroke: #000000; stroke-width: 0.8"/>
      </g>
     </g>
     <g id="text_35">
      <!-- 300 -->
      <g transform="translate(741.136924 562.718437) scale(0.1 -0.1)">
       <use xlink:href="#DejaVuSans-33"/>
       <use xlink:href="#DejaVuSans-30" x="63.623047"/>
       <use xlink:href="#DejaVuSans-30" x="127.246094"/>
      </g>
     </g>
    </g>
   </g>
   <g id="matplotlib.axis_6">
    <g id="ytick_13">
     <g id="line2d_36">
      <g>
       <use xlink:href="#m16228e1960" x="36.88" y="541.554545" style="stroke: #000000; stroke-width: 0.8"/>
      </g>
     </g>
     <g id="text_36">
      <!-- 444 -->
      <g transform="translate(10.7925 545.353764) scale(0.1 -0.1)">
       <use xlink:href="#DejaVuSans-34"/>
       <use xlink:href="#DejaVuSans-34" x="63.623047"/>
       <use xlink:href="#DejaVuSans-34" x="127.246094"/>
      </g>
     </g>
    </g>
    <g id="ytick_14">
     <g id="line2d_37">
      <g>
       <use xlink:href="#m16228e1960" x="36.88" y="410.245455" style="stroke: #000000; stroke-width: 0.8"/>
      </g>
     </g>
     <g id="text_37">
      <!-- 445 -->
      <g transform="translate(10.7925 414.044673) scale(0.1 -0.1)">
       <use xlink:href="#DejaVuSans-34"/>
       <use xlink:href="#DejaVuSans-34" x="63.623047"/>
       <use xlink:href="#DejaVuSans-35" x="127.246094"/>
      </g>
     </g>
    </g>
   </g>
   <g id="line2d_38">
    <path d="M 73.985455 541.554545 
L 85.263708 541.554545 
L 87.519359 410.245455 
L 89.77501 541.554545 
L 92.03066 541.554545 
L 94.286311 410.245455 
L 96.541962 541.554545 
L 107.820216 541.554545 
L 110.075866 410.245455 
L 114.587168 410.245455 
L 116.842818 541.554545 
L 119.098469 541.554545 
L 121.35412 410.245455 
L 123.609771 410.245455 
L 125.865421 541.554545 
L 130.376723 541.554545 
L 132.632374 410.245455 
L 134.888024 541.554545 
L 137.143675 410.245455 
L 148.421929 410.245455 
L 150.677579 541.554545 
L 152.93323 541.554545 
L 155.188881 410.245455 
L 157.444532 410.245455 
L 159.700182 541.554545 
L 164.211484 541.554545 
L 166.467135 410.245455 
L 168.722785 410.245455 
L 170.978436 541.554545 
L 175.489737 541.554545 
L 177.745388 410.245455 
L 180.001039 410.245455 
L 182.25669 541.554545 
L 184.51234 541.554545 
L 186.767991 410.245455 
L 189.023642 541.554545 
L 191.279293 410.245455 
L 193.534943 410.245455 
L 195.790594 541.554545 
L 198.046245 410.245455 
L 202.557546 410.245455 
L 204.813197 541.554545 
L 207.068848 541.554545 
L 209.324498 410.245455 
L 216.091451 410.245455 
L 218.347101 541.554545 
L 220.602752 410.245455 
L 222.858403 410.245455 
L 225.114054 541.554545 
L 227.369704 541.554545 
L 229.625355 410.245455 
L 236.392307 410.245455 
L 238.647958 541.554545 
L 243.159259 541.554545 
L 245.41491 410.245455 
L 247.670561 541.554545 
L 249.926212 541.554545 
L 252.181862 410.245455 
L 254.437513 541.554545 
L 256.693164 410.245455 
L 258.948815 541.554545 
L 261.204465 410.245455 
L 263.460116 541.554545 
L 265.715767 410.245455 
L 272.482719 410.245455 
L 274.73837 541.554545 
L 276.99402 410.245455 
L 292.783576 410.245455 
L 295.039226 541.554545 
L 297.294877 410.245455 
L 299.550528 410.245455 
L 301.806179 541.554545 
L 304.061829 410.245455 
L 308.573131 410.245455 
L 310.828781 541.554545 
L 315.340083 541.554545 
L 317.595734 410.245455 
L 328.873987 410.245455 
L 331.129638 541.554545 
L 333.385289 410.245455 
L 335.640939 410.245455 
L 337.89659 541.554545 
L 340.152241 410.245455 
L 351.430495 410.245455 
L 353.686145 541.554545 
L 355.941796 541.554545 
L 358.197447 410.245455 
L 360.453098 541.554545 
L 362.708748 410.245455 
L 367.22005 410.245455 
L 369.4757 541.554545 
L 371.731351 410.245455 
L 376.242653 410.245455 
L 378.498303 541.554545 
L 380.753954 410.245455 
L 385.265256 410.245455 
L 387.520906 541.554545 
L 389.776557 541.554545 
L 392.032208 410.245455 
L 394.287859 410.245455 
L 396.543509 541.554545 
L 407.821763 541.554545 
L 410.077414 410.245455 
L 412.333064 410.245455 
L 414.588715 541.554545 
L 416.844366 410.245455 
L 419.100017 541.554545 
L 423.611318 541.554545 
L 425.866969 410.245455 
L 428.12262 410.245455 
L 430.37827 541.554545 
L 432.633921 410.245455 
L 434.889572 541.554545 
L 437.145222 410.245455 
L 439.400873 541.554545 
L 441.656524 541.554545 
L 443.912175 410.245455 
L 446.167825 541.554545 
L 448.423476 541.554545 
L 450.679127 410.245455 
L 452.934778 541.554545 
L 455.190428 410.245455 
L 457.446079 410.245455 
L 459.70173 541.554545 
L 461.95738 410.245455 
L 464.213031 410.245455 
L 466.468682 541.554545 
L 468.724333 541.554545 
L 470.979983 410.245455 
L 473.235634 410.245455 
L 475.491285 541.554545 
L 477.746936 410.245455 
L 480.002586 541.554545 
L 484.513888 541.554545 
L 486.769539 410.245455 
L 489.025189 410.245455 
L 491.28084 541.554545 
L 493.536491 541.554545 
L 495.792141 410.245455 
L 498.047792 541.554545 
L 500.303443 410.245455 
L 502.559094 541.554545 
L 504.814744 541.554545 
L 507.070395 410.245455 
L 509.326046 541.554545 
L 511.581697 410.245455 
L 513.837347 541.554545 
L 534.138204 541.554545 
L 536.393855 410.245455 
L 538.649505 541.554545 
L 547.672108 541.554545 
L 549.927759 410.245455 
L 552.18341 541.554545 
L 554.439061 410.245455 
L 556.694711 410.245455 
L 558.950362 541.554545 
L 563.461663 541.554545 
L 565.717314 410.245455 
L 567.972965 541.554545 
L 570.228616 410.245455 
L 572.484266 410.245455 
L 574.739917 541.554545 
L 576.995568 541.554545 
L 579.251219 410.245455 
L 581.506869 541.554545 
L 583.76252 410.245455 
L 586.018171 541.554545 
L 590.529472 541.554545 
L 592.785123 410.245455 
L 595.040774 541.554545 
L 597.296424 410.245455 
L 599.552075 541.554545 
L 604.063377 541.554545 
L 606.319027 410.245455 
L 608.574678 541.554545 
L 610.830329 541.554545 
L 613.08598 410.245455 
L 615.34163 541.554545 
L 622.108582 541.554545 
L 624.364233 410.245455 
L 626.619884 541.554545 
L 628.875535 410.245455 
L 631.131185 541.554545 
L 637.898138 541.554545 
L 640.153788 410.245455 
L 642.409439 541.554545 
L 644.66509 541.554545 
L 646.920741 410.245455 
L 649.176391 541.554545 
L 651.432042 410.245455 
L 653.687693 541.554545 
L 655.943343 410.245455 
L 658.198994 541.554545 
L 660.454645 410.245455 
L 662.710296 410.245455 
L 664.965946 541.554545 
L 667.221597 541.554545 
L 669.477248 410.245455 
L 671.732899 541.554545 
L 676.2442 541.554545 
L 678.499851 410.245455 
L 689.778104 410.245455 
L 692.033755 541.554545 
L 701.056358 541.554545 
L 703.312009 410.245455 
L 705.56766 541.554545 
L 707.82331 541.554545 
L 710.078961 410.245455 
L 712.334612 541.554545 
L 714.590263 410.245455 
L 716.845913 410.245455 
L 719.101564 541.554545 
L 721.357215 541.554545 
L 723.612865 410.245455 
L 725.868516 541.554545 
L 732.635468 541.554545 
L 734.891119 410.245455 
L 737.14677 541.554545 
L 739.402421 410.245455 
L 741.658071 541.554545 
L 746.169373 541.554545 
L 748.425023 410.245455 
L 750.680674 541.554545 
L 759.703277 541.554545 
L 761.958928 410.245455 
L 764.214579 541.554545 
L 789.026737 541.554545 
L 791.282387 410.245455 
L 793.538038 541.554545 
L 798.04934 541.554545 
L 800.30499 410.245455 
L 802.560641 541.554545 
L 816.094545 541.554545 
L 816.094545 541.554545 
" clip-path="url(#p8c7e4fbe41)" style="fill: none; stroke: #1f77b4; stroke-width: 1.5; stroke-linecap: square"/>
   </g>
   <g id="patch_13">
    <path d="M 36.88 548.12 
L 36.88 403.68 
" style="fill: none; stroke: #000000; stroke-width: 0.8; stroke-linejoin: miter; stroke-linecap: square"/>
   </g>
   <g id="patch_14">
    <path d="M 853.2 548.12 
L 853.2 403.68 
" style="fill: none; stroke: #000000; stroke-width: 0.8; stroke-linejoin: miter; stroke-linecap: square"/>
   </g>
   <g id="patch_15">
    <path d="M 36.88 548.12 
L 853.2 548.12 
" style="fill: none; stroke: #000000; stroke-width: 0.8; stroke-linejoin: miter; stroke-linecap: square"/>
   </g>
   <g id="patch_16">
    <path d="M 36.88 403.68 
L 853.2 403.68 
" style="fill: none; stroke: #000000; stroke-width: 0.8; stroke-linejoin: miter; stroke-linecap: square"/>
   </g>
   <g id="text_38">
    <!-- Depth over time -->
    <g transform="translate(396.014375 397.68) scale(0.12 -0.12)">
     <defs>
      <path id="DejaVuSans-44" d="M 1259 4147 
L 1259 519 
L 2022 519 
Q 2988 519 3436 956 
Q 3884 1394 3884 2338 
Q 3884 3275 3436 3711 
Q 2988 4147 2022 4147 
L 1259 4147 
z
M 628 4666 
L 1925 4666 
Q 3281 4666 3915 4102 
Q 4550 3538 4550 2338 
Q 4550 1131 3912 565 
Q 3275 0 1925 0 
L 628 0 
L 628 4666 
z
" transform="scale(0.015625)"/>
      <path id="DejaVuSans-70" d="M 1159 525 
L 1159 -1331 
L 581 -1331 
L 581 3500 
L 1159 3500 
L 1159 2969 
Q 1341 3281 1617 3432 
Q 1894 3584 2278 3584 
Q 2916 3584 3314 3078 
Q 3713 2572 3713 1747 
Q 3713 922 3314 415 
Q 2916 -91 2278 -91 
Q 1894 -91 1617 61 
Q 1341 213 1159 525 
z
M 3116 1747 
Q 3116 2381 2855 2742 
Q 2594 3103 2138 3103 
Q 1681 3103 1420 2742 
Q 1159 2381 1159 1747 
Q 1159 1113 1420 752 
Q 1681 391 2138 391 
Q 2594 391 2855 752 
Q 3116 1113 3116 1747 
z
" transform="scale(0.015625)"/>
      <path id="DejaVuSans-68" d="M 3513 2113 
L 3513 0 
L 2938 0 
L 2938 2094 
Q 2938 2591 2744 2837 
Q 2550 3084 2163 3084 
Q 1697 3084 1428 2787 
Q 1159 2491 1159 1978 
L 1159 0 
L 581 0 
L 581 4863 
L 1159 4863 
L 1159 2956 
Q 1366 3272 1645 3428 
Q 1925 3584 2291 3584 
Q 2894 3584 3203 3211 
Q 3513 2838 3513 2113 
z
" transform="scale(0.015625)"/>
     </defs>
     <use xlink:href="#DejaVuSans-44"/>
     <use xlink:href="#DejaVuSans-65" x="77.001953"/>
     <use xlink:href="#DejaVuSans-70" x="138.525391"/>
     <use xlink:href="#DejaVuSans-74" x="202.001953"/>
     <use xlink:href="#DejaVuSans-68" x="241.210938"/>
     <use xlink:href="#DejaVuSans-20" x="304.589844"/>
     <use xlink:href="#DejaVuSans-6f" x="336.376953"/>
     <use xlink:href="#DejaVuSans-76" x="397.558594"/>
     <use xlink:href="#DejaVuSans-65" x="456.738281"/>
     <use xlink:href="#DejaVuSans-72" x="518.261719"/>
     <use xlink:href="#DejaVuSans-20" x="559.375"/>
     <use xlink:href="#DejaVuSans-74" x="591.162109"/>
     <use xlink:href="#DejaVuSans-69" x="630.371094"/>
     <use xlink:href="#DejaVuSans-6d" x="658.154297"/>
     <use xlink:href="#DejaVuSans-65" x="755.566406"/>
    </g>
   </g>
  </g>
 </g>
 <defs>
  <clipPath id="p8d47b5c476">
   <rect x="36.88" y="26.88" width="816.32" height="144.44"/>
  </clipPath>
  <clipPath id="p353cb26255">
   <rect x="36.88" y="215.28" width="816.32" height="144.44"/>
  </clipPath>
  <clipPath id="p8c7e4fbe41">
   <rect x="36.88" y="403.68" width="816.32" height="144.44"/>
  </clipPath>
 </defs>
</svg>
